{
.appVersion = "113";
DisplayStrings = (
"2",
"4",
"6",
"9",
"7",
"3"
);
copyright = "Generated by Fontographer 4.1. Made by Novandito; Jakarta. October, 30th, 2007";
date = "2007-10-30 22:43:15 +0000";
familyName = Dice;
featurePrefixes = (
{
automatic = 1;
code = "languagesystem DFLT dflt;\012";
name = Languagesystems;
}
);
fontMaster = (
{
ascender = 798;
capHeight = 700;
customParameters = (
{
name = "Prep Table Assembly";
value = "NPUSHB[ ]	/* 19 values pushed */\01212 12 11 11 10 10 9 9 8 8 3 3 2 2 1 1 0 0 1 \012SCANTYPE[ ]	/* ScanType */\012PUSHW[ ]	/* 1 value pushed */\012511 \012SCANCTRL[ ]	/* ScanConversionControl */\012RCVT[ ]	/* ReadCVT */\012ROUND[00]	/* Round */\012WCVTP[ ]	/* WriteCVTInPixels */\012RCVT[ ]	/* ReadCVT */\012ROUND[00]	/* Round */\012WCVTP[ ]	/* WriteCVTInPixels */\012RCVT[ ]	/* ReadCVT */\012ROUND[00]	/* Round */\012WCVTP[ ]	/* WriteCVTInPixels */\012RCVT[ ]	/* ReadCVT */\012ROUND[00]	/* Round */\012WCVTP[ ]	/* WriteCVTInPixels */\012RCVT[ ]	/* ReadCVT */\012ROUND[00]	/* Round */\012WCVTP[ ]	/* WriteCVTInPixels */\012RCVT[ ]	/* ReadCVT */\012ROUND[00]	/* Round */\012WCVTP[ ]	/* WriteCVTInPixels */\012RCVT[ ]	/* ReadCVT */\012ROUND[00]	/* Round */\012WCVTP[ ]	/* WriteCVTInPixels */\012RCVT[ ]	/* ReadCVT */\012ROUND[00]	/* Round */\012WCVTP[ ]	/* WriteCVTInPixels */\012RCVT[ ]	/* ReadCVT */\012ROUND[00]	/* Round */\012WCVTP[ ]	/* WriteCVTInPixels */\012PUSHB[ ]	/* 4 values pushed */\0125 4 70 0 \012CALL[ ]	/* CallFunction */\012PUSHB[ ]	/* 4 values pushed */\0127 6 70 0 \012CALL[ ]	/* CallFunction */\012PUSHB[ ]	/* 2 values pushed */\0124 4 \012RCVT[ ]	/* ReadCVT */\012ROUND[00]	/* Round */\012WCVTP[ ]	/* WriteCVTInPixels */\012PUSHB[ ]	/* 2 values pushed */\0126 6 \012RCVT[ ]	/* ReadCVT */\012ROUND[00]	/* Round */\012WCVTP[ ]	/* WriteCVTInPixels */";
},
{
name = "Fpgm Table Assembly";

glyphs = (
{
glyphname = A;
layers = (
{
layerId = "466BAD2E-A4F2-4075-8033-B07AE50D6525";
paths = (
{
closed = 1;
nodes = (
"505 261 LINE",
"505 242 LINE",
"499 238.667 OFFCURVE",
"491.667 235 OFFCURVE",
"483 231 CURVE SMOOTH",
"459.667 220.333 OFFCURVE",
"443.333 216 OFFCURVE",
"434 218 CURVE SMOOTH",
"420 220.667 OFFCURVE",
"410 227.667 OFFCURVE",
"404 239 CURVE",
"345 385 LINE",
"157 387 LINE",
"120 296 LINE SMOOTH",
"116.667 288 OFFCURVE",
"114.667 281.333 OFFCURVE",
"114 276 CURVE",
"114 258 OFFCURVE",
"128.667 249 OFFCURVE",
"158 249 CURVE SMOOTH",
"173 249 LINE",
"173 227 LINE",
"10 228 LINE",
"10 250 LINE",
"51.333 250 OFFCURVE",
"71 260 OFFCURVE",
"87 296 CURVE SMOOTH",
"236 649 LINE",
"238 652.333 OFFCURVE",
"238.333 656 OFFCURVE",
"237 660 CURVE",
"233.667 668 OFFCURVE",
"228.667 670.667 OFFCURVE",
"222 668 CURVE",
"214.667 664.667 OFFCURVE",
"210.667 663 OFFCURVE",
"210 663 CURVE",
"211 679 LINE",
"221 684.333 OFFCURVE",
"227 687.667 OFFCURVE",
"229 689 CURVE",
"247.667 698.333 OFFCURVE",
"261.667 702 OFFCURVE",
"271 700 CURVE SMOOTH",
"285 697.333 OFFCURVE",
"295 688 OFFCURVE",
"301 672 CURVE",
"301.667 668 OFFCURVE",
"302.667 665 OFFCURVE",
"304 663 CURVE",
"469 275 LINE",
"469 275 LINE",
"474.333 264.333 OFFCURVE",
"479 249.667 OFFCURVE",
"491 255 CURVE SMOOTH"
);
},
{
closed = 1;
nodes = (
"168 416 LINE",
"332 415 LINE",
"271 565 LINE SMOOTH",
"261.667 588.333 OFFCURVE",
"255.333 607.333 OFFCURVE",
"252 622 CURVE",
"249.333 613.333 OFFCURVE",
"247.333 607.333 OFFCURVE",
"246 604 CURVE SMOOTH"
);
}
);
userData = {
assembly = "NPUSHB[ ]	/* 39 values pushed */\0121 50 50 64 51 41 49 46 42 26 16 14 4 3 0 49 43 42 41 30 27 26 25 24 18 14 4 3 33 34 7 28 24 27 9 37 1 24 70 \012SROUND[ ]	/* SuperRound */\012MDAP[1]	/* MoveDirectAbsPt */\012SHZ[1]	/* ShiftZoneByLastPoint */\012RTG[ ]	/* RoundToGrid */\012SVTCA[0]	/* SetFreedomAndProjectionVectorToAxis */\012MDAP[1]	/* MoveDirectAbsPt */\012MDAP[1]	/* MoveDirectAbsPt */\012MDAP[1]	/* MoveDirectAbsPt */\012ALIGNRP[ ]	/* AlignRelativePt */\012ALIGNRP[ ]	/* AlignRelativePt */\012MIRP[11101]	/* MoveIndirectRelPt */\012ALIGNRP[ ]	/* AlignRelativePt */\012SVTCA[1]	/* SetFreedomAndProjectionVectorToAxis */\012MDAP[0]	/* MoveDirectAbsPt */\012MDAP[0]	/* MoveDirectAbsPt */\012MDAP[0]	/* MoveDirectAbsPt */\012MDAP[0]	/* MoveDirectAbsPt */\012MDAP[0]	/* MoveDirectAbsPt */\012MDAP[0]	/* MoveDirectAbsPt */\012MDAP[0]	/* MoveDirectAbsPt */\012MDAP[0]	/* MoveDirectAbsPt */\012MDAP[0]	/* MoveDirectAbsPt */\012MDAP[0]	/* MoveDirectAbsPt */\012MDAP[0]	/* MoveDirectAbsPt */\012MDAP[0]	/* MoveDirectAbsPt */\012MDAP[0]	/* MoveDirectAbsPt */\012SVTCA[0]	/* SetFreedomAndProjectionVectorToAxis */\012MDAP[0]	/* MoveDirectAbsPt */\012MDAP[0]	/* MoveDirectAbsPt */\012MDAP[0]	/* MoveDirectAbsPt */\012MDAP[0]	/* MoveDirectAbsPt */\012MDAP[0]	/* MoveDirectAbsPt */\012MDAP[0]	/* MoveDirectAbsPt */\012MDAP[0]	/* MoveDirectAbsPt */\012MDAP[0]	/* MoveDirectAbsPt */\012MDAP[0]	/* MoveDirectAbsPt */\012IUP[1]	/* InterpolateUntPts */\012IUP[0]	/* InterpolateUntPts */\012SVTCA[1]	/* SetFreedomAndProjectionVectorToAxis */\012MD[0]	/* MeasureDistance */\012ROUND[00]	/* Round */\012PUSHW[ ]	/* 2 values pushed */\01224 50 \012MD[0]	/* MeasureDistance */\012ROUND[00]	/* Round */\012SUB[ ]	/* Subtract */\012PUSHB[ ]	/* 1 value pushed */\01264 \012GT[ ]	/* GreaterThan */\012IF[ ]	/* If */\012SHPIX[ ]	/* ShiftZoneByPixel */\012SRP1[ ]	/* SetRefPoint1 */\012SHZ[1]	/* ShiftZoneByLastPoint */\012PUSHW[ ]	/* 2 values pushed */\01250 -64 \012SHPIX[ ]	/* ShiftZoneByPixel */\012EIF[ ]	/* EndIf */";
};
width = 515;
}
);
note = A;
unicode = 0041;
},
{
glyphname = B;
layers = (
{
layerId = "466BAD2E-A4F2-4075-8033-B07AE50D6525";
paths = (
{
closed = 1;
nodes = (
"414.667 450.333 OFFCURVE",
"438 412 OFFCURVE",
"438 364 CURVE SMOOTH",
"438 280 OFFCURVE",
"375.333 221.333 OFFCURVE",
"290 220 CURVE SMOOTH",
"270 220 OFFCURVE",
"248.667 227.667 OFFCURVE",
"226 243 CURVE",
"208.667 259 OFFCURVE",
"197 271.333 OFFCURVE",
"191 280 CURVE",
"203 290 LINE",
"221.667 267.333 OFFCURVE",
"241.333 254.333 OFFCURVE",
"262 251 CURVE SMOOTH",
"282 247.667 OFFCURVE",
"302.667 254 OFFCURVE",
"324 270 CURVE SMOOTH",
"350.667 290.667 OFFCURVE",
"364 319.333 OFFCURVE",
"364 356 CURVE SMOOTH",
"364 417.333 OFFCURVE",
"325.333 459 OFFCURVE",
"264 467 CURVE SMOOTH",
"250.667 469 OFFCURVE",
"235.333 466.333 OFFCURVE",
"218 459 CURVE",
"209 474 LINE",
"225.667 478 OFFCURVE",
"246.667 492.333 OFFCURVE",
"272 517 CURVE SMOOTH",
"296 541 OFFCURVE",
"318.333 590 OFFCURVE",
"317 622 CURVE SMOOTH",
"315.667 655.333 OFFCURVE",
"295 683.333 OFFCURVE",
"263 682 CURVE SMOOTH",
"244.333 681.333 OFFCURVE",
"226.333 673.333 OFFCURVE",
"209 658 CURVE SMOOTH",
"170.333 624 OFFCURVE",
"150.667 579.667 OFFCURVE",
"150 525 CURVE SMOOTH",
"147 306 LINE SMOOTH",
"145.667 256.667 OFFCURVE",
"151.667 249.667 OFFCURVE",
"201 247 CURVE",
"201 225 LINE",
"10 226 LINE",
"10 248 LINE",
"38 249.333 OFFCURVE",
"55.667 252.333 OFFCURVE",
"63 257 CURVE SMOOTH",
"75 264.333 OFFCURVE",
"81 280 OFFCURVE",
"81 304 CURVE SMOOTH",
"83 619 LINE SMOOTH",
"83 624.333 OFFCURVE",
"82.667 629.667 OFFCURVE",
"82 635 CURVE",
"82 653 LINE SMOOTH",
"82 657.667 OFFCURVE",
"82 660 OFFCURVE",
"82 660 CURVE",
"81.333 668.667 OFFCURVE",
"76.333 671 OFFCURVE",
"67 667 CURVE SMOOTH",
"60.333 664.333 OFFCURVE",
"56.333 662.667 OFFCURVE",
"55 662 CURVE",
"55 679 LINE",
"59 681 OFFCURVE",
"65.333 684 OFFCURVE",
"74 688 CURVE SMOOTH",
"93.333 696.667 OFFCURVE",
"107.333 700.667 OFFCURVE",
"116 700 CURVE SMOOTH",
"134 698 OFFCURVE",
"145.667 687.667 OFFCURVE",
"151 669 CURVE",
"151 664 LINE",
"160.333 670.667 OFFCURVE",
"167.667 675.667 OFFCURVE",
"173 679 CURVE SMOOTH",
"194.333 692.333 OFFCURVE",
"217.667 700 OFFCURVE",
"243 702 CURVE SMOOTH",
"285.667 705.333 OFFCURVE",
"317 698.333 OFFCURVE",
"337 681 CURVE SMOOTH",
"362.333 659 OFFCURVE",
"375 635 OFFCURVE",
"375 609 CURVE SMOOTH",
"375 577 OFFCURVE",
"359 548 OFFCURVE",
"327 522 CURVE",
"311.667 512 OFFCURVE",
"301 505.667 OFFCURVE",
"295 503 CURVE",
"319.667 501.667 OFFCURVE",
"344 493.667 OFFCURVE",
"368 479 CURVE SMOOTH"
);
}
);
userData = {
assembly = "NPUSHB[ ]	/* 43 values pushed */\0121 77 77 64 78 75 67 65 58 56 38 24 22 14 75 68 55 50 39 38 37 36 31 29 26 22 21 15 14 6 2 42 5 61 47 7 10 17 10 72 1 36 70 \012SROUND[ ]	/* SuperRound */\012MDAP[1]	/* MoveDirectAbsPt */\012SHZ[1]	/* ShiftZoneByLastPoint */\012RTG[ ]	/* RoundToGrid */\012SVTCA[0]	/* SetFreedomAndProjectionVectorToAxis */\012MDAP[1]	/* MoveDirectAbsPt */\012MDAP[1]	/* MoveDirectAbsPt */\012ALIGNRP[ ]	/* AlignRelativePt */\012SRP0[ ]	/* SetRefPoint0 */\012MIRP[11101]	/* MoveIndirectRelPt */\012SVTCA[1]	/* SetFreedomAndProjectionVectorToAxis */\012MDAP[1]	/* MoveDirectAbsPt */\012MIRP[11101]	/* MoveIndirectRelPt */\012MDAP[0]	/* MoveDirectAbsPt */\012MDAP[0]	/* MoveDirectAbsPt */\012MDAP[0]	/* MoveDirectAbsPt */\012MDAP[0]	/* MoveDirectAbsPt */\012MDAP[0]	/* MoveDirectAbsPt */\012MDAP[0]	/* MoveDirectAbsPt */\012MDAP[0]	/* MoveDirectAbsPt */\012MDAP[0]	/* MoveDirectAbsPt */\012MDAP[0]	/* MoveDirectAbsPt */\012MDAP[0]	/* MoveDirectAbsPt */\012MDAP[0]	/* MoveDirectAbsPt */\012MDAP[0]	/* MoveDirectAbsPt */\012MDAP[0]	/* MoveDirectAbsPt */\012MDAP[0]	/* MoveDirectAbsPt */\012MDAP[0]	/* MoveDirectAbsPt */\012MDAP[0]	/* MoveDirectAbsPt */\012MDAP[0]	/* MoveDirectAbsPt */\012SVTCA[0]	/* SetFreedomAndProjectionVectorToAxis */\012MDAP[0]	/* MoveDirectAbsPt */\012MDAP[0]	/* MoveDirectAbsPt */\012MDAP[0]	/* MoveDirectAbsPt */\012MDAP[0]	/* MoveDirectAbsPt */\012MDAP[0]	/* MoveDirectAbsPt */\012MDAP[0]	/* MoveDirectAbsPt */\012MDAP[0]	/* MoveDirectAbsPt */\012MDAP[0]	/* MoveDirectAbsPt */\012IUP[1]	/* InterpolateUntPts */\012IUP[0]	/* InterpolateUntPts */\012SVTCA[1]	/* SetFreedomAndProjectionVectorToAxis */\012MD[0]	/* MeasureDistance */\012ROUND[00]	/* Round */\012PUSHW[ ]	/* 2 values pushed */\01236 77 \012MD[0]	/* MeasureDistance */\012ROUND[00]	/* Round */\012SUB[ ]	/* Subtract */\012PUSHB[ ]	/* 1 value pushed */\01264 \012GT[ ]	/* GreaterThan */\012IF[ ]	/* If */\012SHPIX[ ]	/* ShiftZoneByPixel */\012SRP1[ ]	/* SetRefPoint1 */\012SHZ[1]	/* ShiftZoneByLastPoint */\012PUSHW[ ]	/* 2 values pushed */\01277 -64 \012SHPIX[ ]	/* ShiftZoneByPixel */\012EIF[ ]	/* EndIf */";
};
width = 448;
}
);
note = B;
unicode = 0042;
},
{
glyphname = C;
layers = (
{
layerId = "466BAD2E-A4F2-4075-8033-B07AE50D6525";
paths = (
{
closed = 1;
nodes = (
"442 345 LINE",
"407.333 265 OFFCURVE",
"324.333 215 OFFCURVE",
"235 215 CURVE SMOOTH",
"167 215.667 OFFCURVE",
"112 239.667 OFFCURVE",
"70 287 CURVE SMOOTH",
"30 332.333 OFFCURVE",
"10 389.667 OFFCURVE",
"10 459 CURVE SMOOTH",
"10 529 OFFCURVE",
"30.667 588 OFFCURVE",
"72 636 CURVE SMOOTH",
"115.333 686.667 OFFCURVE",
"171.333 711.667 OFFCURVE",
"240 711 CURVE SMOOTH",
"284.667 711 OFFCURVE",
"327.667 698.333 OFFCURVE",
"369 673 CURVE",
"369 673 LINE",
"376.333 668.333 OFFCURVE",
"382 664.667 OFFCURVE",
"386 662 CURVE",
"386 661 LINE",
"401.333 649.667 OFFCURVE",
"408.667 636 OFFCURVE",
"408 620 CURVE",
"408 613.333 OFFCURVE",
"405 605.667 OFFCURVE",
"399 597 CURVE SMOOTH",
"389 581.667 OFFCURVE",
"378.667 568.667 OFFCURVE",
"368 558 CURVE",
"351 563 LINE",
"359 574 LINE SMOOTH",
"367 584.667 OFFCURVE",
"370 594.667 OFFCURVE",
"368 604 CURVE",
"359.333 624 OFFCURVE",
"353 636.333 OFFCURVE",
"349 641 CURVE",
"349 641 LINE",
"320.333 671 OFFCURVE",
"284.667 686 OFFCURVE",
"242 686 CURVE SMOOTH",
"190 686.667 OFFCURVE",
"150 662.667 OFFCURVE",
"122 614 CURVE SMOOTH",
"98.667 574 OFFCURVE",
"87 526 OFFCURVE",
"87 470 CURVE SMOOTH",
"86.333 410 OFFCURVE",
"98.667 360.333 OFFCURVE",
"124 321 CURVE SMOOTH",
"153.333 274.333 OFFCURVE",
"196.333 250.667 OFFCURVE",
"253 250 CURVE SMOOTH",
"322.333 250 OFFCURVE",
"392.667 298.667 OFFCURVE",
"418 364 CURVE"
);
}
);
userData = {
assembly = "NPUSHB[ ]	/* 31 values pushed */\0121 44 44 64 45 43 30 29 20 14 13 11 3 0 43 36 30 29 27 26 24 19 16 14 13 7 32 40 1 36 70 \012SROUND[ ]	/* SuperRound */\012MDAP[1]	/* MoveDirectAbsPt */\012SHZ[1]	/* ShiftZoneByLastPoint */\012RTG[ ]	/* RoundToGrid */\012SVTCA[0]	/* SetFreedomAndProjectionVectorToAxis */\012MDAP[1]	/* MoveDirectAbsPt */\012MDAP[1]	/* MoveDirectAbsPt */\012SVTCA[1]	/* SetFreedomAndProjectionVectorToAxis */\012MDAP[0]	/* MoveDirectAbsPt */\012MDAP[0]	/* MoveDirectAbsPt */\012MDAP[0]	/* MoveDirectAbsPt */\012MDAP[0]	/* MoveDirectAbsPt */\012MDAP[0]	/* MoveDirectAbsPt */\012MDAP[0]	/* MoveDirectAbsPt */\012MDAP[0]	/* MoveDirectAbsPt */\012MDAP[0]	/* MoveDirectAbsPt */\012MDAP[0]	/* MoveDirectAbsPt */\012MDAP[0]	/* MoveDirectAbsPt */\012MDAP[0]	/* MoveDirectAbsPt */\012MDAP[0]	/* MoveDirectAbsPt */\012SVTCA[0]	/* SetFreedomAndProjectionVectorToAxis */\012MDAP[0]	/* MoveDirectAbsPt */\012MDAP[0]	/* MoveDirectAbsPt */\012MDAP[0]	/* MoveDirectAbsPt */\012MDAP[0]	/* MoveDirectAbsPt */\012MDAP[0]	/* MoveDirectAbsPt */\012MDAP[0]	/* MoveDirectAbsPt */\012MDAP[0]	/* MoveDirectAbsPt */\012MDAP[0]	/* MoveDirectAbsPt */\012IUP[1]	/* InterpolateUntPts */\012IUP[0]	/* InterpolateUntPts */\012SVTCA[1]	/* SetFreedomAndProjectionVectorToAxis */\012MD[0]	/* MeasureDistance */\012ROUND[00]	/* Round */\012PUSHW[ ]	/* 2 values pushed */\01236 44 \012MD[0]	/* MeasureDistance */\012ROUND[00]	/* Round */\012SUB[ ]	/* Subtract */\012PUSHB[ ]	/* 1 value pushed */\01264 \012GT[ ]	/* GreaterThan */\012IF[ ]	/* If */\012SHPIX[ ]	/* ShiftZoneByPixel */\012SRP1[ ]	/* SetRefPoint1 */\012SHZ[1]	/* ShiftZoneByLastPoint */\012PUSHW[ ]	/* 2 values pushed */\01244 -64 \012SHPIX[ ]	/* ShiftZoneByPixel */\012EIF[ ]	/* EndIf */";
};
width = 452;
}
);
note = C;
unicode = 0043;
},
{
glyphname = D;
layers = (
{
layerId = "466BAD2E-A4F2-4075-8033-B07AE50D6525";
paths = (
{
closed = 1;
nodes = (
"465.667 577.667 OFFCURVE",
"486 522.667 OFFCURVE",
"486 458 CURVE SMOOTH",
"484.667 318 OFFCURVE",
"389 225.667 OFFCURVE",
"249 227 CURVE SMOOTH",
"10 229 LINE",
"10 251 LINE",
"37.333 252.333 OFFCURVE",
"55 255.333 OFFCURVE",
"63 260 CURVE SMOOTH",
"75 267.333 OFFCURVE",
"81 283 OFFCURVE",
"81 307 CURVE SMOOTH",
"82 471 LINE",
"82 497 LINE",
"91.333 535.667 OFFCURVE",
"100.333 561.667 OFFCURVE",
"109 575 CURVE SMOOTH",
"126.333 601.667 OFFCURVE",
"148.667 619.667 OFFCURVE",
"176 629 CURVE",
"194 614 LINE",
"174 600 OFFCURVE",
"161.333 581.667 OFFCURVE",
"156 559 CURVE SMOOTH",
"154 549.667 OFFCURVE",
"153 526.333 OFFCURVE",
"153 489 CURVE SMOOTH",
"152 331 LINE SMOOTH",
"152 264.333 OFFCURVE",
"165.667 252 OFFCURVE",
"235 252 CURVE SMOOTH",
"293 251.333 OFFCURVE",
"336.333 272.333 OFFCURVE",
"365 315 CURVE SMOOTH",
"389.667 351 OFFCURVE",
"402 399.333 OFFCURVE",
"402 460 CURVE SMOOTH",
"402.667 531.333 OFFCURVE",
"386 585.333 OFFCURVE",
"352 622 CURVE",
"351 622 LINE",
"341 632 OFFCURVE",
"329 639.333 OFFCURVE",
"315 644 CURVE SMOOTH",
"303.667 648 OFFCURVE",
"292.667 651.667 OFFCURVE",
"282 655 CURVE",
"276 656.333 OFFCURVE",
"255.667 659.333 OFFCURVE",
"221 664 CURVE SMOOTH",
"195 668 OFFCURVE",
"174.667 672.333 OFFCURVE",
"160 677 CURVE",
"148 678.333 OFFCURVE",
"119.333 695.667 OFFCURVE",
"114 705 CURVE SMOOTH",
"108 715.667 OFFCURVE",
"105 725.667 OFFCURVE",
"105 735 CURVE SMOOTH",
"105 743.667 OFFCURVE",
"107.667 751.667 OFFCURVE",
"113 759 CURVE",
"121.667 769 OFFCURVE",
"135.667 778.667 OFFCURVE",
"155 788 CURVE SMOOTH",
"167.667 794 OFFCURVE",
"175 797.333 OFFCURVE",
"177 798 CURVE",
"191 786 LINE",
"179.667 778.667 OFFCURVE",
"174 774.667 OFFCURVE",
"174 774 CURVE",
"170 769.333 OFFCURVE",
"170.667 762.667 OFFCURVE",
"176 754 CURVE",
"197.333 730 OFFCURVE",
"214 714 OFFCURVE",
"226 706 CURVE",
"226 706 LINE",
"240 698 OFFCURVE",
"254 693 OFFCURVE",
"268 691 CURVE SMOOTH",
"337.333 681.667 OFFCURVE",
"389.667 659 OFFCURVE",
"425 623 CURVE",
"425 623 LINE"
);
}
);
userData = {
assembly = "NPUSHB[ ]	/* 36 values pushed */\0121 65 65 64 66 63 48 39 33 32 6 5 1 0 63 59 58 53 52 47 19 12 10 6 5 1 0 43 42 5 35 13 60 1 58 70 \012SROUND[ ]	/* SuperRound */\012MDAP[1]	/* MoveDirectAbsPt */\012SHZ[1]	/* ShiftZoneByLastPoint */\012RTG[ ]	/* RoundToGrid */\012SVTCA[0]	/* SetFreedomAndProjectionVectorToAxis */\012MDAP[1]	/* MoveDirectAbsPt */\012MDAP[1]	/* MoveDirectAbsPt */\012SVTCA[1]	/* SetFreedomAndProjectionVectorToAxis */\012MDAP[1]	/* MoveDirectAbsPt */\012MIRP[11101]	/* MoveIndirectRelPt */\012ALIGNRP[ ]	/* AlignRelativePt */\012MDAP[0]	/* MoveDirectAbsPt */\012MDAP[0]	/* MoveDirectAbsPt */\012MDAP[0]	/* MoveDirectAbsPt */\012MDAP[0]	/* MoveDirectAbsPt */\012MDAP[0]	/* MoveDirectAbsPt */\012MDAP[0]	/* MoveDirectAbsPt */\012MDAP[0]	/* MoveDirectAbsPt */\012MDAP[0]	/* MoveDirectAbsPt */\012MDAP[0]	/* MoveDirectAbsPt */\012MDAP[0]	/* MoveDirectAbsPt */\012MDAP[0]	/* MoveDirectAbsPt */\012MDAP[0]	/* MoveDirectAbsPt */\012MDAP[0]	/* MoveDirectAbsPt */\012SVTCA[0]	/* SetFreedomAndProjectionVectorToAxis */\012MDAP[0]	/* MoveDirectAbsPt */\012MDAP[0]	/* MoveDirectAbsPt */\012MDAP[0]	/* MoveDirectAbsPt */\012MDAP[0]	/* MoveDirectAbsPt */\012MDAP[0]	/* MoveDirectAbsPt */\012MDAP[0]	/* MoveDirectAbsPt */\012MDAP[0]	/* MoveDirectAbsPt */\012MDAP[0]	/* MoveDirectAbsPt */\012IUP[1]	/* InterpolateUntPts */\012IUP[0]	/* InterpolateUntPts */\012SVTCA[1]	/* SetFreedomAndProjectionVectorToAxis */\012MD[0]	/* MeasureDistance */\012ROUND[00]	/* Round */\012PUSHW[ ]	/* 2 values pushed */\01258 65 \012MD[0]	/* MeasureDistance */\012ROUND[00]	/* Round */\012SUB[ ]	/* Subtract */\012PUSHB[ ]	/* 1 value pushed */\01264 \012GT[ ]	/* GreaterThan */\012IF[ ]	/* If */\012SHPIX[ ]	/* ShiftZoneByPixel */\012SRP1[ ]	/* SetRefPoint1 */\012SHZ[1]	/* ShiftZoneByLastPoint */\012PUSHW[ ]	/* 2 values pushed */\01265 -64 \012SHPIX[ ]	/* ShiftZoneByPixel */\012EIF[ ]	/* EndIf */";
};
width = 496;
}
);
note = D;
unicode = 0044;
},
{
glyphname = E;
layers = (
{
layerId = "466BAD2E-A4F2-4075-8033-B07AE50D6525";
paths = (
{
closed = 1;
nodes = (
"407 373 LINE",
"397 227 LINE",
"10 230 LINE",
"10 251 LINE",
"37.333 252.333 OFFCURVE",
"55 255.333 OFFCURVE",
"63 260 CURVE SMOOTH",
"75 267.333 OFFCURVE",
"81 283.333 OFFCURVE",
"81 308 CURVE SMOOTH",
"82.333 547.333 OFFCURVE",
"82.667 670 OFFCURVE",
"82 676 CURVE",
"81.333 685.333 OFFCURVE",
"76 688 OFFCURVE",
"66 684 CURVE SMOOTH",
"59.333 681.333 OFFCURVE",
"55.333 679.333 OFFCURVE",
"54 678 CURVE",
"54 696 LINE",
"58 698 OFFCURVE",
"64.667 701.333 OFFCURVE",
"74 706 CURVE",
"95.333 715.333 OFFCURVE",
"110.667 719.667 OFFCURVE",
"120 719 CURVE SMOOTH",
"136.667 717.667 OFFCURVE",
"148.333 708 OFFCURVE",
"155 690 CURVE",
"155 686 LINE",
"185.667 707.333 OFFCURVE",
"222.667 717.667 OFFCURVE",
"266 717 CURVE SMOOTH",
"290 717 OFFCURVE",
"313.333 710.667 OFFCURVE",
"336 698 CURVE",
"344.667 691.333 OFFCURVE",
"353.667 685 OFFCURVE",
"363 679 CURVE",
"379 665 OFFCURVE",
"386.667 651 OFFCURVE",
"386 637 CURVE SMOOTH",
"385.333 623.667 OFFCURVE",
"373.667 605.667 OFFCURVE",
"351 583 CURVE",
"332 588 LINE",
"340 596 OFFCURVE",
"344 607 OFFCURVE",
"344 621 CURVE",
"342.667 657 OFFCURVE",
"306 690 OFFCURVE",
"270 690 CURVE SMOOTH",
"233.333 690 OFFCURVE",
"204.333 676 OFFCURVE",
"183 648 CURVE SMOOTH",
"163.667 622.667 OFFCURVE",
"154 591.333 OFFCURVE",
"154 554 CURVE SMOOTH",
"154 476 LINE",
"188 476 LINE SMOOTH",
"223.333 476 OFFCURVE",
"242 494 OFFCURVE",
"244 530 CURVE",
"262 530 LINE",
"261 397 LINE",
"243 397 LINE",
"239.667 418.333 OFFCURVE",
"235.333 432.667 OFFCURVE",
"230 440 CURVE",
"222 450 OFFCURVE",
"208 455 OFFCURVE",
"188 455 CURVE SMOOTH",
"154 455 LINE",
"153 301 LINE",
"157 269 OFFCURVE",
"181.333 252.667 OFFCURVE",
"226 252 CURVE SMOOTH",
"260.667 252 OFFCURVE",
"287 254.667 OFFCURVE",
"305 260 CURVE SMOOTH",
"347.667 273.333 OFFCURVE",
"384.333 326.333 OFFCURVE",
"387 373 CURVE"
);
}
);
userData = {
assembly = "NPUSHB[ ]	/* 57 values pushed */\0121 62 62 64 63 61 61 50 48 40 30 19 18 16 0 61 59 58 52 48 47 32 29 27 15 0 5 7 13 16 4 41 40 20 19 7 5 8 9 8 6 5 24 7 15 14 13 7 5 38 43 60 15 2 1 58 70 \012SROUND[ ]	/* SuperRound */\012MDAP[1]	/* MoveDirectAbsPt */\012SHZ[1]	/* ShiftZoneByLastPoint */\012RTG[ ]	/* RoundToGrid */\012SVTCA[0]	/* SetFreedomAndProjectionVectorToAxis */\012MIAP[1]	/* MoveIndirectAbsPt */\012MDAP[1]	/* MoveDirectAbsPt */\012MDAP[1]	/* MoveDirectAbsPt */\012ALIGNRP[ ]	/* AlignRelativePt */\012MDAP[1]	/* MoveDirectAbsPt */\012MIRP[11101]	/* MoveIndirectRelPt */\012ALIGNRP[ ]	/* AlignRelativePt */\012SRP0[ ]	/* SetRefPoint0 */\012MIRP[11101]	/* MoveIndirectRelPt */\012SRP0[ ]	/* SetRefPoint0 */\012MIRP[11101]	/* MoveIndirectRelPt */\012ALIGNRP[ ]	/* AlignRelativePt */\012SVTCA[1]	/* SetFreedomAndProjectionVectorToAxis */\012MDAP[1]	/* MoveDirectAbsPt */\012SLOOP[ ]	/* SetLoopVariable */\012ALIGNRP[ ]	/* AlignRelativePt */\012MIRP[11101]	/* MoveIndirectRelPt */\012ALIGNRP[ ]	/* AlignRelativePt */\012SRP0[ ]	/* SetRefPoint0 */\012MIRP[11101]	/* MoveIndirectRelPt */\012MDAP[0]	/* MoveDirectAbsPt */\012MDAP[0]	/* MoveDirectAbsPt */\012MDAP[0]	/* MoveDirectAbsPt */\012MDAP[0]	/* MoveDirectAbsPt */\012MDAP[0]	/* MoveDirectAbsPt */\012MDAP[0]	/* MoveDirectAbsPt */\012MDAP[0]	/* MoveDirectAbsPt */\012MDAP[0]	/* MoveDirectAbsPt */\012MDAP[0]	/* MoveDirectAbsPt */\012MDAP[0]	/* MoveDirectAbsPt */\012SVTCA[0]	/* SetFreedomAndProjectionVectorToAxis */\012MDAP[0]	/* MoveDirectAbsPt */\012MDAP[0]	/* MoveDirectAbsPt */\012MDAP[0]	/* MoveDirectAbsPt */\012MDAP[0]	/* MoveDirectAbsPt */\012MDAP[0]	/* MoveDirectAbsPt */\012MDAP[0]	/* MoveDirectAbsPt */\012MDAP[0]	/* MoveDirectAbsPt */\012MDAP[0]	/* MoveDirectAbsPt */\012MDAP[0]	/* MoveDirectAbsPt */\012IUP[1]	/* InterpolateUntPts */\012IUP[0]	/* InterpolateUntPts */\012SVTCA[1]	/* SetFreedomAndProjectionVectorToAxis */\012MD[0]	/* MeasureDistance */\012ROUND[00]	/* Round */\012PUSHW[ ]	/* 2 values pushed */\01258 62 \012MD[0]	/* MeasureDistance */\012ROUND[00]	/* Round */\012SUB[ ]	/* Subtract */\012PUSHB[ ]	/* 1 value pushed */\01264 \012GT[ ]	/* GreaterThan */\012IF[ ]	/* If */\012SHPIX[ ]	/* ShiftZoneByPixel */\012SRP1[ ]	/* SetRefPoint1 */\012SHZ[1]	/* ShiftZoneByLastPoint */\012PUSHW[ ]	/* 2 values pushed */\01262 -64 \012SHPIX[ ]	/* ShiftZoneByPixel */\012EIF[ ]	/* EndIf */";
};
width = 417;
}
);
note = E;
unicode = 0045;
},
{
glyphname = F;
layers = (
{
layerId = "466BAD2E-A4F2-4075-8033-B07AE50D6525";
paths = (
{
closed = 1;
nodes = (
"375.667 666.667 OFFCURVE",
"383.333 653 OFFCURVE",
"382 639 CURVE",
"382 629.667 OFFCURVE",
"377.667 619.667 OFFCURVE",
"369 609 CURVE",
"361.667 601 OFFCURVE",
"354.333 592.667 OFFCURVE",
"347 584 CURVE",
"328 589 LINE",
"336 599 OFFCURVE",
"340 610 OFFCURVE",
"340 622 CURVE",
"338.667 658 OFFCURVE",
"302 691 OFFCURVE",
"266 691 CURVE SMOOTH",
"200.667 692.333 OFFCURVE",
"160 644 OFFCURVE",
"152 576 CURVE",
"152 533 LINE",
"151 477 LINE",
"186 476 LINE SMOOTH",
"219.333 475.333 OFFCURVE",
"237 493.333 OFFCURVE",
"239 530 CURVE",
"257 530 LINE",
"256 398 LINE",
"238 398 LINE",
"235.333 419.333 OFFCURVE",
"231.333 433.667 OFFCURVE",
"226 441 CURVE SMOOTH",
"218.667 451 OFFCURVE",
"205 456 OFFCURVE",
"185 456 CURVE SMOOTH",
"151 456 LINE",
"150 361 LINE",
"151 361 LINE",
"150 305 LINE SMOOTH",
"149.333 281.667 OFFCURVE",
"155.333 266 OFFCURVE",
"168 258 CURVE SMOOTH",
"176.667 252.667 OFFCURVE",
"194.333 249.333 OFFCURVE",
"221 248 CURVE",
"221 226 LINE",
"10 228 LINE",
"10 250 LINE",
"36.667 250.667 OFFCURVE",
"54.333 253.667 OFFCURVE",
"63 259 CURVE SMOOTH",
"75 266.333 OFFCURVE",
"81 282 OFFCURVE",
"81 306 CURVE SMOOTH",
"84 657 LINE",
"83.333 661 OFFCURVE",
"82.333 664 OFFCURVE",
"81 666 CURVE",
"74.333 673.333 OFFCURVE",
"67.667 675.667 OFFCURVE",
"61 673 CURVE",
"48 667 LINE",
"48 686 LINE",
"54 689.333 OFFCURVE",
"61 693 OFFCURVE",
"69 697 CURVE SMOOTH",
"89 706.333 OFFCURVE",
"105.333 710.667 OFFCURVE",
"118 710 CURVE",
"125.333 710 OFFCURVE",
"131.667 707.667 OFFCURVE",
"137 703 CURVE",
"139 701 OFFCURVE",
"143.667 695.667 OFFCURVE",
"151 687 CURVE",
"151 688 LINE",
"180.333 708.667 OFFCURVE",
"217.333 718.667 OFFCURVE",
"262 718 CURVE SMOOTH",
"287.333 718 OFFCURVE",
"310.667 712 OFFCURVE",
"332 700 CURVE",
"344 691.333 OFFCURVE",
"353 684.667 OFFCURVE",
"359 680 CURVE SMOOTH"
);
}
);
userData = {
assembly = "NPUSHB[ ]	/* 56 values pushed */\0121 64 64 64 65 62 58 46 44 42 41 35 34 17 16 11 7 62 57 55 43 29 28 27 26 21 16 15 41 44 4 49 48 47 36 35 34 33 7 8 6 37 36 6 26 29 52 7 43 4 28 43 2 1 26 70 \012SROUND[ ]	/* SuperRound */\012MDAP[1]	/* MoveDirectAbsPt */\012SHZ[1]	/* ShiftZoneByLastPoint */\012RTG[ ]	/* RoundToGrid */\012SVTCA[0]	/* SetFreedomAndProjectionVectorToAxis */\012MIAP[1]	/* MoveIndirectAbsPt */\012MDAP[1]	/* MoveDirectAbsPt */\012MDAP[1]	/* MoveDirectAbsPt */\012SRP0[ ]	/* SetRefPoint0 */\012MIRP[11101]	/* MoveIndirectRelPt */\012MDAP[1]	/* MoveDirectAbsPt */\012ALIGNRP[ ]	/* AlignRelativePt */\012MIRP[11101]	/* MoveIndirectRelPt */\012ALIGNRP[ ]	/* AlignRelativePt */\012SVTCA[1]	/* SetFreedomAndProjectionVectorToAxis */\012MDAP[1]	/* MoveDirectAbsPt */\012SLOOP[ ]	/* SetLoopVariable */\012ALIGNRP[ ]	/* AlignRelativePt */\012MIRP[11101]	/* MoveIndirectRelPt */\012ALIGNRP[ ]	/* AlignRelativePt */\012MDAP[0]	/* MoveDirectAbsPt */\012MDAP[0]	/* MoveDirectAbsPt */\012MDAP[0]	/* MoveDirectAbsPt */\012MDAP[0]	/* MoveDirectAbsPt */\012MDAP[0]	/* MoveDirectAbsPt */\012MDAP[0]	/* MoveDirectAbsPt */\012MDAP[0]	/* MoveDirectAbsPt */\012MDAP[0]	/* MoveDirectAbsPt */\012MDAP[0]	/* MoveDirectAbsPt */\012MDAP[0]	/* MoveDirectAbsPt */\012MDAP[0]	/* MoveDirectAbsPt */\012SVTCA[0]	/* SetFreedomAndProjectionVectorToAxis */\012MDAP[0]	/* MoveDirectAbsPt */\012MDAP[0]	/* MoveDirectAbsPt */\012MDAP[0]	/* MoveDirectAbsPt */\012MDAP[0]	/* MoveDirectAbsPt */\012MDAP[0]	/* MoveDirectAbsPt */\012MDAP[0]	/* MoveDirectAbsPt */\012MDAP[0]	/* MoveDirectAbsPt */\012MDAP[0]	/* MoveDirectAbsPt */\012MDAP[0]	/* MoveDirectAbsPt */\012MDAP[0]	/* MoveDirectAbsPt */\012MDAP[0]	/* MoveDirectAbsPt */\012IUP[1]	/* InterpolateUntPts */\012IUP[0]	/* InterpolateUntPts */\012SVTCA[1]	/* SetFreedomAndProjectionVectorToAxis */\012MD[0]	/* MeasureDistance */\012ROUND[00]	/* Round */\012PUSHW[ ]	/* 2 values pushed */\01226 64 \012MD[0]	/* MeasureDistance */\012ROUND[00]	/* Round */\012SUB[ ]	/* Subtract */\012PUSHB[ ]	/* 1 value pushed */\01264 \012GT[ ]	/* GreaterThan */\012IF[ ]	/* If */\012SHPIX[ ]	/* ShiftZoneByPixel */\012SRP1[ ]	/* SetRefPoint1 */\012SHZ[1]	/* ShiftZoneByLastPoint */\012PUSHW[ ]	/* 2 values pushed */\01264 -64 \012SHPIX[ ]	/* ShiftZoneByPixel */\012EIF[ ]	/* EndIf */";
};
width = 394;
}
);
note = F;
unicode = 0046;
},
{
glyphname = G;
layers = (
{
layerId = "466BAD2E-A4F2-4075-8033-B07AE50D6525";
paths = (
{
closed = 1;
nodes = (
"299 431 LINE",
"504 429 LINE",
"504 407 LINE",
"494 407 LINE SMOOTH",
"459.333 407 OFFCURVE",
"442 392.333 OFFCURVE",
"442 363 CURVE SMOOTH",
"441 226 LINE",
"426.333 240 OFFCURVE",
"408.667 246 OFFCURVE",
"388 244 CURVE",
"336 228.667 OFFCURVE",
"301 219.667 OFFCURVE",
"283 217 CURVE",
"283 217 LINE",
"264.333 215 OFFCURVE",
"252.333 214 OFFCURVE",
"247 214 CURVE SMOOTH",
"231 214 OFFCURVE",
"215.333 215.667 OFFCURVE",
"200 219 CURVE",
"200 219 LINE",
"141.333 229.667 OFFCURVE",
"94.667 257.667 OFFCURVE",
"60 303 CURVE SMOOTH",
"26.667 346.333 OFFCURVE",
"10.333 398.333 OFFCURVE",
"11 459 CURVE SMOOTH",
"12.333 600.333 OFFCURVE",
"111 711.333 OFFCURVE",
"251 710 CURVE SMOOTH",
"299.667 710 OFFCURVE",
"344.667 697.333 OFFCURVE",
"386 672 CURVE",
"387 673 LINE",
"394.333 667.667 OFFCURVE",
"400 663.667 OFFCURVE",
"404 661 CURVE",
"404 661 LINE",
"420 649.667 OFFCURVE",
"427.667 636 OFFCURVE",
"427 620 CURVE",
"426.333 613.333 OFFCURVE",
"423.333 605.333 OFFCURVE",
"418 596 CURVE SMOOTH",
"410.667 584 OFFCURVE",
"400 571 OFFCURVE",
"386 557 CURVE",
"368 562 LINE",
"376 573 LINE SMOOTH",
"384.667 584.333 OFFCURVE",
"387.667 594.667 OFFCURVE",
"385 604 CURVE",
"376.333 624 OFFCURVE",
"370 636 OFFCURVE",
"366 640 CURVE",
"366 641 LINE",
"336.667 670.333 OFFCURVE",
"299.333 685 OFFCURVE",
"254 685 CURVE SMOOTH",
"200.667 685.667 OFFCURVE",
"159.333 662.333 OFFCURVE",
"130 615 CURVE SMOOTH",
"104.667 574.333 OFFCURVE",
"92 525.667 OFFCURVE",
"92 469 CURVE SMOOTH",
"91.333 408.333 OFFCURVE",
"104.667 358.333 OFFCURVE",
"132 319 CURVE SMOOTH",
"162.667 273 OFFCURVE",
"207 250 OFFCURVE",
"265 250 CURVE SMOOTH",
"281 250 LINE",
"341 265.333 OFFCURVE",
"371 281.667 OFFCURVE",
"371 299 CURVE SMOOTH",
"371 364 LINE SMOOTH",
"371 394 OFFCURVE",
"352.667 409 OFFCURVE",
"316 409 CURVE SMOOTH",
"299 409 LINE"
);
}
);
userData = {
assembly = "NPUSHB[ ]	/* 50 values pushed */\0121 60 60 64 61 58 58 57 54 52 50 49 45 44 35 34 32 31 25 16 8 7 2 1 0 59 58 50 49 45 44 40 32 31 29 24 21 19 18 5 4 1 0 5 12 37 47 1 40 70 \012SROUND[ ]	/* SuperRound */\012MDAP[1]	/* MoveDirectAbsPt */\012SHZ[1]	/* ShiftZoneByLastPoint */\012RTG[ ]	/* RoundToGrid */\012SVTCA[0]	/* SetFreedomAndProjectionVectorToAxis */\012MDAP[1]	/* MoveDirectAbsPt */\012MDAP[1]	/* MoveDirectAbsPt */\012SVTCA[1]	/* SetFreedomAndProjectionVectorToAxis */\012MDAP[1]	/* MoveDirectAbsPt */\012MIRP[11101]	/* MoveIndirectRelPt */\012ALIGNRP[ ]	/* AlignRelativePt */\012MDAP[0]	/* MoveDirectAbsPt */\012MDAP[0]	/* MoveDirectAbsPt */\012MDAP[0]	/* MoveDirectAbsPt */\012MDAP[0]	/* MoveDirectAbsPt */\012MDAP[0]	/* MoveDirectAbsPt */\012MDAP[0]	/* MoveDirectAbsPt */\012MDAP[0]	/* MoveDirectAbsPt */\012MDAP[0]	/* MoveDirectAbsPt */\012MDAP[0]	/* MoveDirectAbsPt */\012MDAP[0]	/* MoveDirectAbsPt */\012MDAP[0]	/* MoveDirectAbsPt */\012MDAP[0]	/* MoveDirectAbsPt */\012MDAP[0]	/* MoveDirectAbsPt */\012MDAP[0]	/* MoveDirectAbsPt */\012MDAP[0]	/* MoveDirectAbsPt */\012MDAP[0]	/* MoveDirectAbsPt */\012SVTCA[0]	/* SetFreedomAndProjectionVectorToAxis */\012MDAP[0]	/* MoveDirectAbsPt */\012MDAP[0]	/* MoveDirectAbsPt */\012MDAP[0]	/* MoveDirectAbsPt */\012MDAP[0]	/* MoveDirectAbsPt */\012MDAP[0]	/* MoveDirectAbsPt */\012MDAP[0]	/* MoveDirectAbsPt */\012MDAP[0]	/* MoveDirectAbsPt */\012MDAP[0]	/* MoveDirectAbsPt */\012MDAP[0]	/* MoveDirectAbsPt */\012MDAP[0]	/* MoveDirectAbsPt */\012MDAP[0]	/* MoveDirectAbsPt */\012MDAP[0]	/* MoveDirectAbsPt */\012MDAP[0]	/* MoveDirectAbsPt */\012MDAP[0]	/* MoveDirectAbsPt */\012MDAP[0]	/* MoveDirectAbsPt */\012MDAP[0]	/* MoveDirectAbsPt */\012MDAP[0]	/* MoveDirectAbsPt */\012MDAP[0]	/* MoveDirectAbsPt */\012MDAP[0]	/* MoveDirectAbsPt */\012IUP[1]	/* InterpolateUntPts */\012IUP[0]	/* InterpolateUntPts */\012SVTCA[1]	/* SetFreedomAndProjectionVectorToAxis */\012MD[0]	/* MeasureDistance */\012ROUND[00]	/* Round */\012PUSHW[ ]	/* 2 values pushed */\01240 60 \012MD[0]	/* MeasureDistance */\012ROUND[00]	/* Round */\012SUB[ ]	/* Subtract */\012PUSHB[ ]	/* 1 value pushed */\01264 \012GT[ ]	/* GreaterThan */\012IF[ ]	/* If */\012SHPIX[ ]	/* ShiftZoneByPixel */\012SRP1[ ]	/* SetRefPoint1 */\012SHZ[1]	/* ShiftZoneByLastPoint */\012PUSHW[ ]	/* 2 values pushed */\01260 -64 \012SHPIX[ ]	/* ShiftZoneByPixel */\012EIF[ ]	/* EndIf */";
};
width = 514;
}
);
note = G;
unicode = 0047;
},
{
glyphname = H;
layers = (
{
layerId = "466BAD2E-A4F2-4075-8033-B07AE50D6525";
paths = (
{
closed = 1;
nodes = (
"352 695 LINE",
"565 694 LINE",
"564 672 LINE",
"537.333 671.333 OFFCURVE",
"520 668.333 OFFCURVE",
"512 663 CURVE",
"499.333 655.667 OFFCURVE",
"493 640 OFFCURVE",
"493 616 CURVE SMOOTH",
"492 405 LINE",
"492 385 LINE",
"493 386 LINE",
"489 350.667 OFFCURVE",
"480.333 323 OFFCURVE",
"467 303 CURVE SMOOTH",
"429 247 OFFCURVE",
"376 208.667 OFFCURVE",
"308 188 CURVE",
"310 205 LINE",
"383.333 252.333 OFFCURVE",
"420 310.667 OFFCURVE",
"420 380 CURVE SMOOTH",
"420 473.333 OFFCURVE",
"355 554.667 OFFCURVE",
"263 548 CURVE SMOOTH",
"213.667 544 OFFCURVE",
"176.667 509 OFFCURVE",
"152 443 CURVE",
"151 336 LINE",
"151 304 LINE SMOOTH",
"151 280 OFFCURVE",
"157 264.333 OFFCURVE",
"169 257 CURVE SMOOTH",
"177.667 251.667 OFFCURVE",
"195 248.333 OFFCURVE",
"221 247 CURVE",
"221 225 LINE",
"10 227 LINE",
"11 249 LINE",
"37.667 249.667 OFFCURVE",
"55.333 252.667 OFFCURVE",
"64 258 CURVE SMOOTH",
"76 265.333 OFFCURVE",
"82 281 OFFCURVE",
"82 305 CURVE SMOOTH",
"84 619 LINE SMOOTH",
"84 625 OFFCURVE",
"83.667 630.667 OFFCURVE",
"83 636 CURVE",
"83 654 LINE SMOOTH",
"83 658.667 OFFCURVE",
"83 661 OFFCURVE",
"83 661 CURVE",
"82.333 669.667 OFFCURVE",
"77.333 672 OFFCURVE",
"68 668 CURVE SMOOTH",
"56 663 LINE",
"56 679 LINE",
"61.333 682.333 OFFCURVE",
"67.667 685.667 OFFCURVE",
"75 689 CURVE SMOOTH",
"93.667 697.667 OFFCURVE",
"107.667 701.333 OFFCURVE",
"117 700 CURVE",
"142.333 697.333 OFFCURVE",
"154.333 679 OFFCURVE",
"153 645 CURVE SMOOTH",
"152 517 LINE",
"193.333 562.333 OFFCURVE",
"244.333 585 OFFCURVE",
"305 585 CURVE SMOOTH",
"347 585 OFFCURVE",
"386 572 OFFCURVE",
"422 546 CURVE",
"423 616 LINE SMOOTH",
"423.667 639.333 OFFCURVE",
"417.667 655 OFFCURVE",
"405 663 CURVE SMOOTH",
"397 668.333 OFFCURVE",
"379.333 671.667 OFFCURVE",
"352 673 CURVE"
);
}
);
userData = {
assembly = "NPUSHB[ ]	/* 53 values pushed */\0121 61 61 64 62 60 53 52 33 19 18 10 8 6 0 60 54 53 52 48 34 33 32 26 24 21 18 17 1 0 5 6 5 10 45 5 40 39 11 10 4 38 31 34 6 42 13 48 42 2 1 32 70 \012SROUND[ ]	/* SuperRound */\012MDAP[1]	/* MoveDirectAbsPt */\012SHZ[1]	/* ShiftZoneByLastPoint */\012RTG[ ]	/* RoundToGrid */\012SVTCA[0]	/* SetFreedomAndProjectionVectorToAxis */\012MIAP[1]	/* MoveIndirectAbsPt */\012MDAP[1]	/* MoveDirectAbsPt */\012MDAP[1]	/* MoveDirectAbsPt */\012SRP0[ ]	/* SetRefPoint0 */\012MIRP[11101]	/* MoveIndirectRelPt */\012ALIGNRP[ ]	/* AlignRelativePt */\012SVTCA[1]	/* SetFreedomAndProjectionVectorToAxis */\012MDAP[1]	/* MoveDirectAbsPt */\012SLOOP[ ]	/* SetLoopVariable */\012ALIGNRP[ ]	/* AlignRelativePt */\012MIRP[11101]	/* MoveIndirectRelPt */\012SRP0[ ]	/* SetRefPoint0 */\012MIRP[11101]	/* MoveIndirectRelPt */\012ALIGNRP[ ]	/* AlignRelativePt */\012MDAP[0]	/* MoveDirectAbsPt */\012MDAP[0]	/* MoveDirectAbsPt */\012MDAP[0]	/* MoveDirectAbsPt */\012MDAP[0]	/* MoveDirectAbsPt */\012MDAP[0]	/* MoveDirectAbsPt */\012MDAP[0]	/* MoveDirectAbsPt */\012MDAP[0]	/* MoveDirectAbsPt */\012MDAP[0]	/* MoveDirectAbsPt */\012MDAP[0]	/* MoveDirectAbsPt */\012MDAP[0]	/* MoveDirectAbsPt */\012MDAP[0]	/* MoveDirectAbsPt */\012MDAP[0]	/* MoveDirectAbsPt */\012MDAP[0]	/* MoveDirectAbsPt */\012MDAP[0]	/* MoveDirectAbsPt */\012MDAP[0]	/* MoveDirectAbsPt */\012SVTCA[0]	/* SetFreedomAndProjectionVectorToAxis */\012MDAP[0]	/* MoveDirectAbsPt */\012MDAP[0]	/* MoveDirectAbsPt */\012MDAP[0]	/* MoveDirectAbsPt */\012MDAP[0]	/* MoveDirectAbsPt */\012MDAP[0]	/* MoveDirectAbsPt */\012MDAP[0]	/* MoveDirectAbsPt */\012MDAP[0]	/* MoveDirectAbsPt */\012MDAP[0]	/* MoveDirectAbsPt */\012MDAP[0]	/* MoveDirectAbsPt */\012IUP[1]	/* InterpolateUntPts */\012IUP[0]	/* InterpolateUntPts */\012SVTCA[1]	/* SetFreedomAndProjectionVectorToAxis */\012MD[0]	/* MeasureDistance */\012ROUND[00]	/* Round */\012PUSHW[ ]	/* 2 values pushed */\01232 61 \012MD[0]	/* MeasureDistance */\012ROUND[00]	/* Round */\012SUB[ ]	/* Subtract */\012PUSHB[ ]	/* 1 value pushed */\01264 \012GT[ ]	/* GreaterThan */\012IF[ ]	/* If */\012SHPIX[ ]	/* ShiftZoneByPixel */\012SRP1[ ]	/* SetRefPoint1 */\012SHZ[1]	/* ShiftZoneByLastPoint */\012PUSHW[ ]	/* 2 values pushed */\01261 -64 \012SHPIX[ ]	/* ShiftZoneByPixel */\012EIF[ ]	/* EndIf */";
};
width = 575;
}
);
note = H;
unicode = 0048;
},
{
glyphname = I;
layers = (
{
layerId = "466BAD2E-A4F2-4075-8033-B07AE50D6525";
paths = (
{
closed = 1;
nodes = (
"149.333 281 OFFCURVE",
"155.333 265.333 OFFCURVE",
"168 258 CURVE SMOOTH",
"176 253.333 OFFCURVE",
"193.667 250 OFFCURVE",
"221 248 CURVE",
"221 227 LINE",
"10 228 LINE",
"10 250 LINE",
"36.667 250.667 OFFCURVE",
"54.333 253.667 OFFCURVE",
"63 259 CURVE SMOOTH",
"75 266.333 OFFCURVE",
"81 282 OFFCURVE",
"81 306 CURVE SMOOTH",
"83 621 LINE SMOOTH",
"83 627 OFFCURVE",
"82.667 632.333 OFFCURVE",
"82 637 CURVE",
"82 655 LINE SMOOTH",
"82 659.667 OFFCURVE",
"82 662 OFFCURVE",
"82 662 CURVE",
"81.333 671.333 OFFCURVE",
"76.333 673.667 OFFCURVE",
"67 669 CURVE",
"56 664 LINE",
"56 680 LINE",
"60.667 683.333 OFFCURVE",
"66.667 686.667 OFFCURVE",
"74 690 CURVE SMOOTH",
"92.667 698.667 OFFCURVE",
"107 702.333 OFFCURVE",
"117 701 CURVE SMOOTH",
"142.333 698.333 OFFCURVE",
"154.333 680 OFFCURVE",
"153 646 CURVE SMOOTH",
"151 337 LINE",
"150 305 LINE SMOOTH"
);
}
);
userData = {
assembly = "NPUSHB[ ]	/* 24 values pushed */\0121 29 29 64 30 24 10 9 25 24 23 22 17 15 12 9 8 2 0 4 24 1 22 70 \012SROUND[ ]	/* SuperRound */\012MDAP[1]	/* MoveDirectAbsPt */\012SHZ[1]	/* ShiftZoneByLastPoint */\012RTG[ ]	/* RoundToGrid */\012SVTCA[0]	/* SetFreedomAndProjectionVectorToAxis */\012MDAP[1]	/* MoveDirectAbsPt */\012MDAP[1]	/* MoveDirectAbsPt */\012SVTCA[1]	/* SetFreedomAndProjectionVectorToAxis */\012MDAP[0]	/* MoveDirectAbsPt */\012MDAP[0]	/* MoveDirectAbsPt */\012MDAP[0]	/* MoveDirectAbsPt */\012MDAP[0]	/* MoveDirectAbsPt */\012MDAP[0]	/* MoveDirectAbsPt */\012MDAP[0]	/* MoveDirectAbsPt */\012MDAP[0]	/* MoveDirectAbsPt */\012MDAP[0]	/* MoveDirectAbsPt */\012MDAP[0]	/* MoveDirectAbsPt */\012MDAP[0]	/* MoveDirectAbsPt */\012MDAP[0]	/* MoveDirectAbsPt */\012SVTCA[0]	/* SetFreedomAndProjectionVectorToAxis */\012MDAP[0]	/* MoveDirectAbsPt */\012MDAP[0]	/* MoveDirectAbsPt */\012IUP[1]	/* InterpolateUntPts */\012IUP[0]	/* InterpolateUntPts */\012SVTCA[1]	/* SetFreedomAndProjectionVectorToAxis */\012MD[0]	/* MeasureDistance */\012ROUND[00]	/* Round */\012PUSHW[ ]	/* 2 values pushed */\01222 29 \012MD[0]	/* MeasureDistance */\012ROUND[00]	/* Round */\012SUB[ ]	/* Subtract */\012PUSHB[ ]	/* 1 value pushed */\01264 \012GT[ ]	/* GreaterThan */\012IF[ ]	/* If */\012SHPIX[ ]	/* ShiftZoneByPixel */\012SRP1[ ]	/* SetRefPoint1 */\012SHZ[1]	/* ShiftZoneByLastPoint */\012PUSHW[ ]	/* 2 values pushed */\01229 -64 \012SHPIX[ ]	/* ShiftZoneByPixel */\012EIF[ ]	/* EndIf */";
};
width = 231;
}
);
note = I;
unicode = 0049;
},
{
glyphname = J;
layers = (
{
layerId = "466BAD2E-A4F2-4075-8033-B07AE50D6525";
paths = (
{
closed = 1;
nodes = (
"168 255 LINE SMOOTH",
"167.333 206.333 OFFCURVE",
"167 180.667 OFFCURVE",
"167 178 CURVE",
"163 148 OFFCURVE",
"150.667 127.667 OFFCURVE",
"130 117 CURVE SMOOTH",
"75.333 89.667 OFFCURVE",
"35.333 71.333 OFFCURVE",
"10 62 CURVE",
"10 85 LINE",
"40 102.333 OFFCURVE",
"61 118.333 OFFCURVE",
"73 133 CURVE SMOOTH",
"89 152.333 OFFCURVE",
"97 177.333 OFFCURVE",
"97 208 CURVE SMOOTH",
"101 647 LINE SMOOTH",
"101 651.667 OFFCURVE",
"100.667 657 OFFCURVE",
"100 663 CURVE",
"100 681 LINE SMOOTH",
"100 685.667 OFFCURVE",
"100 688 OFFCURVE",
"100 688 CURVE",
"99.333 696.667 OFFCURVE",
"94.333 699 OFFCURVE",
"85 695 CURVE SMOOTH",
"78.333 692.333 OFFCURVE",
"74.333 690.667 OFFCURVE",
"73 690 CURVE",
"74 706 LINE",
"78.667 709.333 OFFCURVE",
"84.667 712.667 OFFCURVE",
"92 716 CURVE SMOOTH",
"110 724.667 OFFCURVE",
"124 728.333 OFFCURVE",
"134 727 CURVE SMOOTH",
"147.333 725.667 OFFCURVE",
"157.667 718.667 OFFCURVE",
"165 706 CURVE SMOOTH",
"169.667 698 OFFCURVE",
"171.667 686.667 OFFCURVE",
"171 672 CURVE"
);
}
);
userData = {
assembly = "NPUSHB[ ]	/* 21 values pushed */\0121 31 31 64 32 0 9 24 23 18 16 13 9 0 4 24 11 3 1 23 70 \012SROUND[ ]	/* SuperRound */\012MDAP[1]	/* MoveDirectAbsPt */\012SHZ[1]	/* ShiftZoneByLastPoint */\012RTG[ ]	/* RoundToGrid */\012SVTCA[0]	/* SetFreedomAndProjectionVectorToAxis */\012MIAP[1]	/* MoveIndirectAbsPt */\012MDAP[1]	/* MoveDirectAbsPt */\012MDAP[1]	/* MoveDirectAbsPt */\012SVTCA[1]	/* SetFreedomAndProjectionVectorToAxis */\012MDAP[0]	/* MoveDirectAbsPt */\012MDAP[0]	/* MoveDirectAbsPt */\012MDAP[0]	/* MoveDirectAbsPt */\012MDAP[0]	/* MoveDirectAbsPt */\012MDAP[0]	/* MoveDirectAbsPt */\012MDAP[0]	/* MoveDirectAbsPt */\012MDAP[0]	/* MoveDirectAbsPt */\012SVTCA[0]	/* SetFreedomAndProjectionVectorToAxis */\012MDAP[0]	/* MoveDirectAbsPt */\012IUP[1]	/* InterpolateUntPts */\012IUP[0]	/* InterpolateUntPts */\012SVTCA[1]	/* SetFreedomAndProjectionVectorToAxis */\012MD[0]	/* MeasureDistance */\012ROUND[00]	/* Round */\012PUSHW[ ]	/* 2 values pushed */\01223 31 \012MD[0]	/* MeasureDistance */\012ROUND[00]	/* Round */\012SUB[ ]	/* Subtract */\012PUSHB[ ]	/* 1 value pushed */\01264 \012GT[ ]	/* GreaterThan */\012IF[ ]	/* If */\012SHPIX[ ]	/* ShiftZoneByPixel */\012SRP1[ ]	/* SetRefPoint1 */\012SHZ[1]	/* ShiftZoneByLastPoint */\012PUSHW[ ]	/* 2 values pushed */\01231 -64 \012SHPIX[ ]	/* ShiftZoneByPixel */\012EIF[ ]	/* EndIf */";
};
width = 182;
}
);
note = J;
unicode = 004A;
},
{
glyphname = K;
layers = (
{
layerId = "466BAD2E-A4F2-4075-8033-B07AE50D6525";
paths = (
{
closed = 1;
nodes = (
"437.667 671.667 OFFCURVE",
"405.667 658.667 OFFCURVE",
"377 632 CURVE SMOOTH",
"261 525 LINE",
"403.667 363.667 OFFCURVE",
"476 281.333 OFFCURVE",
"478 278 CURVE",
"484 270 OFFCURVE",
"490.333 268.667 OFFCURVE",
"497 274 CURVE SMOOTH",
"509 283 LINE",
"513 265 LINE",
"509 261 OFFCURVE",
"503 255.667 OFFCURVE",
"495 249 CURVE SMOOTH",
"475 232.333 OFFCURVE",
"460.333 223.667 OFFCURVE",
"451 223 CURVE SMOOTH",
"435 222.333 OFFCURVE",
"421.333 230.333 OFFCURVE",
"410 247 CURVE",
"210 479 LINE",
"151 428 LINE",
"151 336 LINE",
"150 304 LINE SMOOTH",
"149.333 280.667 OFFCURVE",
"155.333 265 OFFCURVE",
"168 257 CURVE SMOOTH",
"176.667 251.667 OFFCURVE",
"194.333 248.333 OFFCURVE",
"221 247 CURVE",
"221 225 LINE",
"10 227 LINE",
"10 249 LINE",
"37.333 249.667 OFFCURVE",
"55 252.333 OFFCURVE",
"63 257 CURVE SMOOTH",
"75 264.333 OFFCURVE",
"81 280.333 OFFCURVE",
"81 305 CURVE SMOOTH",
"83 619 LINE SMOOTH",
"83 625 OFFCURVE",
"82.667 630.667 OFFCURVE",
"82 636 CURVE",
"82 654 LINE SMOOTH",
"82 658 OFFCURVE",
"82 660 OFFCURVE",
"82 660 CURVE",
"81.333 670 OFFCURVE",
"76.333 672.667 OFFCURVE",
"67 668 CURVE",
"56 663 LINE",
"56 679 LINE",
"66 684.333 OFFCURVE",
"72 687.667 OFFCURVE",
"74 689 CURVE",
"91.333 697.667 OFFCURVE",
"105.667 701.333 OFFCURVE",
"117 700 CURVE SMOOTH",
"142.333 697.333 OFFCURVE",
"154.333 679 OFFCURVE",
"153 645 CURVE SMOOTH",
"151 466 LINE",
"315 615 LINE SMOOTH",
"329.667 628.333 OFFCURVE",
"337 639 OFFCURVE",
"337 647 CURVE SMOOTH",
"337 663.667 OFFCURVE",
"320.667 672.333 OFFCURVE",
"288 673 CURVE",
"288 694 LINE",
"473 693 LINE",
"473 671 LINE"
);
}
);
userData = {
assembly = "NPUSHB[ ]	/* 42 values pushed */\0121 55 55 64 56 46 48 47 39 17 16 8 2 52 46 36 32 31 30 29 24 22 19 16 15 3 2 1 0 5 5 38 37 8 3 9 11 31 42 1 29 70 \012SROUND[ ]	/* SuperRound */\012MDAP[1]	/* MoveDirectAbsPt */\012SHZ[1]	/* ShiftZoneByLastPoint */\012RTG[ ]	/* RoundToGrid */\012SVTCA[0]	/* SetFreedomAndProjectionVectorToAxis */\012MDAP[1]	/* MoveDirectAbsPt */\012ALIGNRP[ ]	/* AlignRelativePt */\012MDAP[1]	/* MoveDirectAbsPt */\012SVTCA[1]	/* SetFreedomAndProjectionVectorToAxis */\012MDAP[1]	/* MoveDirectAbsPt */\012SLOOP[ ]	/* SetLoopVariable */\012ALIGNRP[ ]	/* AlignRelativePt */\012MIRP[11101]	/* MoveIndirectRelPt */\012MDAP[0]	/* MoveDirectAbsPt */\012MDAP[0]	/* MoveDirectAbsPt */\012MDAP[0]	/* MoveDirectAbsPt */\012MDAP[0]	/* MoveDirectAbsPt */\012MDAP[0]	/* MoveDirectAbsPt */\012MDAP[0]	/* MoveDirectAbsPt */\012MDAP[0]	/* MoveDirectAbsPt */\012MDAP[0]	/* MoveDirectAbsPt */\012MDAP[0]	/* MoveDirectAbsPt */\012MDAP[0]	/* MoveDirectAbsPt */\012MDAP[0]	/* MoveDirectAbsPt */\012MDAP[0]	/* MoveDirectAbsPt */\012MDAP[0]	/* MoveDirectAbsPt */\012MDAP[0]	/* MoveDirectAbsPt */\012MDAP[0]	/* MoveDirectAbsPt */\012MDAP[0]	/* MoveDirectAbsPt */\012SVTCA[0]	/* SetFreedomAndProjectionVectorToAxis */\012MDAP[0]	/* MoveDirectAbsPt */\012MDAP[0]	/* MoveDirectAbsPt */\012MDAP[0]	/* MoveDirectAbsPt */\012MDAP[0]	/* MoveDirectAbsPt */\012MDAP[0]	/* MoveDirectAbsPt */\012MDAP[0]	/* MoveDirectAbsPt */\012MDAP[0]	/* MoveDirectAbsPt */\012IUP[1]	/* InterpolateUntPts */\012IUP[0]	/* InterpolateUntPts */\012SVTCA[1]	/* SetFreedomAndProjectionVectorToAxis */\012MD[0]	/* MeasureDistance */\012ROUND[00]	/* Round */\012PUSHW[ ]	/* 2 values pushed */\01229 55 \012MD[0]	/* MeasureDistance */\012ROUND[00]	/* Round */\012SUB[ ]	/* Subtract */\012PUSHB[ ]	/* 1 value pushed */\01264 \012GT[ ]	/* GreaterThan */\012IF[ ]	/* If */\012SHPIX[ ]	/* ShiftZoneByPixel */\012SRP1[ ]	/* SetRefPoint1 */\012SHZ[1]	/* ShiftZoneByLastPoint */\012PUSHW[ ]	/* 2 values pushed */\01255 -64 \012SHPIX[ ]	/* ShiftZoneByPixel */\012EIF[ ]	/* EndIf */";
};
width = 523;
}
);
note = K;
unicode = 004B;
},
{
glyphname = L;
layers = (
{
layerId = "466BAD2E-A4F2-4075-8033-B07AE50D6525";
paths = (
{
closed = 1;
nodes = (
"408 373 LINE",
"398 227 LINE",
"11 227 LINE",
"10 251 LINE",
"11 252 LINE",
"11 252 LINE",
"38.333 253.333 OFFCURVE",
"56 256.333 OFFCURVE",
"64 261 CURVE SMOOTH",
"75.333 267.667 OFFCURVE",
"81 283.333 OFFCURVE",
"81 308 CURVE SMOOTH",
"81.667 405.333 OFFCURVE",
"82 494 OFFCURVE",
"82 574 CURVE SMOOTH",
"82.667 636 OFFCURVE",
"83 666 OFFCURVE",
"83 664 CURVE",
"83 670 OFFCURVE",
"80.667 673 OFFCURVE",
"76 673 CURVE SMOOTH",
"74 673 OFFCURVE",
"71.333 672.333 OFFCURVE",
"68 671 CURVE",
"62 669 OFFCURVE",
"58.333 667.667 OFFCURVE",
"57 667 CURVE",
"57 683 LINE",
"65 687 OFFCURVE",
"71.333 690 OFFCURVE",
"76 692 CURVE SMOOTH",
"95.333 700.667 OFFCURVE",
"109.333 704.667 OFFCURVE",
"118 704 CURVE SMOOTH",
"143.333 702 OFFCURVE",
"155.333 683.333 OFFCURVE",
"154 648 CURVE SMOOTH",
"152 315 LINE SMOOTH",
"152 284.333 OFFCURVE",
"141 264 OFFCURVE",
"119 254 CURVE",
"174.333 252.667 OFFCURVE",
"210 252 OFFCURVE",
"226 252 CURVE SMOOTH",
"260.667 252 OFFCURVE",
"287 254.667 OFFCURVE",
"305 260 CURVE SMOOTH",
"350.333 273.333 OFFCURVE",
"383 323.667 OFFCURVE",
"387 373 CURVE"
);
}
);
userData = {
assembly = "NPUSHB[ ]	/* 31 values pushed */\0121 37 37 64 38 36 36 32 31 21 17 5 0 36 33 32 31 23 17 16 7 10 9 5 0 12 35 34 1 33 70 \012SROUND[ ]	/* SuperRound */\012MDAP[1]	/* MoveDirectAbsPt */\012SHZ[1]	/* ShiftZoneByLastPoint */\012RTG[ ]	/* RoundToGrid */\012SVTCA[0]	/* SetFreedomAndProjectionVectorToAxis */\012MDAP[1]	/* MoveDirectAbsPt */\012ALIGNRP[ ]	/* AlignRelativePt */\012MDAP[1]	/* MoveDirectAbsPt */\012SVTCA[1]	/* SetFreedomAndProjectionVectorToAxis */\012MDAP[1]	/* MoveDirectAbsPt */\012MIRP[11101]	/* MoveIndirectRelPt */\012ALIGNRP[ ]	/* AlignRelativePt */\012MDAP[0]	/* MoveDirectAbsPt */\012MDAP[0]	/* MoveDirectAbsPt */\012MDAP[0]	/* MoveDirectAbsPt */\012MDAP[0]	/* MoveDirectAbsPt */\012MDAP[0]	/* MoveDirectAbsPt */\012MDAP[0]	/* MoveDirectAbsPt */\012MDAP[0]	/* MoveDirectAbsPt */\012MDAP[0]	/* MoveDirectAbsPt */\012SVTCA[0]	/* SetFreedomAndProjectionVectorToAxis */\012MDAP[0]	/* MoveDirectAbsPt */\012MDAP[0]	/* MoveDirectAbsPt */\012MDAP[0]	/* MoveDirectAbsPt */\012MDAP[0]	/* MoveDirectAbsPt */\012MDAP[0]	/* MoveDirectAbsPt */\012MDAP[0]	/* MoveDirectAbsPt */\012MDAP[0]	/* MoveDirectAbsPt */\012IUP[1]	/* InterpolateUntPts */\012IUP[0]	/* InterpolateUntPts */\012SVTCA[1]	/* SetFreedomAndProjectionVectorToAxis */\012MD[0]	/* MeasureDistance */\012ROUND[00]	/* Round */\012PUSHW[ ]	/* 2 values pushed */\01233 37 \012MD[0]	/* MeasureDistance */\012ROUND[00]	/* Round */\012SUB[ ]	/* Subtract */\012PUSHB[ ]	/* 1 value pushed */\01264 \012GT[ ]	/* GreaterThan */\012IF[ ]	/* If */\012SHPIX[ ]	/* ShiftZoneByPixel */\012SRP1[ ]	/* SetRefPoint1 */\012SHZ[1]	/* ShiftZoneByLastPoint */\012PUSHW[ ]	/* 2 values pushed */\01237 -64 \012SHPIX[ ]	/* ShiftZoneByPixel */\012EIF[ ]	/* EndIf */";
};
width = 418;
}
);
note = L;
unicode = 004C;
},
{
glyphname = M;
layers = (
{
layerId = "466BAD2E-A4F2-4075-8033-B07AE50D6525";
paths = (
{
closed = 1;
nodes = (
"658 376 OFFCURVE",
"608.333 287.667 OFFCURVE",
"507 213 CURVE SMOOTH",
"502.333 209.667 OFFCURVE",
"500 205.333 OFFCURVE",
"500 200 CURVE SMOOTH",
"500 192 OFFCURVE",
"503.667 183.333 OFFCURVE",
"511 174 CURVE",
"498 164 LINE",
"471.333 178 OFFCURVE",
"458 195.333 OFFCURVE",
"458 216 CURVE SMOOTH",
"458 229.333 OFFCURVE",
"464.667 243 OFFCURVE",
"478 257 CURVE SMOOTH",
"505.333 285.667 OFFCURVE",
"530 320 OFFCURVE",
"552 360 CURVE SMOOTH",
"583.333 417.333 OFFCURVE",
"599 470 OFFCURVE",
"599 518 CURVE SMOOTH",
"599 592.882 OFFCURVE",
"560.118 654 OFFCURVE",
"485 654 CURVE SMOOTH",
"461.667 654 OFFCURVE",
"437.667 648.667 OFFCURVE",
"413 638 CURVE SMOOTH",
"383 624.667 OFFCURVE",
"368 607.667 OFFCURVE",
"368 587 CURVE SMOOTH",
"366 336 LINE",
"366 304 LINE SMOOTH",
"366 280.667 OFFCURVE",
"372 265 OFFCURVE",
"384 257 CURVE SMOOTH",
"392 251.667 OFFCURVE",
"409.333 248.333 OFFCURVE",
"436 247 CURVE",
"436 225 LINE",
"225 227 LINE",
"226 249 LINE",
"252 249.667 OFFCURVE",
"269.333 252.667 OFFCURVE",
"278 258 CURVE SMOOTH",
"290.667 265.333 OFFCURVE",
"297 281 OFFCURVE",
"297 305 CURVE SMOOTH",
"299 588 LINE SMOOTH",
"299 607.333 OFFCURVE",
"284.333 624.667 OFFCURVE",
"255 640 CURVE SMOOTH",
"229.667 652.667 OFFCURVE",
"206 659 OFFCURVE",
"184 659 CURVE SMOOTH",
"101.333 659.667 OFFCURVE",
"60 618 OFFCURVE",
"60 534 CURVE SMOOTH",
"60 481.333 OFFCURVE",
"78.333 420.667 OFFCURVE",
"115 352 CURVE SMOOTH",
"142.333 300.667 OFFCURVE",
"162 270 OFFCURVE",
"174 260 CURVE",
"191 243 LINE",
"190 226 LINE",
"10 228 LINE",
"10 244 LINE",
"40.667 241.333 OFFCURVE",
"74 254.667 OFFCURVE",
"74 284 CURVE SMOOTH",
"74 296 OFFCURVE",
"70.333 309 OFFCURVE",
"63 323 CURVE",
"27.667 373 OFFCURVE",
"10.333 426.667 OFFCURVE",
"11 484 CURVE SMOOTH",
"11 514 OFFCURVE",
"16.333 542.667 OFFCURVE",
"27 570 CURVE SMOOTH",
"41 607.333 OFFCURVE",
"62.333 637 OFFCURVE",
"91 659 CURVE SMOOTH",
"141.667 698.333 OFFCURVE",
"192.333 718 OFFCURVE",
"243 718 CURVE SMOOTH",
"263.667 718 OFFCURVE",
"282.667 714 OFFCURVE",
"300 706 CURVE",
"332 687 LINE",
"369 703 LINE SMOOTH",
"387.667 711 OFFCURVE",
"406.333 715 OFFCURVE",
"425 715 CURVE SMOOTH",
"478.333 715 OFFCURVE",
"528 693.333 OFFCURVE",
"574 650 CURVE SMOOTH",
"627.333 599.333 OFFCURVE",
"654.667 542 OFFCURVE",
"656 478 CURVE SMOOTH"
);
}
);
userData = {
assembly = "NPUSHB[ ]	/* 42 values pushed */\0121 74 74 64 75 0 55 44 33 25 7 4 70 68 24 23 20 16 0 42 43 4 26 25 45 44 4 65 37 38 5 31 51 50 49 5 59 10 67 1 23 70 \012SROUND[ ]	/* SuperRound */\012MDAP[1]	/* MoveDirectAbsPt */\012SHZ[1]	/* ShiftZoneByLastPoint */\012RTG[ ]	/* RoundToGrid */\012SVTCA[0]	/* SetFreedomAndProjectionVectorToAxis */\012MDAP[1]	/* MoveDirectAbsPt */\012MDAP[1]	/* MoveDirectAbsPt */\012SVTCA[1]	/* SetFreedomAndProjectionVectorToAxis */\012MDAP[1]	/* MoveDirectAbsPt */\012MIRP[11101]	/* MoveIndirectRelPt */\012ALIGNRP[ ]	/* AlignRelativePt */\012ALIGNRP[ ]	/* AlignRelativePt */\012MDAP[1]	/* MoveDirectAbsPt */\012MIRP[11101]	/* MoveIndirectRelPt */\012ALIGNRP[ ]	/* AlignRelativePt */\012MDAP[1]	/* MoveDirectAbsPt */\012MIRP[11101]	/* MoveIndirectRelPt */\012ALIGNRP[ ]	/* AlignRelativePt */\012MDAP[1]	/* MoveDirectAbsPt */\012ALIGNRP[ ]	/* AlignRelativePt */\012MIRP[11101]	/* MoveIndirectRelPt */\012ALIGNRP[ ]	/* AlignRelativePt */\012MDAP[0]	/* MoveDirectAbsPt */\012MDAP[0]	/* MoveDirectAbsPt */\012MDAP[0]	/* MoveDirectAbsPt */\012MDAP[0]	/* MoveDirectAbsPt */\012MDAP[0]	/* MoveDirectAbsPt */\012MDAP[0]	/* MoveDirectAbsPt */\012MDAP[0]	/* MoveDirectAbsPt */\012SVTCA[0]	/* SetFreedomAndProjectionVectorToAxis */\012MDAP[0]	/* MoveDirectAbsPt */\012MDAP[0]	/* MoveDirectAbsPt */\012MDAP[0]	/* MoveDirectAbsPt */\012MDAP[0]	/* MoveDirectAbsPt */\012MDAP[0]	/* MoveDirectAbsPt */\012MDAP[0]	/* MoveDirectAbsPt */\012IUP[1]	/* InterpolateUntPts */\012IUP[0]	/* InterpolateUntPts */\012SVTCA[1]	/* SetFreedomAndProjectionVectorToAxis */\012MD[0]	/* MeasureDistance */\012ROUND[00]	/* Round */\012PUSHW[ ]	/* 2 values pushed */\01223 74 \012MD[0]	/* MeasureDistance */\012ROUND[00]	/* Round */\012SUB[ ]	/* Subtract */\012PUSHB[ ]	/* 1 value pushed */\01264 \012GT[ ]	/* GreaterThan */\012IF[ ]	/* If */\012SHPIX[ ]	/* ShiftZoneByPixel */\012SRP1[ ]	/* SetRefPoint1 */\012SHZ[1]	/* ShiftZoneByLastPoint */\012PUSHW[ ]	/* 2 values pushed */\01274 -64 \012SHPIX[ ]	/* ShiftZoneByPixel */\012EIF[ ]	/* EndIf */";
};
width = 669;
}
);
note = M;
unicode = 004D;
},
{
glyphname = N;
layers = (
{
layerId = "466BAD2E-A4F2-4075-8033-B07AE50D6525";
paths = (
{
closed = 1;
nodes = (
"478 298 LINE SMOOTH",
"478 272.667 OFFCURVE",
"483 257.333 OFFCURVE",
"493 252 CURVE SMOOTH",
"495.667 250.667 OFFCURVE",
"510.333 249.333 OFFCURVE",
"537 248 CURVE",
"537 226 LINE",
"529.667 226.667 OFFCURVE",
"514 227 OFFCURVE",
"490 227 CURVE SMOOTH",
"490 227 OFFCURVE",
"468.667 227 OFFCURVE",
"426 227 CURVE SMOOTH",
"406.667 227 OFFCURVE",
"383 233 OFFCURVE",
"355 245 CURVE SMOOTH",
"315.667 262.333 OFFCURVE",
"279 288.333 OFFCURVE",
"245 323 CURVE SMOOTH",
"197.667 372.333 OFFCURVE",
"166.333 412.667 OFFCURVE",
"151 444 CURVE",
"150 335 LINE",
"150 304 LINE SMOOTH",
"150 279.333 OFFCURVE",
"156 263.333 OFFCURVE",
"168 256 CURVE SMOOTH",
"176 251.333 OFFCURVE",
"193.333 248 OFFCURVE",
"220 246 CURVE",
"220 226 LINE",
"10 226 LINE",
"10 248 LINE",
"37.333 248.667 OFFCURVE",
"55 251.667 OFFCURVE",
"63 257 CURVE SMOOTH",
"75 265 OFFCURVE",
"81 280.667 OFFCURVE",
"81 304 CURVE SMOOTH",
"83 619 LINE SMOOTH",
"83 625 OFFCURVE",
"82.667 630.333 OFFCURVE",
"82 635 CURVE",
"82 653 LINE",
"82 653 OFFCURVE",
"82 655.333 OFFCURVE",
"82 660 CURVE",
"81.333 668.667 OFFCURVE",
"76.333 671 OFFCURVE",
"67 667 CURVE SMOOTH",
"60.333 664.333 OFFCURVE",
"56.333 662.667 OFFCURVE",
"55 662 CURVE",
"55 678 LINE",
"60.333 681.333 OFFCURVE",
"66.667 684.667 OFFCURVE",
"74 688 CURVE SMOOTH",
"92.667 696.667 OFFCURVE",
"106.667 700.333 OFFCURVE",
"116 699 CURVE",
"141.333 696.333 OFFCURVE",
"153.333 678 OFFCURVE",
"152 644 CURVE",
"152 615 LINE",
"156.667 582.333 OFFCURVE",
"183.667 528 OFFCURVE",
"233 452 CURVE SMOOTH",
"267 400 OFFCURVE",
"286.333 370.667 OFFCURVE",
"291 364 CURVE SMOOTH",
"316.333 328.667 OFFCURVE",
"342 303.333 OFFCURVE",
"368 288 CURVE SMOOTH",
"379.333 281.333 OFFCURVE",
"389 278 OFFCURVE",
"397 278 CURVE SMOOTH",
"411.667 278 OFFCURVE",
"419 286 OFFCURVE",
"419 302 CURVE",
"418 613 LINE",
"418 657 OFFCURVE",
"401.333 667.333 OFFCURVE",
"356 670 CURVE",
"356 692 LINE",
"543 690 LINE",
"543 668 LINE",
"497.667 666.667 OFFCURVE",
"480 662.667 OFFCURVE",
"480 612 CURVE SMOOTH"
);
}
);
userData = {
assembly = "NPUSHB[ ]	/* 51 values pushed */\0121 67 67 64 68 1 49 28 26 10 3 64 60 59 43 42 41 40 35 33 30 26 25 4 3 2 1 49 48 19 18 4 47 5 7 8 60 40 43 7 41 21 59 57 55 42 4 41 1 40 70 \012SROUND[ ]	/* SuperRound */\012MDAP[1]	/* MoveDirectAbsPt */\012SHZ[1]	/* ShiftZoneByLastPoint */\012RTG[ ]	/* RoundToGrid */\012SVTCA[0]	/* SetFreedomAndProjectionVectorToAxis */\012MDAP[1]	/* MoveDirectAbsPt */\012SLOOP[ ]	/* SetLoopVariable */\012ALIGNRP[ ]	/* AlignRelativePt */\012MDAP[1]	/* MoveDirectAbsPt */\012SRP0[ ]	/* SetRefPoint0 */\012MIRP[11101]	/* MoveIndirectRelPt */\012ALIGNRP[ ]	/* AlignRelativePt */\012ALIGNRP[ ]	/* AlignRelativePt */\012SVTCA[1]	/* SetFreedomAndProjectionVectorToAxis */\012MDAP[1]	/* MoveDirectAbsPt */\012ALIGNRP[ ]	/* AlignRelativePt */\012MIRP[11101]	/* MoveIndirectRelPt */\012SLOOP[ ]	/* SetLoopVariable */\012ALIGNRP[ ]	/* AlignRelativePt */\012MDAP[0]	/* MoveDirectAbsPt */\012MDAP[0]	/* MoveDirectAbsPt */\012MDAP[0]	/* MoveDirectAbsPt */\012MDAP[0]	/* MoveDirectAbsPt */\012MDAP[0]	/* MoveDirectAbsPt */\012MDAP[0]	/* MoveDirectAbsPt */\012MDAP[0]	/* MoveDirectAbsPt */\012MDAP[0]	/* MoveDirectAbsPt */\012MDAP[0]	/* MoveDirectAbsPt */\012MDAP[0]	/* MoveDirectAbsPt */\012MDAP[0]	/* MoveDirectAbsPt */\012MDAP[0]	/* MoveDirectAbsPt */\012MDAP[0]	/* MoveDirectAbsPt */\012MDAP[0]	/* MoveDirectAbsPt */\012MDAP[0]	/* MoveDirectAbsPt */\012MDAP[0]	/* MoveDirectAbsPt */\012SVTCA[0]	/* SetFreedomAndProjectionVectorToAxis */\012MDAP[0]	/* MoveDirectAbsPt */\012MDAP[0]	/* MoveDirectAbsPt */\012MDAP[0]	/* MoveDirectAbsPt */\012MDAP[0]	/* MoveDirectAbsPt */\012MDAP[0]	/* MoveDirectAbsPt */\012IUP[1]	/* InterpolateUntPts */\012IUP[0]	/* InterpolateUntPts */\012SVTCA[1]	/* SetFreedomAndProjectionVectorToAxis */\012MD[0]	/* MeasureDistance */\012ROUND[00]	/* Round */\012PUSHW[ ]	/* 2 values pushed */\01240 67 \012MD[0]	/* MeasureDistance */\012ROUND[00]	/* Round */\012SUB[ ]	/* Subtract */\012PUSHB[ ]	/* 1 value pushed */\01264 \012GT[ ]	/* GreaterThan */\012IF[ ]	/* If */\012SHPIX[ ]	/* ShiftZoneByPixel */\012SRP1[ ]	/* SetRefPoint1 */\012SHZ[1]	/* ShiftZoneByLastPoint */\012PUSHW[ ]	/* 2 values pushed */\01267 -64 \012SHPIX[ ]	/* ShiftZoneByPixel */\012EIF[ ]	/* EndIf */";
};
width = 553;
}
);
note = N;
unicode = 004E;
},
{
glyphname = O;
layers = (
{
layerId = "466BAD2E-A4F2-4075-8033-B07AE50D6525";
paths = (
{
closed = 1;
nodes = (
"74 667 OFFCURVE",
"11 576.667 OFFCURVE",
"11 466 CURVE SMOOTH",
"9.667 320.667 OFFCURVE",
"114.667 218.333 OFFCURVE",
"260 217 CURVE SMOOTH",
"402.667 215.667 OFFCURVE",
"510.667 320.333 OFFCURVE",
"512 463 CURVE SMOOTH",
"512 522.333 OFFCURVE",
"493.667 575.333 OFFCURVE",
"457 622 CURVE SMOOTH",
"401.667 692 OFFCURVE",
"325.667 721.333 OFFCURVE",
"229 710 CURVE SMOOTH",
"209.667 708 OFFCURVE",
"198.333 697.333 OFFCURVE",
"195 678 CURVE",
"192.333 665.333 OFFCURVE",
"194.333 648.667 OFFCURVE",
"201 628 CURVE SMOOTH",
"205 615.333 OFFCURVE",
"207.667 607.667 OFFCURVE",
"209 605 CURVE",
"228 602 LINE",
"224 616 LINE SMOOTH",
"214.188 648.707 OFFCURVE",
"252.401 695.565 OFFCURVE",
"301 685 CURVE SMOOTH",
"347.667 675 OFFCURVE",
"382 646.667 OFFCURVE",
"404 600 CURVE SMOOTH",
"422 562.667 OFFCURVE",
"431 517.333 OFFCURVE",
"431 464 CURVE SMOOTH",
"430.333 400 OFFCURVE",
"418 349 OFFCURVE",
"394 311 CURVE SMOOTH",
"364.667 264.333 OFFCURVE",
"320 241.333 OFFCURVE",
"260 242 CURVE SMOOTH",
"200 242 OFFCURVE",
"153.667 265.333 OFFCURVE",
"121 312 CURVE SMOOTH",
"91.667 352.667 OFFCURVE",
"77.333 404 OFFCURVE",
"78 466 CURVE SMOOTH",
"78.667 536.667 OFFCURVE",
"99.333 594 OFFCURVE",
"140 638 CURVE SMOOTH",
"150 648.667 OFFCURVE",
"160.333 657.333 OFFCURVE",
"171 664 CURVE",
"178 699 LINE"
);
}
);
userData = {
assembly = "NPUSHB[ ]	/* 30 values pushed */\0121 42 42 64 43 33 22 17 27 22 21 0 13 4 33 5 4 39 9 7 36 36 1 29 3 0 3 1 39 70 \012SROUND[ ]	/* SuperRound */\012MDAP[1]	/* MoveDirectAbsPt */\012SHZ[1]	/* ShiftZoneByLastPoint */\012RTG[ ]	/* RoundToGrid */\012SVTCA[0]	/* SetFreedomAndProjectionVectorToAxis */\012MIAP[1]	/* MoveIndirectAbsPt */\012MIAP[1]	/* MoveIndirectAbsPt */\012MIAP[1]	/* MoveIndirectAbsPt */\012SRP0[ ]	/* SetRefPoint0 */\012MIRP[11101]	/* MoveIndirectRelPt */\012SVTCA[1]	/* SetFreedomAndProjectionVectorToAxis */\012MDAP[1]	/* MoveDirectAbsPt */\012MIRP[11101]	/* MoveIndirectRelPt */\012MDAP[1]	/* MoveDirectAbsPt */\012MIRP[11101]	/* MoveIndirectRelPt */\012MDAP[0]	/* MoveDirectAbsPt */\012MDAP[0]	/* MoveDirectAbsPt */\012MDAP[0]	/* MoveDirectAbsPt */\012MDAP[0]	/* MoveDirectAbsPt */\012SVTCA[0]	/* SetFreedomAndProjectionVectorToAxis */\012MDAP[0]	/* MoveDirectAbsPt */\012MDAP[0]	/* MoveDirectAbsPt */\012IUP[1]	/* InterpolateUntPts */\012IUP[0]	/* InterpolateUntPts */\012SVTCA[1]	/* SetFreedomAndProjectionVectorToAxis */\012MD[0]	/* MeasureDistance */\012ROUND[00]	/* Round */\012PUSHW[ ]	/* 2 values pushed */\01239 42 \012MD[0]	/* MeasureDistance */\012ROUND[00]	/* Round */\012SUB[ ]	/* Subtract */\012PUSHB[ ]	/* 1 value pushed */\01264 \012GT[ ]	/* GreaterThan */\012IF[ ]	/* If */\012SHPIX[ ]	/* ShiftZoneByPixel */\012SRP1[ ]	/* SetRefPoint1 */\012SHZ[1]	/* ShiftZoneByLastPoint */\012PUSHW[ ]	/* 2 values pushed */\01242 -64 \012SHPIX[ ]	/* ShiftZoneByPixel */\012EIF[ ]	/* EndIf */";
};
width = 522;
}
);
note = O;
unicode = 004F;
},
{
glyphname = P;
layers = (
{
layerId = "466BAD2E-A4F2-4075-8033-B07AE50D6525";
paths = (
{
closed = 1;
nodes = (
"431.667 485 OFFCURVE",
"393 428 OFFCURVE",
"307 402 CURVE SMOOTH",
"287 396 OFFCURVE",
"262 397.667 OFFCURVE",
"232 407 CURVE",
"209.333 418.333 OFFCURVE",
"193.333 427.667 OFFCURVE",
"184 435 CURVE",
"193 449 LINE",
"220.333 431 OFFCURVE",
"245 423.333 OFFCURVE",
"267 426 CURVE SMOOTH",
"291 428.667 OFFCURVE",
"312.333 443 OFFCURVE",
"331 469 CURVE SMOOTH",
"348.333 493 OFFCURVE",
"357.667 517.667 OFFCURVE",
"359 543 CURVE SMOOTH",
"362.333 597.667 OFFCURVE",
"346 636 OFFCURVE",
"310 658 CURVE SMOOTH",
"292.667 668.667 OFFCURVE",
"274.667 674 OFFCURVE",
"256 674 CURVE SMOOTH",
"242 674 OFFCURVE",
"228.667 671.333 OFFCURVE",
"216 666 CURVE SMOOTH",
"174.667 648 OFFCURVE",
"153.667 615.667 OFFCURVE",
"153 569 CURVE SMOOTH",
"150 305 LINE SMOOTH",
"150 280.333 OFFCURVE",
"156 264.333 OFFCURVE",
"168 257 CURVE SMOOTH",
"176 252.333 OFFCURVE",
"193.667 249.333 OFFCURVE",
"221 248 CURVE",
"220 226 LINE",
"10 227 LINE",
"10 249 LINE",
"36.667 249.667 OFFCURVE",
"54.333 252.667 OFFCURVE",
"63 258 CURVE SMOOTH",
"75 265.333 OFFCURVE",
"81 281 OFFCURVE",
"81 305 CURVE SMOOTH",
"83 620 LINE SMOOTH",
"83 625.333 OFFCURVE",
"82.667 630.667 OFFCURVE",
"82 636 CURVE",
"82 654 LINE SMOOTH",
"82 658.667 OFFCURVE",
"82 661 OFFCURVE",
"82 661 CURVE",
"81.333 669.667 OFFCURVE",
"76.333 672 OFFCURVE",
"67 668 CURVE SMOOTH",
"60.333 665.333 OFFCURVE",
"56.333 663.667 OFFCURVE",
"55 663 CURVE",
"55 679 LINE",
"60.333 682.333 OFFCURVE",
"66.667 685.667 OFFCURVE",
"74 689 CURVE SMOOTH",
"92.667 697.667 OFFCURVE",
"106.667 701.333 OFFCURVE",
"116 700 CURVE SMOOTH",
"136 697.333 OFFCURVE",
"152 681 OFFCURVE",
"152 661 CURVE",
"153 661 LINE",
"153 659 LINE",
"177.667 689.667 OFFCURVE",
"215 705 OFFCURVE",
"265 705 CURVE SMOOTH",
"278.333 705 OFFCURVE",
"292.667 703 OFFCURVE",
"308 699 CURVE SMOOTH",
"378.667 680.333 OFFCURVE",
"417 638.333 OFFCURVE",
"423 573 CURVE SMOOTH"
);
}
);
userData = {
assembly = "NPUSHB[ ]	/* 37 values pushed */\0121 59 59 64 60 0 57 52 50 42 18 16 11 8 7 6 53 37 33 31 30 25 23 20 16 15 0 38 7 6 5 46 4 32 1 30 70 \012SROUND[ ]	/* SuperRound */\012MDAP[1]	/* MoveDirectAbsPt */\012SHZ[1]	/* ShiftZoneByLastPoint */\012RTG[ ]	/* RoundToGrid */\012SVTCA[0]	/* SetFreedomAndProjectionVectorToAxis */\012MDAP[1]	/* MoveDirectAbsPt */\012MDAP[1]	/* MoveDirectAbsPt */\012SVTCA[1]	/* SetFreedomAndProjectionVectorToAxis */\012MDAP[1]	/* MoveDirectAbsPt */\012MIRP[11101]	/* MoveIndirectRelPt */\012ALIGNRP[ ]	/* AlignRelativePt */\012ALIGNRP[ ]	/* AlignRelativePt */\012MDAP[0]	/* MoveDirectAbsPt */\012MDAP[0]	/* MoveDirectAbsPt */\012MDAP[0]	/* MoveDirectAbsPt */\012MDAP[0]	/* MoveDirectAbsPt */\012MDAP[0]	/* MoveDirectAbsPt */\012MDAP[0]	/* MoveDirectAbsPt */\012MDAP[0]	/* MoveDirectAbsPt */\012MDAP[0]	/* MoveDirectAbsPt */\012MDAP[0]	/* MoveDirectAbsPt */\012MDAP[0]	/* MoveDirectAbsPt */\012MDAP[0]	/* MoveDirectAbsPt */\012SVTCA[0]	/* SetFreedomAndProjectionVectorToAxis */\012MDAP[0]	/* MoveDirectAbsPt */\012MDAP[0]	/* MoveDirectAbsPt */\012MDAP[0]	/* MoveDirectAbsPt */\012MDAP[0]	/* MoveDirectAbsPt */\012MDAP[0]	/* MoveDirectAbsPt */\012MDAP[0]	/* MoveDirectAbsPt */\012MDAP[0]	/* MoveDirectAbsPt */\012MDAP[0]	/* MoveDirectAbsPt */\012MDAP[0]	/* MoveDirectAbsPt */\012MDAP[0]	/* MoveDirectAbsPt */\012IUP[1]	/* InterpolateUntPts */\012IUP[0]	/* InterpolateUntPts */\012SVTCA[1]	/* SetFreedomAndProjectionVectorToAxis */\012MD[0]	/* MeasureDistance */\012ROUND[00]	/* Round */\012PUSHW[ ]	/* 2 values pushed */\01230 59 \012MD[0]	/* MeasureDistance */\012ROUND[00]	/* Round */\012SUB[ ]	/* Subtract */\012PUSHB[ ]	/* 1 value pushed */\01264 \012GT[ ]	/* GreaterThan */\012IF[ ]	/* If */\012SHPIX[ ]	/* ShiftZoneByPixel */\012SRP1[ ]	/* SetRefPoint1 */\012SHZ[1]	/* ShiftZoneByLastPoint */\012PUSHW[ ]	/* 2 values pushed */\01259 -64 \012SHPIX[ ]	/* ShiftZoneByPixel */\012EIF[ ]	/* EndIf */";
};
width = 446;
}
);
note = P;
unicode = 0050;
},
{
glyphname = Q;
layers = (
{
layerId = "466BAD2E-A4F2-4075-8033-B07AE50D6525";
paths = (
{
closed = 1;
nodes = (
"389.667 271.667 OFFCURVE",
"429.333 343.333 OFFCURVE",
"430 464 CURVE SMOOTH",
"430.667 527.333 OFFCURVE",
"419 578.333 OFFCURVE",
"395 617 CURVE SMOOTH",
"367 664.333 OFFCURVE",
"323 688.333 OFFCURVE",
"263 689 CURVE SMOOTH",
"203.667 689.667 OFFCURVE",
"159.333 666.333 OFFCURVE",
"130 619 CURVE SMOOTH",
"106 580.333 OFFCURVE",
"93.667 529.333 OFFCURVE",
"93 466 CURVE SMOOTH",
"92.333 323.333 OFFCURVE",
"145 248.667 OFFCURVE",
"251 242 CURVE SMOOTH",
"320.333 237.333 OFFCURVE",
"373.667 220.667 OFFCURVE",
"411 192 CURVE SMOOTH",
"417.667 186.667 OFFCURVE",
"421 181 OFFCURVE",
"421 175 CURVE SMOOTH",
"421 166.333 OFFCURVE",
"412.667 157 OFFCURVE",
"396 147 CURVE SMOOTH",
"361.333 125.667 OFFCURVE",
"344 115 OFFCURVE",
"344 115 CURVE",
"332 131 LINE",
"344 136.333 OFFCURVE",
"350.333 143.333 OFFCURVE",
"351 152 CURVE SMOOTH",
"353 173.333 OFFCURVE",
"342 190 OFFCURVE",
"318 202 CURVE SMOOTH",
"300 211.333 OFFCURVE",
"278.667 216.333 OFFCURVE",
"254 217 CURVE",
"254 218 LINE",
"112.667 220.667 OFFCURVE",
"9.667 324.667 OFFCURVE",
"11 466 CURVE SMOOTH",
"12.333 611.333 OFFCURVE",
"117.667 713.333 OFFCURVE",
"263 712 CURVE SMOOTH",
"409.667 710.667 OFFCURVE",
"513.333 609.667 OFFCURVE",
"512 463 CURVE SMOOTH",
"512 361.667 OFFCURVE",
"457.333 275.667 OFFCURVE",
"364 237 CURVE",
"311 249 LINE"
);
}
);
userData = {
assembly = "NPUSHB[ ]	/* 23 values pushed */\0121 41 41 64 42 4 35 1 39 31 25 20 18 14 13 10 4 0 7 21 1 10 70 \012SROUND[ ]	/* SuperRound */\012MDAP[1]	/* MoveDirectAbsPt */\012SHZ[1]	/* ShiftZoneByLastPoint */\012RTG[ ]	/* RoundToGrid */\012SVTCA[0]	/* SetFreedomAndProjectionVectorToAxis */\012MDAP[1]	/* MoveDirectAbsPt */\012MDAP[1]	/* MoveDirectAbsPt */\012SVTCA[1]	/* SetFreedomAndProjectionVectorToAxis */\012MDAP[0]	/* MoveDirectAbsPt */\012MDAP[0]	/* MoveDirectAbsPt */\012MDAP[0]	/* MoveDirectAbsPt */\012MDAP[0]	/* MoveDirectAbsPt */\012MDAP[0]	/* MoveDirectAbsPt */\012MDAP[0]	/* MoveDirectAbsPt */\012MDAP[0]	/* MoveDirectAbsPt */\012MDAP[0]	/* MoveDirectAbsPt */\012MDAP[0]	/* MoveDirectAbsPt */\012MDAP[0]	/* MoveDirectAbsPt */\012SVTCA[0]	/* SetFreedomAndProjectionVectorToAxis */\012MDAP[0]	/* MoveDirectAbsPt */\012MDAP[0]	/* MoveDirectAbsPt */\012IUP[1]	/* InterpolateUntPts */\012IUP[0]	/* InterpolateUntPts */\012SVTCA[1]	/* SetFreedomAndProjectionVectorToAxis */\012MD[0]	/* MeasureDistance */\012ROUND[00]	/* Round */\012PUSHW[ ]	/* 2 values pushed */\01210 41 \012MD[0]	/* MeasureDistance */\012ROUND[00]	/* Round */\012SUB[ ]	/* Subtract */\012PUSHB[ ]	/* 1 value pushed */\01264 \012GT[ ]	/* GreaterThan */\012IF[ ]	/* If */\012SHPIX[ ]	/* ShiftZoneByPixel */\012SRP1[ ]	/* SetRefPoint1 */\012SHZ[1]	/* ShiftZoneByLastPoint */\012PUSHW[ ]	/* 2 values pushed */\01241 -64 \012SHPIX[ ]	/* ShiftZoneByPixel */\012EIF[ ]	/* EndIf */";
};
width = 523;
}
);
note = Q;
unicode = 0051;
},
{
glyphname = R;
layers = (
{
layerId = "466BAD2E-A4F2-4075-8033-B07AE50D6525";
paths = (
{
closed = 1;
nodes = (
"461 289 LINE",
"466 271 LINE",
"462 267 OFFCURVE",
"456 261.667 OFFCURVE",
"448 255 CURVE SMOOTH",
"427.333 238.333 OFFCURVE",
"412.667 229.667 OFFCURVE",
"404 229 CURVE",
"387.333 228.333 OFFCURVE",
"373.667 236.333 OFFCURVE",
"363 253 CURVE",
"199 441 LINE",
"211 451 LINE",
"237.667 435.667 OFFCURVE",
"258 428 OFFCURVE",
"272 428 CURVE SMOOTH",
"278 428 OFFCURVE",
"285 429 OFFCURVE",
"293 431 CURVE SMOOTH",
"313 436.333 OFFCURVE",
"329.333 451.667 OFFCURVE",
"342 477 CURVE SMOOTH",
"352 497.667 OFFCURVE",
"357.667 520.333 OFFCURVE",
"359 545 CURVE SMOOTH",
"362.333 599.667 OFFCURVE",
"346 638 OFFCURVE",
"310 660 CURVE SMOOTH",
"292.667 670.667 OFFCURVE",
"274.667 676 OFFCURVE",
"256 676 CURVE SMOOTH",
"242 676 OFFCURVE",
"228.667 673.333 OFFCURVE",
"216 668 CURVE SMOOTH",
"174 650 OFFCURVE",
"153 617.667 OFFCURVE",
"153 571 CURVE SMOOTH",
"151 307 LINE SMOOTH",
"151 281.667 OFFCURVE",
"156.667 265.667 OFFCURVE",
"168 259 CURVE SMOOTH",
"176 254.333 OFFCURVE",
"193.667 251.333 OFFCURVE",
"221 250 CURVE",
"221 228 LINE",
"10 229 LINE",
"10 251 LINE",
"36.667 251.667 OFFCURVE",
"54.333 254.667 OFFCURVE",
"63 260 CURVE SMOOTH",
"75 267.333 OFFCURVE",
"81 283 OFFCURVE",
"81 307 CURVE SMOOTH",
"83 622 LINE SMOOTH",
"83 628 OFFCURVE",
"82.667 633.333 OFFCURVE",
"82 638 CURVE",
"83 656 LINE",
"81.667 665.333 OFFCURVE",
"81.667 676.667 OFFCURVE",
"67 670 CURVE SMOOTH",
"56 665 LINE",
"56 681 LINE",
"60.667 684.333 OFFCURVE",
"66.667 687.667 OFFCURVE",
"74 691 CURVE SMOOTH",
"92.667 699.667 OFFCURVE",
"107 703.333 OFFCURVE",
"117 702 CURVE SMOOTH",
"138.333 699.333 OFFCURVE",
"150.333 686.333 OFFCURVE",
"153 663 CURVE",
"153 661 LINE",
"179 691.667 OFFCURVE",
"216.333 707 OFFCURVE",
"265 707 CURVE SMOOTH",
"278.333 707 OFFCURVE",
"292.667 705 OFFCURVE",
"308 701 CURVE SMOOTH",
"385.333 680.333 OFFCURVE",
"424 631.333 OFFCURVE",
"424 554 CURVE SMOOTH",
"424 482.667 OFFCURVE",
"390 434.333 OFFCURVE",
"322 409 CURVE",
"393.333 328.333 OFFCURVE",
"429.667 286.667 OFFCURVE",
"431 284 CURVE",
"437 276 OFFCURVE",
"443.333 274.667 OFFCURVE",
"450 280 CURVE SMOOTH"
);
}
);
userData = {
assembly = "NPUSHB[ ]	/* 39 values pushed */\0121 66 66 64 67 65 57 22 21 16 13 1 0 65 58 49 40 36 35 34 33 28 26 25 21 20 14 13 7 5 55 6 45 11 61 35 1 33 70 \012SROUND[ ]	/* SuperRound */\012MDAP[1]	/* MoveDirectAbsPt */\012SHZ[1]	/* ShiftZoneByLastPoint */\012RTG[ ]	/* RoundToGrid */\012SVTCA[0]	/* SetFreedomAndProjectionVectorToAxis */\012MDAP[1]	/* MoveDirectAbsPt */\012ALIGNRP[ ]	/* AlignRelativePt */\012MDAP[1]	/* MoveDirectAbsPt */\012MDAP[1]	/* MoveDirectAbsPt */\012MIRP[11101]	/* MoveIndirectRelPt */\012SVTCA[1]	/* SetFreedomAndProjectionVectorToAxis */\012MDAP[0]	/* MoveDirectAbsPt */\012MDAP[0]	/* MoveDirectAbsPt */\012MDAP[0]	/* MoveDirectAbsPt */\012MDAP[0]	/* MoveDirectAbsPt */\012MDAP[0]	/* MoveDirectAbsPt */\012MDAP[0]	/* MoveDirectAbsPt */\012MDAP[0]	/* MoveDirectAbsPt */\012MDAP[0]	/* MoveDirectAbsPt */\012MDAP[0]	/* MoveDirectAbsPt */\012MDAP[0]	/* MoveDirectAbsPt */\012MDAP[0]	/* MoveDirectAbsPt */\012MDAP[0]	/* MoveDirectAbsPt */\012MDAP[0]	/* MoveDirectAbsPt */\012MDAP[0]	/* MoveDirectAbsPt */\012MDAP[0]	/* MoveDirectAbsPt */\012MDAP[0]	/* MoveDirectAbsPt */\012MDAP[0]	/* MoveDirectAbsPt */\012SVTCA[0]	/* SetFreedomAndProjectionVectorToAxis */\012MDAP[0]	/* MoveDirectAbsPt */\012MDAP[0]	/* MoveDirectAbsPt */\012MDAP[0]	/* MoveDirectAbsPt */\012MDAP[0]	/* MoveDirectAbsPt */\012MDAP[0]	/* MoveDirectAbsPt */\012MDAP[0]	/* MoveDirectAbsPt */\012MDAP[0]	/* MoveDirectAbsPt */\012IUP[1]	/* InterpolateUntPts */\012IUP[0]	/* InterpolateUntPts */\012SVTCA[1]	/* SetFreedomAndProjectionVectorToAxis */\012MD[0]	/* MeasureDistance */\012ROUND[00]	/* Round */\012PUSHW[ ]	/* 2 values pushed */\01233 66 \012MD[0]	/* MeasureDistance */\012ROUND[00]	/* Round */\012SUB[ ]	/* Subtract */\012PUSHB[ ]	/* 1 value pushed */\01264 \012GT[ ]	/* GreaterThan */\012IF[ ]	/* If */\012SHPIX[ ]	/* ShiftZoneByPixel */\012SRP1[ ]	/* SetRefPoint1 */\012SHZ[1]	/* ShiftZoneByLastPoint */\012PUSHW[ ]	/* 2 values pushed */\01266 -64 \012SHPIX[ ]	/* ShiftZoneByPixel */\012EIF[ ]	/* EndIf */";
};
width = 476;
}
);
note = R;
unicode = 0052;
},
{
glyphname = S;
layers = (
{
layerId = "466BAD2E-A4F2-4075-8033-B07AE50D6525";
paths = (
{
closed = 1;
nodes = (
"94 592.667 OFFCURVE",
"115.667 565 OFFCURVE",
"159 541 CURVE SMOOTH",
"187.667 525 OFFCURVE",
"228 503.333 OFFCURVE",
"280 476 CURVE",
"322.667 445.333 OFFCURVE",
"344 406.667 OFFCURVE",
"344 360 CURVE SMOOTH",
"344 272 OFFCURVE",
"283 216 OFFCURVE",
"195 216 CURVE SMOOTH",
"135 216 OFFCURVE",
"87 233.667 OFFCURVE",
"51 269 CURVE SMOOTH",
"23.667 295.667 OFFCURVE",
"11.667 318 OFFCURVE",
"15 336 CURVE SMOOTH",
"17 346.667 OFFCURVE",
"24.333 354.333 OFFCURVE",
"37 359 CURVE SMOOTH",
"42.333 361 OFFCURVE",
"53.667 363.333 OFFCURVE",
"71 366 CURVE",
"81 354 LINE",
"77.667 353.333 OFFCURVE",
"74 352.333 OFFCURVE",
"70 351 CURVE SMOOTH",
"62 348.333 OFFCURVE",
"61 339.333 OFFCURVE",
"67 324 CURVE SMOOTH",
"89 266.667 OFFCURVE",
"129.667 237.667 OFFCURVE",
"189 237 CURVE SMOOTH",
"245 237 OFFCURVE",
"285 275 OFFCURVE",
"285 331 CURVE SMOOTH",
"285.667 367 OFFCURVE",
"264.333 397.333 OFFCURVE",
"221 422 CURVE SMOOTH",
"169 450.667 OFFCURVE",
"129.667 471.667 OFFCURVE",
"103 485 CURVE",
"60.333 513.667 OFFCURVE",
"39.333 549.333 OFFCURVE",
"40 592 CURVE SMOOTH",
"40 628 OFFCURVE",
"53.333 657 OFFCURVE",
"80 679 CURVE SMOOTH",
"104.667 700.333 OFFCURVE",
"135.333 711 OFFCURVE",
"172 711 CURVE SMOOTH",
"225.333 711 OFFCURVE",
"267 697.333 OFFCURVE",
"297 670 CURVE SMOOTH",
"319.667 649.333 OFFCURVE",
"329.667 632.667 OFFCURVE",
"327 620 CURVE SMOOTH",
"325 610.667 OFFCURVE",
"317.333 604 OFFCURVE",
"304 600 CURVE",
"302.667 599.333 OFFCURVE",
"291.667 597.333 OFFCURVE",
"271 594 CURVE",
"261 604 LINE",
"264.333 605.333 OFFCURVE",
"268 606.333 OFFCURVE",
"272 607 CURVE",
"280 609.667 OFFCURVE",
"281 617.333 OFFCURVE",
"275 630 CURVE SMOOTH",
"260.333 662 OFFCURVE",
"210.333 690 OFFCURVE",
"173 690 CURVE SMOOTH",
"131.667 690 OFFCURVE",
"94 664 OFFCURVE",
"94 624 CURVE SMOOTH"
);
}
);
userData = {
assembly = "NPUSHB[ ]	/* 25 values pushed */\0121 56 56 64 57 50 39 32 11 3 50 43 38 34 29 23 15 10 6 0 19 47 1 43 70 \012SROUND[ ]	/* SuperRound */\012MDAP[1]	/* MoveDirectAbsPt */\012SHZ[1]	/* ShiftZoneByLastPoint */\012RTG[ ]	/* RoundToGrid */\012SVTCA[0]	/* SetFreedomAndProjectionVectorToAxis */\012MDAP[1]	/* MoveDirectAbsPt */\012MDAP[1]	/* MoveDirectAbsPt */\012SVTCA[1]	/* SetFreedomAndProjectionVectorToAxis */\012MDAP[0]	/* MoveDirectAbsPt */\012MDAP[0]	/* MoveDirectAbsPt */\012MDAP[0]	/* MoveDirectAbsPt */\012MDAP[0]	/* MoveDirectAbsPt */\012MDAP[0]	/* MoveDirectAbsPt */\012MDAP[0]	/* MoveDirectAbsPt */\012MDAP[0]	/* MoveDirectAbsPt */\012MDAP[0]	/* MoveDirectAbsPt */\012MDAP[0]	/* MoveDirectAbsPt */\012MDAP[0]	/* MoveDirectAbsPt */\012SVTCA[0]	/* SetFreedomAndProjectionVectorToAxis */\012MDAP[0]	/* MoveDirectAbsPt */\012MDAP[0]	/* MoveDirectAbsPt */\012MDAP[0]	/* MoveDirectAbsPt */\012MDAP[0]	/* MoveDirectAbsPt */\012IUP[1]	/* InterpolateUntPts */\012IUP[0]	/* InterpolateUntPts */\012SVTCA[1]	/* SetFreedomAndProjectionVectorToAxis */\012MD[0]	/* MeasureDistance */\012ROUND[00]	/* Round */\012PUSHW[ ]	/* 2 values pushed */\01243 56 \012MD[0]	/* MeasureDistance */\012ROUND[00]	/* Round */\012SUB[ ]	/* Subtract */\012PUSHB[ ]	/* 1 value pushed */\01264 \012GT[ ]	/* GreaterThan */\012IF[ ]	/* If */\012SHPIX[ ]	/* ShiftZoneByPixel */\012SRP1[ ]	/* SetRefPoint1 */\012SHZ[1]	/* ShiftZoneByLastPoint */\012PUSHW[ ]	/* 2 values pushed */\01256 -64 \012SHPIX[ ]	/* ShiftZoneByPixel */\012EIF[ ]	/* EndIf */";
};
width = 354;
}
);
note = S;
unicode = 0053;
},
{
glyphname = T;
layers = (
{
layerId = "466BAD2E-A4F2-4075-8033-B07AE50D6525";
paths = (
{
closed = 1;
nodes = (
"401 275 LINE",
"375.667 234.333 OFFCURVE",
"325.333 215.333 OFFCURVE",
"250 218 CURVE SMOOTH",
"186 220 OFFCURVE",
"136 243.667 OFFCURVE",
"100 289 CURVE SMOOTH",
"67.333 330.333 OFFCURVE",
"51.333 384 OFFCURVE",
"52 450 CURVE SMOOTH",
"52.667 543.333 OFFCURVE",
"90 612.667 OFFCURVE",
"164 658 CURVE",
"105 659 LINE",
"81 656.333 OFFCURVE",
"64 648.667 OFFCURVE",
"54 636 CURVE SMOOTH",
"47.333 628 OFFCURVE",
"39.667 609.667 OFFCURVE",
"31 581 CURVE",
"10 581 LINE",
"23 696 LINE",
"226 694 LINE",
"226.667 694.667 OFFCURVE",
"227.333 695 OFFCURVE",
"228 695 CURVE",
"228 694 LINE",
"369 693 LINE",
"368 659 LINE",
"237 658 LINE",
"217 648 LINE SMOOTH",
"166.333 622.667 OFFCURVE",
"140.667 561.333 OFFCURVE",
"140 464 CURVE SMOOTH",
"140 406.667 OFFCURVE",
"151.333 358.333 OFFCURVE",
"174 319 CURVE SMOOTH",
"202.667 271.667 OFFCURVE",
"243.667 247.667 OFFCURVE",
"297 247 CURVE SMOOTH",
"339.667 247 OFFCURVE",
"369.333 257.667 OFFCURVE",
"386 279 CURVE"
);
}
);
userData = {
assembly = "NPUSHB[ ]	/* 26 values pushed */\0121 32 32 64 33 31 22 18 17 2 0 31 25 23 17 13 12 11 6 15 13 16 29 1 17 70 \012SROUND[ ]	/* SuperRound */\012MDAP[1]	/* MoveDirectAbsPt */\012SHZ[1]	/* ShiftZoneByLastPoint */\012RTG[ ]	/* RoundToGrid */\012SVTCA[0]	/* SetFreedomAndProjectionVectorToAxis */\012MDAP[1]	/* MoveDirectAbsPt */\012MDAP[1]	/* MoveDirectAbsPt */\012ALIGNRP[ ]	/* AlignRelativePt */\012ALIGNRP[ ]	/* AlignRelativePt */\012SVTCA[1]	/* SetFreedomAndProjectionVectorToAxis */\012MDAP[0]	/* MoveDirectAbsPt */\012MDAP[0]	/* MoveDirectAbsPt */\012MDAP[0]	/* MoveDirectAbsPt */\012MDAP[0]	/* MoveDirectAbsPt */\012MDAP[0]	/* MoveDirectAbsPt */\012MDAP[0]	/* MoveDirectAbsPt */\012MDAP[0]	/* MoveDirectAbsPt */\012MDAP[0]	/* MoveDirectAbsPt */\012SVTCA[0]	/* SetFreedomAndProjectionVectorToAxis */\012MDAP[0]	/* MoveDirectAbsPt */\012MDAP[0]	/* MoveDirectAbsPt */\012MDAP[0]	/* MoveDirectAbsPt */\012MDAP[0]	/* MoveDirectAbsPt */\012MDAP[0]	/* MoveDirectAbsPt */\012IUP[1]	/* InterpolateUntPts */\012IUP[0]	/* InterpolateUntPts */\012SVTCA[1]	/* SetFreedomAndProjectionVectorToAxis */\012MD[0]	/* MeasureDistance */\012ROUND[00]	/* Round */\012PUSHW[ ]	/* 2 values pushed */\01217 32 \012MD[0]	/* MeasureDistance */\012ROUND[00]	/* Round */\012SUB[ ]	/* Subtract */\012PUSHB[ ]	/* 1 value pushed */\01264 \012GT[ ]	/* GreaterThan */\012IF[ ]	/* If */\012SHPIX[ ]	/* ShiftZoneByPixel */\012SRP1[ ]	/* SetRefPoint1 */\012SHZ[1]	/* ShiftZoneByLastPoint */\012PUSHW[ ]	/* 2 values pushed */\01232 -64 \012SHPIX[ ]	/* ShiftZoneByPixel */\012EIF[ ]	/* EndIf */";
};
width = 411;
}
);
note = T;
unicode = 0054;
},
{
glyphname = U;
layers = (
{
layerId = "466BAD2E-A4F2-4075-8033-B07AE50D6525";
paths = (
{
closed = 1;
nodes = (
"378 305 LINE SMOOTH",
"378 279.667 OFFCURVE",
"383.667 263.333 OFFCURVE",
"395 256 CURVE SMOOTH",
"401 252 OFFCURVE",
"416 249.333 OFFCURVE",
"440 248 CURVE",
"440 227 LINE",
"314 227 LINE",
"314 255 LINE",
"313 255 LINE",
"313 269 LINE",
"279.667 241 OFFCURVE",
"234.333 227 OFFCURVE",
"177 227 CURVE SMOOTH",
"117.667 227.667 OFFCURVE",
"71.333 250.333 OFFCURVE",
"38 295 CURVE SMOOTH",
"19.333 319.667 OFFCURVE",
"10 347.667 OFFCURVE",
"10 379 CURVE SMOOTH",
"10 387 OFFCURVE",
"10.667 395.333 OFFCURVE",
"12 404 CURVE",
"11 405 LINE",
"42.333 544.333 OFFCURVE",
"58.667 617.333 OFFCURVE",
"60 624 CURVE SMOOTH",
"64.667 647.333 OFFCURVE",
"67.333 661 OFFCURVE",
"68 665 CURVE",
"67.333 674.333 OFFCURVE",
"62.333 677 OFFCURVE",
"53 673 CURVE",
"47.667 671 OFFCURVE",
"44 669.333 OFFCURVE",
"42 668 CURVE",
"42 684 LINE",
"49.333 688 OFFCURVE",
"55.333 691 OFFCURVE",
"60 693 CURVE",
"79.333 702.333 OFFCURVE",
"93.667 706.333 OFFCURVE",
"103 705 CURVE",
"120.728 703.388 OFFCURVE",
"133 681.45 OFFCURVE",
"133 665 CURVE SMOOTH",
"133 653.667 OFFCURVE",
"130.667 640 OFFCURVE",
"126 624 CURVE",
"86 421 LINE",
"87 421 LINE",
"82.333 405 OFFCURVE",
"80 388.667 OFFCURVE",
"80 372 CURVE SMOOTH",
"80 302 OFFCURVE",
"121 266.667 OFFCURVE",
"203 266 CURVE SMOOTH",
"259.667 265.333 OFFCURVE",
"297.333 290.667 OFFCURVE",
"316 342 CURVE",
"318 620 LINE SMOOTH",
"318 642.667 OFFCURVE",
"313 658 OFFCURVE",
"303 666 CURVE SMOOTH",
"295 672 OFFCURVE",
"279.333 675.667 OFFCURVE",
"256 677 CURVE",
"256 699 LINE",
"443 698 LINE",
"443 676 LINE",
"397.667 674.667 OFFCURVE",
"380 670.667 OFFCURVE",
"380 620 CURVE SMOOTH"
);
}
);
userData = {
assembly = "NPUSHB[ ]	/* 47 values pushed */\0121 57 57 64 58 1 47 46 45 30 28 16 15 11 3 54 50 49 46 45 39 37 36 32 28 27 19 16 15 4 3 2 1 48 47 8 3 9 5 13 23 49 48 43 1 39 70 \012SROUND[ ]	/* SuperRound */\012MDAP[1]	/* MoveDirectAbsPt */\012SHZ[1]	/* ShiftZoneByLastPoint */\012RTG[ ]	/* RoundToGrid */\012SVTCA[0]	/* SetFreedomAndProjectionVectorToAxis */\012MDAP[1]	/* MoveDirectAbsPt */\012ALIGNRP[ ]	/* AlignRelativePt */\012ALIGNRP[ ]	/* AlignRelativePt */\012MDAP[1]	/* MoveDirectAbsPt */\012SVTCA[1]	/* SetFreedomAndProjectionVectorToAxis */\012MDAP[1]	/* MoveDirectAbsPt */\012MIRP[11101]	/* MoveIndirectRelPt */\012SLOOP[ ]	/* SetLoopVariable */\012ALIGNRP[ ]	/* AlignRelativePt */\012MDAP[0]	/* MoveDirectAbsPt */\012MDAP[0]	/* MoveDirectAbsPt */\012MDAP[0]	/* MoveDirectAbsPt */\012MDAP[0]	/* MoveDirectAbsPt */\012MDAP[0]	/* MoveDirectAbsPt */\012MDAP[0]	/* MoveDirectAbsPt */\012MDAP[0]	/* MoveDirectAbsPt */\012MDAP[0]	/* MoveDirectAbsPt */\012MDAP[0]	/* MoveDirectAbsPt */\012MDAP[0]	/* MoveDirectAbsPt */\012MDAP[0]	/* MoveDirectAbsPt */\012MDAP[0]	/* MoveDirectAbsPt */\012MDAP[0]	/* MoveDirectAbsPt */\012MDAP[0]	/* MoveDirectAbsPt */\012MDAP[0]	/* MoveDirectAbsPt */\012MDAP[0]	/* MoveDirectAbsPt */\012MDAP[0]	/* MoveDirectAbsPt */\012MDAP[0]	/* MoveDirectAbsPt */\012SVTCA[0]	/* SetFreedomAndProjectionVectorToAxis */\012MDAP[0]	/* MoveDirectAbsPt */\012MDAP[0]	/* MoveDirectAbsPt */\012MDAP[0]	/* MoveDirectAbsPt */\012MDAP[0]	/* MoveDirectAbsPt */\012MDAP[0]	/* MoveDirectAbsPt */\012MDAP[0]	/* MoveDirectAbsPt */\012MDAP[0]	/* MoveDirectAbsPt */\012MDAP[0]	/* MoveDirectAbsPt */\012MDAP[0]	/* MoveDirectAbsPt */\012IUP[1]	/* InterpolateUntPts */\012IUP[0]	/* InterpolateUntPts */\012SVTCA[1]	/* SetFreedomAndProjectionVectorToAxis */\012MD[0]	/* MeasureDistance */\012ROUND[00]	/* Round */\012PUSHW[ ]	/* 2 values pushed */\01239 57 \012MD[0]	/* MeasureDistance */\012ROUND[00]	/* Round */\012SUB[ ]	/* Subtract */\012PUSHB[ ]	/* 1 value pushed */\01264 \012GT[ ]	/* GreaterThan */\012IF[ ]	/* If */\012SHPIX[ ]	/* ShiftZoneByPixel */\012SRP1[ ]	/* SetRefPoint1 */\012SHZ[1]	/* ShiftZoneByLastPoint */\012PUSHW[ ]	/* 2 values pushed */\01257 -64 \012SHPIX[ ]	/* ShiftZoneByPixel */\012EIF[ ]	/* EndIf */";
};
width = 453;
}
);
note = U;
unicode = 0055;
},
{
glyphname = V;
layers = (
{
layerId = "466BAD2E-A4F2-4075-8033-B07AE50D6525";
paths = (
{
closed = 1;
nodes = (
"442.333 604 OFFCURVE",
"452 561.333 OFFCURVE",
"452 514 CURVE SMOOTH",
"452 484.667 OFFCURVE",
"446.667 456.667 OFFCURVE",
"436 430 CURVE SMOOTH",
"420 390 OFFCURVE",
"395.667 347.667 OFFCURVE",
"363 303 CURVE SMOOTH",
"321 244.333 OFFCURVE",
"285.333 215 OFFCURVE",
"256 215 CURVE SMOOTH",
"248 215 OFFCURVE",
"237.667 228.667 OFFCURVE",
"225 256 CURVE SMOOTH",
"113 518 LINE",
"65 624 LINE SMOOTH",
"57.667 640.667 OFFCURVE",
"50.333 650.333 OFFCURVE",
"43 653 CURVE SMOOTH",
"35.667 655.667 OFFCURVE",
"24.667 653.667 OFFCURVE",
"10 647 CURVE",
"10 664 LINE",
"28 672.667 OFFCURVE",
"44 681 OFFCURVE",
"58 689 CURVE SMOOTH",
"68.667 695 OFFCURVE",
"80.667 698 OFFCURVE",
"94 698 CURVE SMOOTH",
"106.667 698 OFFCURVE",
"116.667 694.667 OFFCURVE",
"124 688 CURVE",
"144 647.333 OFFCURVE",
"163.333 605 OFFCURVE",
"182 561 CURVE SMOOTH",
"227.333 452.333 OFFCURVE",
"262.333 374 OFFCURVE",
"287 326 CURVE",
"287 326 LINE",
"292.333 315.333 OFFCURVE",
"299.667 310 OFFCURVE",
"309 310 CURVE SMOOTH",
"316.333 310 OFFCURVE",
"324 313.333 OFFCURVE",
"332 320 CURVE SMOOTH",
"378 358 OFFCURVE",
"401 411 OFFCURVE",
"401 479 CURVE SMOOTH",
"401 516.333 OFFCURVE",
"386 563.333 OFFCURVE",
"356 620 CURVE SMOOTH",
"344.667 642 OFFCURVE",
"332.667 653 OFFCURVE",
"320 653 CURVE SMOOTH",
"312.667 653 OFFCURVE",
"304 650.667 OFFCURVE",
"294 646 CURVE",
"294 663 LINE",
"312 671.667 OFFCURVE",
"328 680 OFFCURVE",
"342 688 CURVE SMOOTH",
"352.667 694 OFFCURVE",
"362.333 697 OFFCURVE",
"371 697 CURVE SMOOTH",
"383 697 OFFCURVE",
"394 690.333 OFFCURVE",
"404 677 CURVE SMOOTH",
"406 674.333 OFFCURVE",
"412.333 662.667 OFFCURVE",
"423 642 CURVE SMOOTH"
);
}
);
userData = {
assembly = "NPUSHB[ ]	/* 27 values pushed */\0121 49 49 64 50 47 35 33 22 21 19 11 9 47 33 32 22 21 15 9 8 4 28 41 1 32 70 \012SROUND[ ]	/* SuperRound */\012MDAP[1]	/* MoveDirectAbsPt */\012SHZ[1]	/* ShiftZoneByLastPoint */\012RTG[ ]	/* RoundToGrid */\012SVTCA[0]	/* SetFreedomAndProjectionVectorToAxis */\012MDAP[1]	/* MoveDirectAbsPt */\012MDAP[1]	/* MoveDirectAbsPt */\012ALIGNRP[ ]	/* AlignRelativePt */\012SVTCA[1]	/* SetFreedomAndProjectionVectorToAxis */\012MDAP[0]	/* MoveDirectAbsPt */\012MDAP[0]	/* MoveDirectAbsPt */\012MDAP[0]	/* MoveDirectAbsPt */\012MDAP[0]	/* MoveDirectAbsPt */\012MDAP[0]	/* MoveDirectAbsPt */\012MDAP[0]	/* MoveDirectAbsPt */\012MDAP[0]	/* MoveDirectAbsPt */\012MDAP[0]	/* MoveDirectAbsPt */\012SVTCA[0]	/* SetFreedomAndProjectionVectorToAxis */\012MDAP[0]	/* MoveDirectAbsPt */\012MDAP[0]	/* MoveDirectAbsPt */\012MDAP[0]	/* MoveDirectAbsPt */\012MDAP[0]	/* MoveDirectAbsPt */\012MDAP[0]	/* MoveDirectAbsPt */\012MDAP[0]	/* MoveDirectAbsPt */\012MDAP[0]	/* MoveDirectAbsPt */\012IUP[1]	/* InterpolateUntPts */\012IUP[0]	/* InterpolateUntPts */\012SVTCA[1]	/* SetFreedomAndProjectionVectorToAxis */\012MD[0]	/* MeasureDistance */\012ROUND[00]	/* Round */\012PUSHW[ ]	/* 2 values pushed */\01232 49 \012MD[0]	/* MeasureDistance */\012ROUND[00]	/* Round */\012SUB[ ]	/* Subtract */\012PUSHB[ ]	/* 1 value pushed */\01264 \012GT[ ]	/* GreaterThan */\012IF[ ]	/* If */\012SHPIX[ ]	/* ShiftZoneByPixel */\012SRP1[ ]	/* SetRefPoint1 */\012SHZ[1]	/* ShiftZoneByLastPoint */\012PUSHW[ ]	/* 2 values pushed */\01249 -64 \012SHPIX[ ]	/* ShiftZoneByPixel */\012EIF[ ]	/* EndIf */";
};
width = 462;
}
);
note = V;
unicode = 0056;
},
{
glyphname = W;
layers = (
{
layerId = "466BAD2E-A4F2-4075-8033-B07AE50D6525";
paths = (
{
closed = 1;
nodes = (
"615.667 381.333 OFFCURVE",
"616 374.333 OFFCURVE",
"616 367 CURVE SMOOTH",
"616 333.667 OFFCURVE",
"606 304.333 OFFCURVE",
"586 279 CURVE SMOOTH",
"550.667 234.333 OFFCURVE",
"502 212.333 OFFCURVE",
"440 213 CURVE SMOOTH",
"401.333 213 OFFCURVE",
"360 223 OFFCURVE",
"316 243 CURVE",
"284.667 223.667 OFFCURVE",
"240.667 214.333 OFFCURVE",
"184 215 CURVE SMOOTH",
"122 215.667 OFFCURVE",
"73.667 238.333 OFFCURVE",
"39 283 CURVE SMOOTH",
"19.667 307.667 OFFCURVE",
"10 336.333 OFFCURVE",
"10 369 CURVE SMOOTH",
"10 377 OFFCURVE",
"10.667 384.667 OFFCURVE",
"12 392 CURVE",
"11 393 LINE",
"43 533 OFFCURVE",
"60 606 OFFCURVE",
"62 612 CURVE",
"67.333 638.667 OFFCURVE",
"70 652.667 OFFCURVE",
"70 654 CURVE SMOOTH",
"70 660 OFFCURVE",
"67.667 663 OFFCURVE",
"63 663 CURVE SMOOTH",
"59 663 OFFCURVE",
"52.333 660.667 OFFCURVE",
"43 656 CURVE",
"43 672 LINE",
"47 674.667 OFFCURVE",
"51 677 OFFCURVE",
"55 679 CURVE SMOOTH",
"77 689.667 OFFCURVE",
"94 694.333 OFFCURVE",
"106 693 CURVE SMOOTH",
"114 692.333 OFFCURVE",
"120.333 689.667 OFFCURVE",
"125 685 CURVE SMOOTH",
"125.667 684.333 OFFCURVE",
"128.667 680 OFFCURVE",
"134 672 CURVE SMOOTH",
"136.667 668 OFFCURVE",
"138 661.667 OFFCURVE",
"138 653 CURVE SMOOTH",
"138 648.333 OFFCURVE",
"135.667 634.667 OFFCURVE",
"131 612 CURVE SMOOTH",
"89 410 LINE",
"90 409 LINE",
"89.333 402.333 OFFCURVE",
"89 394.667 OFFCURVE",
"89 386 CURVE SMOOTH",
"89 298.667 OFFCURVE",
"129.667 254.667 OFFCURVE",
"211 254 CURVE SMOOTH",
"235 254 OFFCURVE",
"254.333 258 OFFCURVE",
"269 266 CURVE",
"273 268.667 OFFCURVE",
"275.667 273 OFFCURVE",
"277 279 CURVE",
"277 292.333 OFFCURVE",
"277 299 OFFCURVE",
"277 299 CURVE",
"279 535 LINE SMOOTH",
"279 584.333 OFFCURVE",
"274.333 589.333 OFFCURVE",
"225 592 CURVE",
"225 613 LINE",
"414 612 LINE",
"414 590 LINE",
"368.667 590 OFFCURVE",
"352 578 OFFCURVE",
"352 534 CURVE SMOOTH",
"351 298 LINE SMOOTH",
"351 279.333 OFFCURVE",
"354.333 268 OFFCURVE",
"361 264 CURVE SMOOTH",
"373 256.667 OFFCURVE",
"390.333 253 OFFCURVE",
"413 253 CURVE SMOOTH",
"496.333 252.333 OFFCURVE",
"538 296.667 OFFCURVE",
"538 386 CURVE SMOOTH",
"538 393.333 OFFCURVE",
"537.667 400 OFFCURVE",
"537 406 CURVE",
"538 407 LINE",
"499 610 LINE",
"494.333 625.333 OFFCURVE",
"492 638.667 OFFCURVE",
"492 650 CURVE SMOOTH",
"492 658.667 OFFCURVE",
"493.667 665 OFFCURVE",
"497 669 CURVE",
"505.667 683 OFFCURVE",
"514.667 690.333 OFFCURVE",
"524 691 CURVE",
"534 692.333 OFFCURVE",
"548.667 688.333 OFFCURVE",
"568 679 CURVE SMOOTH",
"576.667 675 OFFCURVE",
"583 671.667 OFFCURVE",
"587 669 CURVE",
"587 653 LINE",
"575 658 LINE SMOOTH",
"565.667 662 OFFCURVE",
"560.667 659.333 OFFCURVE",
"560 650 CURVE",
"560.667 643.333 OFFCURVE",
"563.333 629.667 OFFCURVE",
"568 609 CURVE SMOOTH",
"616 389 LINE",
"615 388 LINE"
);
}
);
userData = {
assembly = "NPUSHB[ ]	/* 52 values pushed */\0121 89 89 64 90 1 81 66 64 45 34 24 7 6 87 75 73 72 68 64 63 53 35 34 33 32 16 8 7 4 1 0 29 28 5 22 20 19 41 38 39 5 50 49 47 12 59 79 83 1 75 70 \012SROUND[ ]	/* SuperRound */\012MDAP[1]	/* MoveDirectAbsPt */\012SHZ[1]	/* ShiftZoneByLastPoint */\012RTG[ ]	/* RoundToGrid */\012SVTCA[0]	/* SetFreedomAndProjectionVectorToAxis */\012MDAP[1]	/* MoveDirectAbsPt */\012ALIGNRP[ ]	/* AlignRelativePt */\012MDAP[1]	/* MoveDirectAbsPt */\012ALIGNRP[ ]	/* AlignRelativePt */\012SVTCA[1]	/* SetFreedomAndProjectionVectorToAxis */\012MDAP[1]	/* MoveDirectAbsPt */\012ALIGNRP[ ]	/* AlignRelativePt */\012ALIGNRP[ ]	/* AlignRelativePt */\012MIRP[11101]	/* MoveIndirectRelPt */\012ALIGNRP[ ]	/* AlignRelativePt */\012ALIGNRP[ ]	/* AlignRelativePt */\012MDAP[1]	/* MoveDirectAbsPt */\012ALIGNRP[ ]	/* AlignRelativePt */\012ALIGNRP[ ]	/* AlignRelativePt */\012MIRP[11101]	/* MoveIndirectRelPt */\012ALIGNRP[ ]	/* AlignRelativePt */\012MDAP[0]	/* MoveDirectAbsPt */\012MDAP[0]	/* MoveDirectAbsPt */\012MDAP[0]	/* MoveDirectAbsPt */\012MDAP[0]	/* MoveDirectAbsPt */\012MDAP[0]	/* MoveDirectAbsPt */\012MDAP[0]	/* MoveDirectAbsPt */\012MDAP[0]	/* MoveDirectAbsPt */\012MDAP[0]	/* MoveDirectAbsPt */\012MDAP[0]	/* MoveDirectAbsPt */\012MDAP[0]	/* MoveDirectAbsPt */\012MDAP[0]	/* MoveDirectAbsPt */\012MDAP[0]	/* MoveDirectAbsPt */\012MDAP[0]	/* MoveDirectAbsPt */\012MDAP[0]	/* MoveDirectAbsPt */\012MDAP[0]	/* MoveDirectAbsPt */\012MDAP[0]	/* MoveDirectAbsPt */\012MDAP[0]	/* MoveDirectAbsPt */\012MDAP[0]	/* MoveDirectAbsPt */\012SVTCA[0]	/* SetFreedomAndProjectionVectorToAxis */\012MDAP[0]	/* MoveDirectAbsPt */\012MDAP[0]	/* MoveDirectAbsPt */\012MDAP[0]	/* MoveDirectAbsPt */\012MDAP[0]	/* MoveDirectAbsPt */\012MDAP[0]	/* MoveDirectAbsPt */\012MDAP[0]	/* MoveDirectAbsPt */\012MDAP[0]	/* MoveDirectAbsPt */\012MDAP[0]	/* MoveDirectAbsPt */\012IUP[1]	/* InterpolateUntPts */\012IUP[0]	/* InterpolateUntPts */\012SVTCA[1]	/* SetFreedomAndProjectionVectorToAxis */\012MD[0]	/* MeasureDistance */\012ROUND[00]	/* Round */\012PUSHW[ ]	/* 2 values pushed */\01275 89 \012MD[0]	/* MeasureDistance */\012ROUND[00]	/* Round */\012SUB[ ]	/* Subtract */\012PUSHB[ ]	/* 1 value pushed */\01264 \012GT[ ]	/* GreaterThan */\012IF[ ]	/* If */\012SHPIX[ ]	/* ShiftZoneByPixel */\012SRP1[ ]	/* SetRefPoint1 */\012SHZ[1]	/* ShiftZoneByLastPoint */\012PUSHW[ ]	/* 2 values pushed */\01289 -64 \012SHPIX[ ]	/* ShiftZoneByPixel */\012EIF[ ]	/* EndIf */";
};
width = 626;
}
);
note = W;
unicode = 0057;
},
{
glyphname = X;
layers = (
{
layerId = "466BAD2E-A4F2-4075-8033-B07AE50D6525";
paths = (
{
closed = 1;
nodes = (
"453.667 674.667 OFFCURVE",
"411.667 649.333 OFFCURVE",
"375 604 CURVE",
"342.333 553.333 OFFCURVE",
"316.333 511 OFFCURVE",
"297 477 CURVE",
"409 306 LINE",
"411 302 LINE",
"414.333 296.667 OFFCURVE",
"417.667 292 OFFCURVE",
"421 288 CURVE",
"432 272 LINE",
"434.667 268.667 OFFCURVE",
"436 266.667 OFFCURVE",
"436 266 CURVE",
"438.667 262.667 OFFCURVE",
"441 261 OFFCURVE",
"443 261 CURVE SMOOTH",
"449.667 261 OFFCURVE",
"457.667 274.333 OFFCURVE",
"459 277 CURVE",
"468 263 LINE",
"466 257.667 OFFCURVE",
"463 252 OFFCURVE",
"459 246 CURVE",
"449 229.333 OFFCURVE",
"439.333 219 OFFCURVE",
"430 215 CURVE SMOOTH",
"407.333 205.667 OFFCURVE",
"387 215.667 OFFCURVE",
"369 245 CURVE",
"351 271 LINE",
"316 325 LINE SMOOTH",
"314.667 327 OFFCURVE",
"313.667 328.667 OFFCURVE",
"313 330 CURVE",
"258 415 LINE",
"212.667 339.667 OFFCURVE",
"187.333 299 OFFCURVE",
"182 293 CURVE SMOOTH",
"143.333 249 OFFCURVE",
"97 227 OFFCURVE",
"43 227 CURVE SMOOTH",
"30.333 227 OFFCURVE",
"19.333 228 OFFCURVE",
"10 230 CURVE",
"10 244 LINE",
"57.333 248.667 OFFCURVE",
"99.333 273.667 OFFCURVE",
"136 319 CURVE SMOOTH",
"158 346.333 OFFCURVE",
"188 394.667 OFFCURVE",
"226 464 CURVE",
"131 610 LINE",
"128 614 LINE SMOOTH",
"124 619.333 OFFCURVE",
"120.667 624 OFFCURVE",
"118 628 CURVE SMOOTH",
"108 643 LINE SMOOTH",
"105.333 647 OFFCURVE",
"104 649 OFFCURVE",
"104 649 CURVE",
"98 657 OFFCURVE",
"92.333 656.667 OFFCURVE",
"87 648 CURVE SMOOTH",
"81 638 LINE",
"71 652 LINE",
"75 658.667 OFFCURVE",
"78.333 664.333 OFFCURVE",
"81 669 CURVE SMOOTH",
"91.667 686.333 OFFCURVE",
"101 697 OFFCURVE",
"109 701 CURVE SMOOTH",
"120.333 706.333 OFFCURVE",
"133 705 OFFCURVE",
"147 697 CURVE SMOOTH",
"155.667 692.333 OFFCURVE",
"163.667 683.667 OFFCURVE",
"171 671 CURVE",
"188 644 LINE",
"189 644 LINE",
"224 590 LINE SMOOTH",
"225.333 588 OFFCURVE",
"226 586.333 OFFCURVE",
"226 585 CURVE",
"264 528 LINE",
"263 528 LINE",
"264 527 LINE",
"300 586.333 OFFCURVE",
"322 620.667 OFFCURVE",
"330 630 CURVE SMOOTH",
"368.667 674.667 OFFCURVE",
"414.667 697 OFFCURVE",
"468 697 CURVE SMOOTH",
"480.667 697 OFFCURVE",
"491.667 695.667 OFFCURVE",
"501 693 CURVE",
"501 680 LINE"
);
}
);
userData = {
assembly = "NPUSHB[ ]	/* 34 values pushed */\0121 73 73 64 74 0 60 57 45 41 27 24 14 13 7 3 69 56 39 38 34 23 9 8 1 0 19 52 9 8 2 1 38 70 \012SROUND[ ]	/* SuperRound */\012MDAP[1]	/* MoveDirectAbsPt */\012SHZ[1]	/* ShiftZoneByLastPoint */\012RTG[ ]	/* RoundToGrid */\012SVTCA[0]	/* SetFreedomAndProjectionVectorToAxis */\012MIAP[1]	/* MoveIndirectAbsPt */\012ALIGNRP[ ]	/* AlignRelativePt */\012MDAP[1]	/* MoveDirectAbsPt */\012MDAP[1]	/* MoveDirectAbsPt */\012SVTCA[1]	/* SetFreedomAndProjectionVectorToAxis */\012MDAP[0]	/* MoveDirectAbsPt */\012MDAP[0]	/* MoveDirectAbsPt */\012MDAP[0]	/* MoveDirectAbsPt */\012MDAP[0]	/* MoveDirectAbsPt */\012MDAP[0]	/* MoveDirectAbsPt */\012MDAP[0]	/* MoveDirectAbsPt */\012MDAP[0]	/* MoveDirectAbsPt */\012MDAP[0]	/* MoveDirectAbsPt */\012MDAP[0]	/* MoveDirectAbsPt */\012MDAP[0]	/* MoveDirectAbsPt */\012SVTCA[0]	/* SetFreedomAndProjectionVectorToAxis */\012MDAP[0]	/* MoveDirectAbsPt */\012MDAP[0]	/* MoveDirectAbsPt */\012MDAP[0]	/* MoveDirectAbsPt */\012MDAP[0]	/* MoveDirectAbsPt */\012MDAP[0]	/* MoveDirectAbsPt */\012MDAP[0]	/* MoveDirectAbsPt */\012MDAP[0]	/* MoveDirectAbsPt */\012MDAP[0]	/* MoveDirectAbsPt */\012MDAP[0]	/* MoveDirectAbsPt */\012MDAP[0]	/* MoveDirectAbsPt */\012IUP[1]	/* InterpolateUntPts */\012IUP[0]	/* InterpolateUntPts */\012SVTCA[1]	/* SetFreedomAndProjectionVectorToAxis */\012MD[0]	/* MeasureDistance */\012ROUND[00]	/* Round */\012PUSHW[ ]	/* 2 values pushed */\01238 73 \012MD[0]	/* MeasureDistance */\012ROUND[00]	/* Round */\012SUB[ ]	/* Subtract */\012PUSHB[ ]	/* 1 value pushed */\01264 \012GT[ ]	/* GreaterThan */\012IF[ ]	/* If */\012SHPIX[ ]	/* ShiftZoneByPixel */\012SRP1[ ]	/* SetRefPoint1 */\012SHZ[1]	/* ShiftZoneByLastPoint */\012PUSHW[ ]	/* 2 values pushed */\01273 -64 \012SHPIX[ ]	/* ShiftZoneByPixel */\012EIF[ ]	/* EndIf */";
};
width = 511;
}
);
note = X;
unicode = 0058;
},
{
glyphname = Y;
layers = (
{
layerId = "466BAD2E-A4F2-4075-8033-B07AE50D6525";
paths = (
{
closed = 1;
nodes = (
"408.667 684 OFFCURVE",
"416.667 671 OFFCURVE",
"414 655 CURVE",
"400.667 632.333 OFFCURVE",
"382.667 604.667 OFFCURVE",
"360 572 CURVE SMOOTH",
"316.667 510 OFFCURVE",
"283.667 459.667 OFFCURVE",
"261 421 CURVE",
"261 421 LINE",
"261 420.333 OFFCURVE",
"260.667 419.667 OFFCURVE",
"260 419 CURVE",
"259 307 LINE SMOOTH",
"259 283 OFFCURVE",
"265.333 267 OFFCURVE",
"278 259 CURVE SMOOTH",
"286.667 253.667 OFFCURVE",
"304 250.667 OFFCURVE",
"330 250 CURVE",
"329 228 LINE",
"119 229 LINE",
"119 251 LINE",
"146.333 252.333 OFFCURVE",
"164 255.333 OFFCURVE",
"172 260 CURVE SMOOTH",
"184 267.333 OFFCURVE",
"190 283 OFFCURVE",
"190 307 CURVE SMOOTH",
"191 429 LINE",
"190 430 LINE",
"191 430 LINE",
"53 661 LINE SMOOTH",
"47 671 OFFCURVE",
"41 676.667 OFFCURVE",
"35 678 CURVE",
"29.667 680 OFFCURVE",
"22 678 OFFCURVE",
"12 672 CURVE",
"10 683 LINE",
"19.333 689.667 OFFCURVE",
"29 696.667 OFFCURVE",
"39 704 CURVE",
"51.667 712 OFFCURVE",
"62 716 OFFCURVE",
"70 716 CURVE SMOOTH",
"76.667 716 OFFCURVE",
"82.667 714.333 OFFCURVE",
"88 711 CURVE",
"106 683.667 OFFCURVE",
"123.333 655.667 OFFCURVE",
"140 627 CURVE SMOOTH",
"178 561.667 OFFCURVE",
"208 512.667 OFFCURVE",
"230 480 CURVE",
"317 607 LINE",
"320.333 613.667 OFFCURVE",
"332.667 633 OFFCURVE",
"354 665 CURVE SMOOTH",
"360.667 675 OFFCURVE",
"363.667 683 OFFCURVE",
"363 689 CURVE",
"357 698.333 OFFCURVE",
"351.667 704.333 OFFCURVE",
"347 707 CURVE",
"357 713 LINE",
"365.667 707.667 OFFCURVE",
"376.667 701.333 OFFCURVE",
"390 694 CURVE SMOOTH"
);
}
);
userData = {
assembly = "NPUSHB[ ]	/* 32 values pushed */\0121 50 50 64 51 48 44 43 27 26 23 21 10 2 48 44 43 40 36 34 33 28 27 26 20 5 3 16 35 1 20 70 \012SROUND[ ]	/* SuperRound */\012MDAP[1]	/* MoveDirectAbsPt */\012SHZ[1]	/* ShiftZoneByLastPoint */\012RTG[ ]	/* RoundToGrid */\012SVTCA[0]	/* SetFreedomAndProjectionVectorToAxis */\012MDAP[1]	/* MoveDirectAbsPt */\012MDAP[1]	/* MoveDirectAbsPt */\012SVTCA[1]	/* SetFreedomAndProjectionVectorToAxis */\012MDAP[0]	/* MoveDirectAbsPt */\012MDAP[0]	/* MoveDirectAbsPt */\012MDAP[0]	/* MoveDirectAbsPt */\012MDAP[0]	/* MoveDirectAbsPt */\012MDAP[0]	/* MoveDirectAbsPt */\012MDAP[0]	/* MoveDirectAbsPt */\012MDAP[0]	/* MoveDirectAbsPt */\012MDAP[0]	/* MoveDirectAbsPt */\012MDAP[0]	/* MoveDirectAbsPt */\012MDAP[0]	/* MoveDirectAbsPt */\012MDAP[0]	/* MoveDirectAbsPt */\012MDAP[0]	/* MoveDirectAbsPt */\012MDAP[0]	/* MoveDirectAbsPt */\012SVTCA[0]	/* SetFreedomAndProjectionVectorToAxis */\012MDAP[0]	/* MoveDirectAbsPt */\012MDAP[0]	/* MoveDirectAbsPt */\012MDAP[0]	/* MoveDirectAbsPt */\012MDAP[0]	/* MoveDirectAbsPt */\012MDAP[0]	/* MoveDirectAbsPt */\012MDAP[0]	/* MoveDirectAbsPt */\012MDAP[0]	/* MoveDirectAbsPt */\012MDAP[0]	/* MoveDirectAbsPt */\012IUP[1]	/* InterpolateUntPts */\012IUP[0]	/* InterpolateUntPts */\012SVTCA[1]	/* SetFreedomAndProjectionVectorToAxis */\012MD[0]	/* MeasureDistance */\012ROUND[00]	/* Round */\012PUSHW[ ]	/* 2 values pushed */\01220 50 \012MD[0]	/* MeasureDistance */\012ROUND[00]	/* Round */\012SUB[ ]	/* Subtract */\012PUSHB[ ]	/* 1 value pushed */\01264 \012GT[ ]	/* GreaterThan */\012IF[ ]	/* If */\012SHPIX[ ]	/* ShiftZoneByPixel */\012SRP1[ ]	/* SetRefPoint1 */\012SHZ[1]	/* ShiftZoneByLastPoint */\012PUSHW[ ]	/* 2 values pushed */\01250 -64 \012SHPIX[ ]	/* ShiftZoneByPixel */\012EIF[ ]	/* EndIf */";
};
width = 428;
}
);
note = Y;
unicode = 0059;
},
{
glyphname = Z;
layers = (
{
layerId = "466BAD2E-A4F2-4075-8033-B07AE50D6525";
paths = (
{
closed = 1;
nodes = (
"504 269 LINE",
"482 246.333 OFFCURVE",
"462 230.667 OFFCURVE",
"444 222 CURVE SMOOTH",
"400.667 201.333 OFFCURVE",
"356.667 192.333 OFFCURVE",
"312 195 CURVE SMOOTH",
"289.333 196.333 OFFCURVE",
"265.333 200 OFFCURVE",
"240 206 CURVE",
"148 232 LINE SMOOTH",
"131.333 236.667 OFFCURVE",
"112.333 239 OFFCURVE",
"91 239 CURVE SMOOTH",
"61 239 OFFCURVE",
"34 234 OFFCURVE",
"10 224 CURVE",
"30 253 LINE",
"29 253 LINE",
"320 669 LINE",
"167 670 LINE SMOOTH",
"115 670.667 OFFCURVE",
"80.667 641 OFFCURVE",
"64 581 CURVE",
"41 581 LINE",
"55 698 LINE",
"414 695 LINE",
"414 686 LINE",
"140 292 LINE",
"150 291.333 OFFCURVE",
"163.333 289.333 OFFCURVE",
"180 286 CURVE SMOOTH",
"191.333 284 OFFCURVE",
"216.333 273 OFFCURVE",
"255 253 CURVE SMOOTH",
"290.333 235 OFFCURVE",
"320.667 225.333 OFFCURVE",
"346 224 CURVE SMOOTH",
"405.333 220.667 OFFCURVE",
"453.667 238.667 OFFCURVE",
"491 278 CURVE"
);
}
);
userData = {
assembly = "NPUSHB[ ]	/* 30 values pushed */\0121 31 31 64 32 30 21 18 17 15 13 12 0 30 19 18 17 16 12 10 9 8 11 26 19 2 1 1 19 70 \012SROUND[ ]	/* SuperRound */\012MDAP[1]	/* MoveDirectAbsPt */\012SHZ[1]	/* ShiftZoneByLastPoint */\012RTG[ ]	/* RoundToGrid */\012SVTCA[0]	/* SetFreedomAndProjectionVectorToAxis */\012MIAP[1]	/* MoveIndirectAbsPt */\012ALIGNRP[ ]	/* AlignRelativePt */\012MDAP[1]	/* MoveDirectAbsPt */\012MDAP[1]	/* MoveDirectAbsPt */\012SVTCA[1]	/* SetFreedomAndProjectionVectorToAxis */\012MDAP[0]	/* MoveDirectAbsPt */\012MDAP[0]	/* MoveDirectAbsPt */\012MDAP[0]	/* MoveDirectAbsPt */\012MDAP[0]	/* MoveDirectAbsPt */\012MDAP[0]	/* MoveDirectAbsPt */\012MDAP[0]	/* MoveDirectAbsPt */\012MDAP[0]	/* MoveDirectAbsPt */\012MDAP[0]	/* MoveDirectAbsPt */\012MDAP[0]	/* MoveDirectAbsPt */\012SVTCA[0]	/* SetFreedomAndProjectionVectorToAxis */\012MDAP[0]	/* MoveDirectAbsPt */\012MDAP[0]	/* MoveDirectAbsPt */\012MDAP[0]	/* MoveDirectAbsPt */\012MDAP[0]	/* MoveDirectAbsPt */\012MDAP[0]	/* MoveDirectAbsPt */\012MDAP[0]	/* MoveDirectAbsPt */\012MDAP[0]	/* MoveDirectAbsPt */\012IUP[1]	/* InterpolateUntPts */\012IUP[0]	/* InterpolateUntPts */\012SVTCA[1]	/* SetFreedomAndProjectionVectorToAxis */\012MD[0]	/* MeasureDistance */\012ROUND[00]	/* Round */\012PUSHW[ ]	/* 2 values pushed */\01219 31 \012MD[0]	/* MeasureDistance */\012ROUND[00]	/* Round */\012SUB[ ]	/* Subtract */\012PUSHB[ ]	/* 1 value pushed */\01264 \012GT[ ]	/* GreaterThan */\012IF[ ]	/* If */\012SHPIX[ ]	/* ShiftZoneByPixel */\012SRP1[ ]	/* SetRefPoint1 */\012SHZ[1]	/* ShiftZoneByLastPoint */\012PUSHW[ ]	/* 2 values pushed */\01231 -64 \012SHPIX[ ]	/* ShiftZoneByPixel */\012EIF[ ]	/* EndIf */";
};
width = 514;
}
);
note = Z;
unicode = 005A;
},
{
glyphname = a;
layers = (
{
layerId = "466BAD2E-A4F2-4075-8033-B07AE50D6525";
paths = (
{
closed = 1;
nodes = (
"383 276 LINE",
"372.333 236 OFFCURVE",
"350 216.333 OFFCURVE",
"316 217 CURVE SMOOTH",
"288 217 OFFCURVE",
"269.333 229 OFFCURVE",
"260 253 CURVE",
"242.667 235 OFFCURVE",
"210.667 226 OFFCURVE",
"164 226 CURVE SMOOTH",
"73.333 226 OFFCURVE",
"9.667 296 OFFCURVE",
"11 388 CURVE SMOOTH",
"11 480 OFFCURVE",
"73.333 541 OFFCURVE",
"164 541 CURVE SMOOTH",
"206 541 OFFCURVE",
"237 529 OFFCURVE",
"257 505 CURVE",
"259 510.333 OFFCURVE",
"260.333 513.667 OFFCURVE",
"261 515 CURVE",
"266.333 531 OFFCURVE",
"275.667 540 OFFCURVE",
"289 542 CURVE",
"297.667 544 OFFCURVE",
"311.333 540.333 OFFCURVE",
"330 531 CURVE SMOOTH",
"338 527 OFFCURVE",
"344 523.667 OFFCURVE",
"348 521 CURVE",
"348 505 LINE",
"337 510 LINE",
"333.667 511.333 OFFCURVE",
"329.667 511.333 OFFCURVE",
"325 510 CURVE",
"320.333 508 OFFCURVE",
"318 505.333 OFFCURVE",
"318 502 CURVE SMOOTH",
"318 494.667 OFFCURVE",
"318 491 OFFCURVE",
"318 491 CURVE",
"317 284 LINE SMOOTH",
"317 263.333 OFFCURVE",
"323.333 252.667 OFFCURVE",
"336 252 CURVE SMOOTH",
"353.333 250.667 OFFCURVE",
"353.667 252.333 OFFCURVE",
"359 271 CURVE",
"360.333 273 OFFCURVE",
"361 274.667 OFFCURVE",
"361 276 CURVE"
);
},
{
closed = 1;
nodes = (
"228 255.333 OFFCURVE",
"254 269 OFFCURVE",
"254 297 CURVE SMOOTH",
"255 455 LINE",
"253 472.333 OFFCURVE",
"241.667 487 OFFCURVE",
"221 499 CURVE SMOOTH",
"203.667 509 OFFCURVE",
"185.333 514 OFFCURVE",
"166 514 CURVE SMOOTH",
"136 514.667 OFFCURVE",
"112.667 501 OFFCURVE",
"96 473 CURVE SMOOTH",
"81.333 449.667 OFFCURVE",
"74 422 OFFCURVE",
"74 390 CURVE SMOOTH",
"74 356.667 OFFCURVE",
"82.667 327 OFFCURVE",
"100 301 CURVE SMOOTH",
"119.333 271 OFFCURVE",
"144.667 256 OFFCURVE",
"176 256 CURVE SMOOTH"
);
}
);
userData = {
assembly = "NPUSHB[ ]	/* 35 values pushed */\0121 54 54 64 55 38 38 34 32 24 15 14 12 5 0 38 29 16 15 10 8 7 51 52 5 43 39 6 47 26 20 36 1 29 70 \012SROUND[ ]	/* SuperRound */\012MDAP[1]	/* MoveDirectAbsPt */\012SHZ[1]	/* ShiftZoneByLastPoint */\012RTG[ ]	/* RoundToGrid */\012SVTCA[0]	/* SetFreedomAndProjectionVectorToAxis */\012MDAP[1]	/* MoveDirectAbsPt */\012MDAP[1]	/* MoveDirectAbsPt */\012ALIGNRP[ ]	/* AlignRelativePt */\012MDAP[1]	/* MoveDirectAbsPt */\012MIRP[11101]	/* MoveIndirectRelPt */\012SVTCA[1]	/* SetFreedomAndProjectionVectorToAxis */\012MDAP[1]	/* MoveDirectAbsPt */\012MIRP[11101]	/* MoveIndirectRelPt */\012ALIGNRP[ ]	/* AlignRelativePt */\012MDAP[0]	/* MoveDirectAbsPt */\012MDAP[0]	/* MoveDirectAbsPt */\012MDAP[0]	/* MoveDirectAbsPt */\012MDAP[0]	/* MoveDirectAbsPt */\012MDAP[0]	/* MoveDirectAbsPt */\012MDAP[0]	/* MoveDirectAbsPt */\012MDAP[0]	/* MoveDirectAbsPt */\012SVTCA[0]	/* SetFreedomAndProjectionVectorToAxis */\012MDAP[0]	/* MoveDirectAbsPt */\012MDAP[0]	/* MoveDirectAbsPt */\012MDAP[0]	/* MoveDirectAbsPt */\012MDAP[0]	/* MoveDirectAbsPt */\012MDAP[0]	/* MoveDirectAbsPt */\012MDAP[0]	/* MoveDirectAbsPt */\012MDAP[0]	/* MoveDirectAbsPt */\012MDAP[0]	/* MoveDirectAbsPt */\012MDAP[0]	/* MoveDirectAbsPt */\012IUP[1]	/* InterpolateUntPts */\012IUP[0]	/* InterpolateUntPts */\012SVTCA[1]	/* SetFreedomAndProjectionVectorToAxis */\012MD[0]	/* MeasureDistance */\012ROUND[00]	/* Round */\012PUSHW[ ]	/* 2 values pushed */\01229 54 \012MD[0]	/* MeasureDistance */\012ROUND[00]	/* Round */\012SUB[ ]	/* Subtract */\012PUSHB[ ]	/* 1 value pushed */\01264 \012GT[ ]	/* GreaterThan */\012IF[ ]	/* If */\012SHPIX[ ]	/* ShiftZoneByPixel */\012SRP1[ ]	/* SetRefPoint1 */\012SHZ[1]	/* ShiftZoneByLastPoint */\012PUSHW[ ]	/* 2 values pushed */\01254 -64 \012SHPIX[ ]	/* ShiftZoneByPixel */\012EIF[ ]	/* EndIf */";
};
width = 393;
}
);
note = a;
unicode = 0061;
},
{
glyphname = b;
layers = (
{
layerId = "466BAD2E-A4F2-4075-8033-B07AE50D6525";
paths = (
{
closed = 1;
nodes = (
"319 406.667 OFFCURVE",
"322 390 OFFCURVE",
"322 374 CURVE SMOOTH",
"322 340.667 OFFCURVE",
"312 310.333 OFFCURVE",
"292 283 CURVE SMOOTH",
"260 238.333 OFFCURVE",
"217.333 216 OFFCURVE",
"164 216 CURVE SMOOTH",
"106 216 OFFCURVE",
"60.667 241.667 OFFCURVE",
"28 293 CURVE SMOOTH",
"16 312.333 OFFCURVE",
"10 335.333 OFFCURVE",
"10 362 CURVE SMOOTH",
"10 374.667 OFFCURVE",
"11.667 388.667 OFFCURVE",
"15 404 CURVE SMOOTH",
"43 534.667 OFFCURVE",
"61.667 621 OFFCURVE",
"71 663 CURVE",
"71 663 LINE",
"77 687.667 OFFCURVE",
"80.333 701.333 OFFCURVE",
"81 704 CURVE",
"82.333 710.667 OFFCURVE",
"71.667 718.333 OFFCURVE",
"65 717 CURVE SMOOTH",
"58.333 715.667 OFFCURVE",
"54.667 715 OFFCURVE",
"54 715 CURVE",
"57 730 LINE",
"65.667 732.667 OFFCURVE",
"72.333 734.333 OFFCURVE",
"77 735 CURVE",
"98.333 739.667 OFFCURVE",
"112.333 740.333 OFFCURVE",
"119 737 CURVE SMOOTH",
"138.333 727.667 OFFCURVE",
"146.333 716 OFFCURVE",
"143 702 CURVE SMOOTH",
"130 648 LINE",
"130 648 LINE",
"100.667 516.667 OFFCURVE",
"82.667 431.333 OFFCURVE",
"76 392 CURVE SMOOTH",
"74 380.667 OFFCURVE",
"73 369.333 OFFCURVE",
"73 358 CURVE SMOOTH",
"73 294 OFFCURVE",
"122.333 235 OFFCURVE",
"185 235 CURVE SMOOTH",
"211.667 235 OFFCURVE",
"232.667 247 OFFCURVE",
"248 271 CURVE SMOOTH",
"260.667 291.667 OFFCURVE",
"267 316 OFFCURVE",
"267 344 CURVE SMOOTH",
"267 364.667 OFFCURVE",
"263.667 385 OFFCURVE",
"257 405 CURVE SMOOTH",
"247.667 433 OFFCURVE",
"233.333 457.333 OFFCURVE",
"214 478 CURVE SMOOTH",
"191.333 502 OFFCURVE",
"166.667 514 OFFCURVE",
"140 514 CURVE SMOOTH",
"132.667 514 OFFCURVE",
"125.667 512.667 OFFCURVE",
"119 510 CURVE",
"118 510 LINE",
"121 526 LINE",
"120 526 LINE",
"134 530 OFFCURVE",
"148.667 532 OFFCURVE",
"164 532 CURVE SMOOTH",
"232 532 OFFCURVE",
"290.333 489.333 OFFCURVE",
"313 424 CURVE SMOOTH"
);
}
);
userData = {
assembly = "NPUSHB[ ]	/* 50 values pushed */\0121 58 58 64 59 56 44 43 28 27 8 7 6 5 3 56 48 44 43 41 36 29 28 27 7 6 5 6 7 9 28 27 29 25 25 29 23 5 16 10 6 20 31 52 38 36 3 1 48 70 \012SROUND[ ]	/* SuperRound */\012MDAP[1]	/* MoveDirectAbsPt */\012SHZ[1]	/* ShiftZoneByLastPoint */\012RTG[ ]	/* RoundToGrid */\012SVTCA[0]	/* SetFreedomAndProjectionVectorToAxis */\012MIAP[1]	/* MoveIndirectAbsPt */\012ALIGNRP[ ]	/* AlignRelativePt */\012MDAP[1]	/* MoveDirectAbsPt */\012MDAP[1]	/* MoveDirectAbsPt */\012MDAP[1]	/* MoveDirectAbsPt */\012MIRP[11101]	/* MoveIndirectRelPt */\012SVTCA[1]	/* SetFreedomAndProjectionVectorToAxis */\012MDAP[1]	/* MoveDirectAbsPt */\012MIRP[11101]	/* MoveIndirectRelPt */\012SDPVTL[1]	/* SetDualPVectorToLine */\012MDAP[0]	/* MoveDirectAbsPt */\012SFVTPV[ ]	/* SetFVectorToPVector */\012MDRP[00100]	/* MoveDirectRelPt */\012SFVTPV[ ]	/* SetFVectorToPVector */\012MDRP[00100]	/* MoveDirectRelPt */\012SFVTPV[ ]	/* SetFVectorToPVector */\012MDRP[00100]	/* MoveDirectRelPt */\012SFVTPV[ ]	/* SetFVectorToPVector */\012MIRP[11100]	/* MoveIndirectRelPt */\012SFVTPV[ ]	/* SetFVectorToPVector */\012MDRP[00100]	/* MoveDirectRelPt */\012SVTCA[1]	/* SetFreedomAndProjectionVectorToAxis */\012MDAP[0]	/* MoveDirectAbsPt */\012MDAP[0]	/* MoveDirectAbsPt */\012MDAP[0]	/* MoveDirectAbsPt */\012MDAP[0]	/* MoveDirectAbsPt */\012MDAP[0]	/* MoveDirectAbsPt */\012MDAP[0]	/* MoveDirectAbsPt */\012MDAP[0]	/* MoveDirectAbsPt */\012MDAP[0]	/* MoveDirectAbsPt */\012MDAP[0]	/* MoveDirectAbsPt */\012MDAP[0]	/* MoveDirectAbsPt */\012MDAP[0]	/* MoveDirectAbsPt */\012MDAP[0]	/* MoveDirectAbsPt */\012SVTCA[0]	/* SetFreedomAndProjectionVectorToAxis */\012MDAP[0]	/* MoveDirectAbsPt */\012MDAP[0]	/* MoveDirectAbsPt */\012MDAP[0]	/* MoveDirectAbsPt */\012MDAP[0]	/* MoveDirectAbsPt */\012MDAP[0]	/* MoveDirectAbsPt */\012MDAP[0]	/* MoveDirectAbsPt */\012MDAP[0]	/* MoveDirectAbsPt */\012MDAP[0]	/* MoveDirectAbsPt */\012MDAP[0]	/* MoveDirectAbsPt */\012IUP[1]	/* InterpolateUntPts */\012IUP[0]	/* InterpolateUntPts */\012SVTCA[1]	/* SetFreedomAndProjectionVectorToAxis */\012MD[0]	/* MeasureDistance */\012ROUND[00]	/* Round */\012PUSHW[ ]	/* 2 values pushed */\01248 58 \012MD[0]	/* MeasureDistance */\012ROUND[00]	/* Round */\012SUB[ ]	/* Subtract */\012PUSHB[ ]	/* 1 value pushed */\01264 \012GT[ ]	/* GreaterThan */\012IF[ ]	/* If */\012SHPIX[ ]	/* ShiftZoneByPixel */\012SRP1[ ]	/* SetRefPoint1 */\012SHZ[1]	/* ShiftZoneByLastPoint */\012PUSHW[ ]	/* 2 values pushed */\01258 -64 \012SHPIX[ ]	/* ShiftZoneByPixel */\012EIF[ ]	/* EndIf */";
};
width = 332;
}
);
note = b;
unicode = 0062;
},
{
glyphname = c;
layers = (
{
layerId = "466BAD2E-A4F2-4075-8033-B07AE50D6525";
paths = (
{
closed = 1;
nodes = (
"212.333 243.667 OFFCURVE",
"242.333 258 OFFCURVE",
"261 290 CURVE",
"282 288 LINE",
"251.333 241.333 OFFCURVE",
"210 218 OFFCURVE",
"158 218 CURVE SMOOTH",
"126 218 OFFCURVE",
"96.667 228.667 OFFCURVE",
"70 250 CURVE SMOOTH",
"30 282 OFFCURVE",
"10 324.667 OFFCURVE",
"10 378 CURVE SMOOTH",
"10 413.333 OFFCURVE",
"20.333 445.667 OFFCURVE",
"41 475 CURVE SMOOTH",
"71 517.667 OFFCURVE",
"110.667 539 OFFCURVE",
"160 539 CURVE SMOOTH",
"193.333 539 OFFCURVE",
"223.333 528.333 OFFCURVE",
"250 507 CURVE SMOOTH",
"266 493.667 OFFCURVE",
"274 480.667 OFFCURVE",
"274 468 CURVE SMOOTH",
"273.333 448.667 OFFCURVE",
"263 433.333 OFFCURVE",
"243 422 CURVE",
"226 443 LINE",
"232 449.667 OFFCURVE",
"235 457 OFFCURVE",
"235 465 CURVE SMOOTH",
"235 489 OFFCURVE",
"200.333 516.667 OFFCURVE",
"175 518 CURVE SMOOTH",
"145 519.333 OFFCURVE",
"120.333 503.667 OFFCURVE",
"101 471 CURVE SMOOTH",
"84.333 443.667 OFFCURVE",
"76 414 OFFCURVE",
"76 382 CURVE SMOOTH",
"76 348 OFFCURVE",
"83.333 318.667 OFFCURVE",
"98 294 CURVE SMOOTH",
"115.333 265.333 OFFCURVE",
"139.667 249.667 OFFCURVE",
"171 247 CURVE SMOOTH"
);
}
);
userData = {
assembly = "NPUSHB[ ]	/* 22 values pushed */\0121 33 33 64 34 30 31 14 30 24 16 13 11 4 0 6 8 20 28 1 24 70 \012SROUND[ ]	/* SuperRound */\012MDAP[1]	/* MoveDirectAbsPt */\012SHZ[1]	/* ShiftZoneByLastPoint */\012RTG[ ]	/* RoundToGrid */\012SVTCA[0]	/* SetFreedomAndProjectionVectorToAxis */\012MDAP[1]	/* MoveDirectAbsPt */\012MDAP[1]	/* MoveDirectAbsPt */\012MDAP[1]	/* MoveDirectAbsPt */\012MIRP[11101]	/* MoveIndirectRelPt */\012SVTCA[1]	/* SetFreedomAndProjectionVectorToAxis */\012MDAP[0]	/* MoveDirectAbsPt */\012MDAP[0]	/* MoveDirectAbsPt */\012MDAP[0]	/* MoveDirectAbsPt */\012MDAP[0]	/* MoveDirectAbsPt */\012MDAP[0]	/* MoveDirectAbsPt */\012MDAP[0]	/* MoveDirectAbsPt */\012SVTCA[0]	/* SetFreedomAndProjectionVectorToAxis */\012MDAP[0]	/* MoveDirectAbsPt */\012MDAP[0]	/* MoveDirectAbsPt */\012IUP[1]	/* InterpolateUntPts */\012IUP[0]	/* InterpolateUntPts */\012SVTCA[1]	/* SetFreedomAndProjectionVectorToAxis */\012MD[0]	/* MeasureDistance */\012ROUND[00]	/* Round */\012PUSHW[ ]	/* 2 values pushed */\01224 33 \012MD[0]	/* MeasureDistance */\012ROUND[00]	/* Round */\012SUB[ ]	/* Subtract */\012PUSHB[ ]	/* 1 value pushed */\01264 \012GT[ ]	/* GreaterThan */\012IF[ ]	/* If */\012SHPIX[ ]	/* ShiftZoneByPixel */\012SRP1[ ]	/* SetRefPoint1 */\012SHZ[1]	/* ShiftZoneByLastPoint */\012PUSHW[ ]	/* 2 values pushed */\01233 -64 \012SHPIX[ ]	/* ShiftZoneByPixel */\012EIF[ ]	/* EndIf */";
};
width = 292;
}
);
note = c;
unicode = 0063;
},
{
glyphname = d;
layers = (
{
layerId = "466BAD2E-A4F2-4075-8033-B07AE50D6525";
paths = (
{
closed = 1;
nodes = (
"328 402.667 OFFCURVE",
"329 393.333 OFFCURVE",
"329 384 CURVE SMOOTH",
"329 338.667 OFFCURVE",
"314.667 300 OFFCURVE",
"286 268 CURVE SMOOTH",
"256 234 OFFCURVE",
"218.667 217 OFFCURVE",
"174 217 CURVE SMOOTH",
"157.333 217 OFFCURVE",
"140.333 219.667 OFFCURVE",
"123 225 CURVE SMOOTH",
"47.667 247.667 OFFCURVE",
"10 293.333 OFFCURVE",
"10 362 CURVE SMOOTH",
"10 379.333 OFFCURVE",
"13 397.667 OFFCURVE",
"19 417 CURVE SMOOTH",
"43 495.667 OFFCURVE",
"91 535 OFFCURVE",
"163 535 CURVE SMOOTH",
"189 535 OFFCURVE",
"215.333 529.333 OFFCURVE",
"242 518 CURVE",
"214 655 LINE",
"201 708 LINE SMOOTH",
"197.667 721.333 OFFCURVE",
"206.333 732.667 OFFCURVE",
"227 742 CURVE SMOOTH",
"234.333 745.333 OFFCURVE",
"248.333 744.667 OFFCURVE",
"269 740 CURVE",
"279 737.333 OFFCURVE",
"285.333 735.667 OFFCURVE",
"288 735 CURVE",
"291 720 LINE",
"280 722 LINE SMOOTH",
"273.333 723.333 OFFCURVE",
"262.667 716.667 OFFCURVE",
"264 710 CURVE SMOOTH",
"326 412 LINE SMOOTH"
);
},
{
closed = 1;
nodes = (
"138.333 242.333 OFFCURVE",
"147 241 OFFCURVE",
"155 241 CURVE SMOOTH",
"202.333 241 OFFCURVE",
"236 276.333 OFFCURVE",
"256 347 CURVE SMOOTH",
"259.333 359 OFFCURVE",
"261 375.667 OFFCURVE",
"261 397 CURVE SMOOTH",
"261 462.333 OFFCURVE",
"243.667 499 OFFCURVE",
"209 507 CURVE SMOOTH",
"200.333 509 OFFCURVE",
"192.667 510 OFFCURVE",
"186 510 CURVE SMOOTH",
"138.667 510 OFFCURVE",
"103.333 471.667 OFFCURVE",
"80 395 CURVE SMOOTH",
"73.333 373 OFFCURVE",
"70 352.333 OFFCURVE",
"70 333 CURVE SMOOTH",
"70 285.667 OFFCURVE",
"89.667 256.333 OFFCURVE",
"129 245 CURVE SMOOTH"
);
}
);
userData = {
assembly = "NPUSHB[ ]	/* 27 values pushed */\0121 46 46 64 47 28 16 14 40 32 28 20 14 12 5 1 36 6 44 10 24 5 4 3 1 20 70 \012SROUND[ ]	/* SuperRound */\012MDAP[1]	/* MoveDirectAbsPt */\012SHZ[1]	/* ShiftZoneByLastPoint */\012RTG[ ]	/* RoundToGrid */\012SVTCA[0]	/* SetFreedomAndProjectionVectorToAxis */\012MIAP[1]	/* MoveIndirectAbsPt */\012ALIGNRP[ ]	/* AlignRelativePt */\012MDAP[1]	/* MoveDirectAbsPt */\012MDAP[1]	/* MoveDirectAbsPt */\012MDAP[1]	/* MoveDirectAbsPt */\012MIRP[11101]	/* MoveIndirectRelPt */\012SVTCA[1]	/* SetFreedomAndProjectionVectorToAxis */\012MDAP[0]	/* MoveDirectAbsPt */\012MDAP[0]	/* MoveDirectAbsPt */\012MDAP[0]	/* MoveDirectAbsPt */\012MDAP[0]	/* MoveDirectAbsPt */\012MDAP[0]	/* MoveDirectAbsPt */\012MDAP[0]	/* MoveDirectAbsPt */\012MDAP[0]	/* MoveDirectAbsPt */\012MDAP[0]	/* MoveDirectAbsPt */\012SVTCA[0]	/* SetFreedomAndProjectionVectorToAxis */\012MDAP[0]	/* MoveDirectAbsPt */\012MDAP[0]	/* MoveDirectAbsPt */\012IUP[1]	/* InterpolateUntPts */\012IUP[0]	/* InterpolateUntPts */\012SVTCA[1]	/* SetFreedomAndProjectionVectorToAxis */\012MD[0]	/* MeasureDistance */\012ROUND[00]	/* Round */\012PUSHW[ ]	/* 2 values pushed */\01220 46 \012MD[0]	/* MeasureDistance */\012ROUND[00]	/* Round */\012SUB[ ]	/* Subtract */\012PUSHB[ ]	/* 1 value pushed */\01264 \012GT[ ]	/* GreaterThan */\012IF[ ]	/* If */\012SHPIX[ ]	/* ShiftZoneByPixel */\012SRP1[ ]	/* SetRefPoint1 */\012SHZ[1]	/* ShiftZoneByLastPoint */\012PUSHW[ ]	/* 2 values pushed */\01246 -64 \012SHPIX[ ]	/* ShiftZoneByPixel */\012EIF[ ]	/* EndIf */";
};
width = 339;
}
);
note = d;
unicode = 0064;
},
{
glyphname = e;
layers = (
{
layerId = "466BAD2E-A4F2-4075-8033-B07AE50D6525";
paths = (
{
closed = 1;
nodes = (
"206 245 OFFCURVE",
"237.333 263.333 OFFCURVE",
"264 300 CURVE",
"285 289 LINE",
"254.333 240.333 OFFCURVE",
"212.333 216.333 OFFCURVE",
"159 217 CURVE SMOOTH",
"69.667 217 OFFCURVE",
"10 284.333 OFFCURVE",
"10 375 CURVE SMOOTH",
"11.333 467 OFFCURVE",
"68.333 539 OFFCURVE",
"159 539 CURVE SMOOTH",
"212.333 538.333 OFFCURVE",
"250 512 OFFCURVE",
"272 460 CURVE",
"218 460 LINE",
"209.333 494 OFFCURVE",
"188.333 511.333 OFFCURVE",
"155 512 CURVE SMOOTH",
"130.333 512 OFFCURVE",
"111 501.667 OFFCURVE",
"97 481 CURVE SMOOTH",
"85 463 OFFCURVE",
"78.667 441 OFFCURVE",
"78 415 CURVE",
"159 415 LINE",
"159 389 LINE",
"77 390 LINE",
"76.333 294 OFFCURVE",
"107.333 245.667 OFFCURVE",
"170 245 CURVE SMOOTH"
);
}
);
userData = {
assembly = "NPUSHB[ ]	/* 29 values pushed */\0121 25 25 64 26 22 23 12 11 22 17 12 5 4 3 2 2 3 7 0 5 4 7 9 14 20 1 17 70 \012SROUND[ ]	/* SuperRound */\012MDAP[1]	/* MoveDirectAbsPt */\012SHZ[1]	/* ShiftZoneByLastPoint */\012RTG[ ]	/* RoundToGrid */\012SVTCA[0]	/* SetFreedomAndProjectionVectorToAxis */\012MDAP[1]	/* MoveDirectAbsPt */\012MDAP[1]	/* MoveDirectAbsPt */\012MDAP[1]	/* MoveDirectAbsPt */\012MIRP[11101]	/* MoveIndirectRelPt */\012ALIGNRP[ ]	/* AlignRelativePt */\012MDAP[1]	/* MoveDirectAbsPt */\012MIRP[11101]	/* MoveIndirectRelPt */\012ALIGNRP[ ]	/* AlignRelativePt */\012SVTCA[1]	/* SetFreedomAndProjectionVectorToAxis */\012MDAP[0]	/* MoveDirectAbsPt */\012MDAP[0]	/* MoveDirectAbsPt */\012MDAP[0]	/* MoveDirectAbsPt */\012MDAP[0]	/* MoveDirectAbsPt */\012MDAP[0]	/* MoveDirectAbsPt */\012MDAP[0]	/* MoveDirectAbsPt */\012MDAP[0]	/* MoveDirectAbsPt */\012SVTCA[0]	/* SetFreedomAndProjectionVectorToAxis */\012MDAP[0]	/* MoveDirectAbsPt */\012MDAP[0]	/* MoveDirectAbsPt */\012MDAP[0]	/* MoveDirectAbsPt */\012IUP[1]	/* InterpolateUntPts */\012IUP[0]	/* InterpolateUntPts */\012SVTCA[1]	/* SetFreedomAndProjectionVectorToAxis */\012MD[0]	/* MeasureDistance */\012ROUND[00]	/* Round */\012PUSHW[ ]	/* 2 values pushed */\01217 25 \012MD[0]	/* MeasureDistance */\012ROUND[00]	/* Round */\012SUB[ ]	/* Subtract */\012PUSHB[ ]	/* 1 value pushed */\01264 \012GT[ ]	/* GreaterThan */\012IF[ ]	/* If */\012SHPIX[ ]	/* ShiftZoneByPixel */\012SRP1[ ]	/* SetRefPoint1 */\012SHZ[1]	/* ShiftZoneByLastPoint */\012PUSHW[ ]	/* 2 values pushed */\01225 -64 \012SHPIX[ ]	/* ShiftZoneByPixel */\012EIF[ ]	/* EndIf */";
};
width = 295;
}
);
note = e;
unicode = 0065;
},
{
glyphname = f;
layers = (
{
layerId = "466BAD2E-A4F2-4075-8033-B07AE50D6525";
paths = (
{
closed = 1;
nodes = (
"271 677.333 OFFCURVE",
"278.333 664.333 OFFCURVE",
"279 651 CURVE",
"278.333 633 OFFCURVE",
"269 617.667 OFFCURVE",
"251 605 CURVE",
"234 626 LINE",
"240 632.667 OFFCURVE",
"243 640 OFFCURVE",
"243 648 CURVE SMOOTH",
"243 672 OFFCURVE",
"212 701 OFFCURVE",
"188 701 CURVE SMOOTH",
"149.333 702.333 OFFCURVE",
"123 657 OFFCURVE",
"123 617 CURVE SMOOTH",
"123 532 LINE",
"189 531 LINE",
"188 509 LINE",
"122 510 LINE",
"121 308 LINE SMOOTH",
"121 262.667 OFFCURVE",
"137.333 250.667 OFFCURVE",
"184 248 CURVE",
"184 226 LINE",
"10 227 LINE",
"11 250 LINE",
"43 250.667 OFFCURVE",
"59.333 270 OFFCURVE",
"60 308 CURVE SMOOTH",
"62 532 LINE SMOOTH",
"62.667 578 OFFCURVE",
"65.667 612.333 OFFCURVE",
"71 635 CURVE SMOOTH",
"80.333 671.667 OFFCURVE",
"97.667 696.667 OFFCURVE",
"123 710 CURVE",
"123 710 LINE",
"139.667 718 OFFCURVE",
"157 722 OFFCURVE",
"175 722 CURVE SMOOTH",
"205.667 722 OFFCURVE",
"233 711.333 OFFCURVE",
"257 690 CURVE SMOOTH"
);
}
);
userData = {
assembly = "NPUSHB[ ]	/* 38 values pushed */\0121 36 36 64 37 34 32 5 4 34 31 29 23 22 21 18 15 14 13 5 4 22 9 21 7 26 19 20 6 12 15 2 14 26 3 1 13 70 \012SROUND[ ]	/* SuperRound */\012MDAP[1]	/* MoveDirectAbsPt */\012SHZ[1]	/* ShiftZoneByLastPoint */\012RTG[ ]	/* RoundToGrid */\012SVTCA[0]	/* SetFreedomAndProjectionVectorToAxis */\012MIAP[1]	/* MoveIndirectAbsPt */\012MDAP[1]	/* MoveDirectAbsPt */\012MDAP[1]	/* MoveDirectAbsPt */\012MDAP[1]	/* MoveDirectAbsPt */\012ALIGNRP[ ]	/* AlignRelativePt */\012MIRP[11101]	/* MoveIndirectRelPt */\012ALIGNRP[ ]	/* AlignRelativePt */\012SRP0[ ]	/* SetRefPoint0 */\012MIRP[11101]	/* MoveIndirectRelPt */\012ALIGNRP[ ]	/* AlignRelativePt */\012ALIGNRP[ ]	/* AlignRelativePt */\012SVTCA[1]	/* SetFreedomAndProjectionVectorToAxis */\012MDAP[0]	/* MoveDirectAbsPt */\012MDAP[0]	/* MoveDirectAbsPt */\012MDAP[0]	/* MoveDirectAbsPt */\012MDAP[0]	/* MoveDirectAbsPt */\012MDAP[0]	/* MoveDirectAbsPt */\012MDAP[0]	/* MoveDirectAbsPt */\012MDAP[0]	/* MoveDirectAbsPt */\012MDAP[0]	/* MoveDirectAbsPt */\012MDAP[0]	/* MoveDirectAbsPt */\012MDAP[0]	/* MoveDirectAbsPt */\012MDAP[0]	/* MoveDirectAbsPt */\012MDAP[0]	/* MoveDirectAbsPt */\012SVTCA[0]	/* SetFreedomAndProjectionVectorToAxis */\012MDAP[0]	/* MoveDirectAbsPt */\012MDAP[0]	/* MoveDirectAbsPt */\012MDAP[0]	/* MoveDirectAbsPt */\012IUP[1]	/* InterpolateUntPts */\012IUP[0]	/* InterpolateUntPts */\012SVTCA[1]	/* SetFreedomAndProjectionVectorToAxis */\012MD[0]	/* MeasureDistance */\012ROUND[00]	/* Round */\012PUSHW[ ]	/* 2 values pushed */\01213 36 \012MD[0]	/* MeasureDistance */\012ROUND[00]	/* Round */\012SUB[ ]	/* Subtract */\012PUSHB[ ]	/* 1 value pushed */\01264 \012GT[ ]	/* GreaterThan */\012IF[ ]	/* If */\012SHPIX[ ]	/* ShiftZoneByPixel */\012SRP1[ ]	/* SetRefPoint1 */\012SHZ[1]	/* ShiftZoneByLastPoint */\012PUSHW[ ]	/* 2 values pushed */\01236 -64 \012SHPIX[ ]	/* ShiftZoneByPixel */\012EIF[ ]	/* EndIf */";
};
width = 289;
}
);
note = f;
unicode = 0066;
},
{
glyphname = g;
layers = (
{
layerId = "466BAD2E-A4F2-4075-8033-B07AE50D6525";
paths = (
{
closed = 1;
nodes = (
"333.333 511.667 OFFCURVE",
"339 508.333 OFFCURVE",
"341 507 CURVE",
"341 492 LINE",
"331 497 LINE",
"324.333 498.333 OFFCURVE",
"312 494.667 OFFCURVE",
"312 488 CURVE SMOOTH",
"312 481.333 OFFCURVE",
"312 478 OFFCURVE",
"312 478 CURVE",
"310 183 LINE SMOOTH",
"310 147.667 OFFCURVE",
"309.333 125.667 OFFCURVE",
"308 117 CURVE SMOOTH",
"304.667 91 OFFCURVE",
"294.333 73 OFFCURVE",
"277 63 CURVE SMOOTH",
"250.333 47 OFFCURVE",
"230.333 35 OFFCURVE",
"217 27 CURVE",
"184.333 9 OFFCURVE",
"154.333 0 OFFCURVE",
"127 0 CURVE SMOOTH",
"103 0 OFFCURVE",
"37.333 57.333 OFFCURVE",
"44 80 CURVE SMOOTH",
"48 94.667 OFFCURVE",
"66.667 112 OFFCURVE",
"100 132 CURVE",
"108 120 LINE",
"93.333 114 OFFCURVE",
"87.667 105.667 OFFCURVE",
"91 95 CURVE",
"96.333 68.333 OFFCURVE",
"135 44 OFFCURVE",
"163 44 CURVE SMOOTH",
"179 44 OFFCURVE",
"199.333 53.667 OFFCURVE",
"224 73 CURVE",
"240.667 91.667 OFFCURVE",
"249 114.667 OFFCURVE",
"249 142 CURVE SMOOTH",
"249 238 LINE",
"232.333 224 OFFCURVE",
"202.667 217 OFFCURVE",
"160 217 CURVE SMOOTH",
"69.333 218.333 OFFCURVE",
"10 285 OFFCURVE",
"10 377 CURVE SMOOTH",
"10 466.333 OFFCURVE",
"70.667 527 OFFCURVE",
"160 527 CURVE SMOOTH",
"201.333 527 OFFCURVE",
"232 515.333 OFFCURVE",
"252 492 CURVE",
"255 502 LINE SMOOTH",
"259.667 516.667 OFFCURVE",
"269.333 525.333 OFFCURVE",
"284 528 CURVE SMOOTH",
"291.333 529.333 OFFCURVE",
"304.667 525.667 OFFCURVE",
"324 517 CURVE"
);
},
{
closed = 1;
nodes = (
"250 442 LINE",
"248 459.333 OFFCURVE",
"237 474 OFFCURVE",
"217 486 CURVE SMOOTH",
"199.667 496 OFFCURVE",
"181.333 501 OFFCURVE",
"162 501 CURVE SMOOTH",
"133.333 501 OFFCURVE",
"110.333 487 OFFCURVE",
"93 459 CURVE SMOOTH",
"79 435.667 OFFCURVE",
"72 408.667 OFFCURVE",
"72 378 CURVE SMOOTH",
"72 345.333 OFFCURVE",
"80.333 316.333 OFFCURVE",
"97 291 CURVE SMOOTH",
"116.333 261 OFFCURVE",
"141.333 246 OFFCURVE",
"172 246 CURVE SMOOTH",
"223.333 245.333 OFFCURVE",
"249 258.667 OFFCURVE",
"249 286 CURVE SMOOTH"
);
}
);
userData = {
assembly = "NPUSHB[ ]	/* 38 values pushed */\0121 64 64 64 65 46 46 45 26 15 5 47 46 42 40 28 25 23 10 63 49 16 3 15 5 55 13 7 20 51 6 59 7 2 31 1 10 70 \012SROUND[ ]	/* SuperRound */\012MDAP[1]	/* MoveDirectAbsPt */\012SHZ[1]	/* ShiftZoneByLastPoint */\012RTG[ ]	/* RoundToGrid */\012SVTCA[0]	/* SetFreedomAndProjectionVectorToAxis */\012MDAP[1]	/* MoveDirectAbsPt */\012MDAP[1]	/* MoveDirectAbsPt */\012ALIGNRP[ ]	/* AlignRelativePt */\012MDAP[1]	/* MoveDirectAbsPt */\012MIRP[11101]	/* MoveIndirectRelPt */\012MDAP[1]	/* MoveDirectAbsPt */\012MIRP[11101]	/* MoveIndirectRelPt */\012SVTCA[1]	/* SetFreedomAndProjectionVectorToAxis */\012MDAP[1]	/* MoveDirectAbsPt */\012MIRP[11101]	/* MoveIndirectRelPt */\012SLOOP[ ]	/* SetLoopVariable */\012ALIGNRP[ ]	/* AlignRelativePt */\012MDAP[0]	/* MoveDirectAbsPt */\012MDAP[0]	/* MoveDirectAbsPt */\012MDAP[0]	/* MoveDirectAbsPt */\012MDAP[0]	/* MoveDirectAbsPt */\012MDAP[0]	/* MoveDirectAbsPt */\012MDAP[0]	/* MoveDirectAbsPt */\012MDAP[0]	/* MoveDirectAbsPt */\012MDAP[0]	/* MoveDirectAbsPt */\012SVTCA[0]	/* SetFreedomAndProjectionVectorToAxis */\012MDAP[0]	/* MoveDirectAbsPt */\012MDAP[0]	/* MoveDirectAbsPt */\012MDAP[0]	/* MoveDirectAbsPt */\012MDAP[0]	/* MoveDirectAbsPt */\012MDAP[0]	/* MoveDirectAbsPt */\012IUP[1]	/* InterpolateUntPts */\012IUP[0]	/* InterpolateUntPts */\012SVTCA[1]	/* SetFreedomAndProjectionVectorToAxis */\012MD[0]	/* MeasureDistance */\012ROUND[00]	/* Round */\012PUSHW[ ]	/* 2 values pushed */\01210 64 \012MD[0]	/* MeasureDistance */\012ROUND[00]	/* Round */\012SUB[ ]	/* Subtract */\012PUSHB[ ]	/* 1 value pushed */\01264 \012GT[ ]	/* GreaterThan */\012IF[ ]	/* If */\012SHPIX[ ]	/* ShiftZoneByPixel */\012SRP1[ ]	/* SetRefPoint1 */\012SHZ[1]	/* ShiftZoneByLastPoint */\012PUSHW[ ]	/* 2 values pushed */\01264 -64 \012SHPIX[ ]	/* ShiftZoneByPixel */\012EIF[ ]	/* EndIf */";
};
width = 351;
}
);
note = g;
unicode = 0067;
},
{
glyphname = h;
layers = (
{
layerId = "466BAD2E-A4F2-4075-8033-B07AE50D6525";
paths = (
{
closed = 1;
nodes = (
"324 534.333 OFFCURVE",
"389 446 OFFCURVE",
"381 362 CURVE SMOOTH",
"371.667 267.333 OFFCURVE",
"317 205 OFFCURVE",
"217 175 CURVE",
"218 193 LINE",
"279.333 220.333 OFFCURVE",
"309.667 272 OFFCURVE",
"309 348 CURVE",
"309 384.667 OFFCURVE",
"302 417.333 OFFCURVE",
"288 446 CURVE SMOOTH",
"270.667 483.333 OFFCURVE",
"245.667 502.333 OFFCURVE",
"213 503 CURVE SMOOTH",
"174.333 503.667 OFFCURVE",
"144 488 OFFCURVE",
"122 456 CURVE",
"121 309 LINE SMOOTH",
"121 270.333 OFFCURVE",
"137.333 250.667 OFFCURVE",
"170 250 CURVE",
"169 227 LINE",
"10 228 LINE",
"10 251 LINE",
"43.333 251.667 OFFCURVE",
"60 271 OFFCURVE",
"60 309 CURVE SMOOTH",
"62 690 LINE",
"61.333 691.333 OFFCURVE",
"61 693 OFFCURVE",
"61 695 CURVE SMOOTH",
"61 703 OFFCURVE",
"56.667 705.333 OFFCURVE",
"48 702 CURVE SMOOTH",
"38 698 LINE",
"38 712 LINE",
"41.333 714 OFFCURVE",
"46.667 716.667 OFFCURVE",
"54 720 CURVE SMOOTH",
"70.667 728 OFFCURVE",
"83.333 731.333 OFFCURVE",
"92 730 CURVE",
"103.333 728.667 OFFCURVE",
"112.333 722.333 OFFCURVE",
"119 711 CURVE SMOOTH",
"123 704.333 OFFCURVE",
"124.667 694.667 OFFCURVE",
"124 682 CURVE",
"122 495 LINE",
"152.667 529.667 OFFCURVE",
"192 545 OFFCURVE",
"240 541 CURVE SMOOTH"
);
}
);
userData = {
assembly = "NPUSHB[ ]	/* 33 values pushed */\0121 40 40 64 41 37 28 22 2 0 37 35 23 21 20 17 12 11 3 26 2 25 5 32 7 35 13 3 12 3 1 20 70 \012SROUND[ ]	/* SuperRound */\012MDAP[1]	/* MoveDirectAbsPt */\012SHZ[1]	/* ShiftZoneByLastPoint */\012RTG[ ]	/* RoundToGrid */\012SVTCA[0]	/* SetFreedomAndProjectionVectorToAxis */\012MIAP[1]	/* MoveIndirectAbsPt */\012MIAP[1]	/* MoveIndirectAbsPt */\012MDAP[1]	/* MoveDirectAbsPt */\012MDAP[1]	/* MoveDirectAbsPt */\012SVTCA[1]	/* SetFreedomAndProjectionVectorToAxis */\012MDAP[1]	/* MoveDirectAbsPt */\012MIRP[11101]	/* MoveIndirectRelPt */\012ALIGNRP[ ]	/* AlignRelativePt */\012ALIGNRP[ ]	/* AlignRelativePt */\012MDAP[0]	/* MoveDirectAbsPt */\012MDAP[0]	/* MoveDirectAbsPt */\012MDAP[0]	/* MoveDirectAbsPt */\012MDAP[0]	/* MoveDirectAbsPt */\012MDAP[0]	/* MoveDirectAbsPt */\012MDAP[0]	/* MoveDirectAbsPt */\012MDAP[0]	/* MoveDirectAbsPt */\012MDAP[0]	/* MoveDirectAbsPt */\012MDAP[0]	/* MoveDirectAbsPt */\012SVTCA[0]	/* SetFreedomAndProjectionVectorToAxis */\012MDAP[0]	/* MoveDirectAbsPt */\012MDAP[0]	/* MoveDirectAbsPt */\012MDAP[0]	/* MoveDirectAbsPt */\012MDAP[0]	/* MoveDirectAbsPt */\012IUP[1]	/* InterpolateUntPts */\012IUP[0]	/* InterpolateUntPts */\012SVTCA[1]	/* SetFreedomAndProjectionVectorToAxis */\012MD[0]	/* MeasureDistance */\012ROUND[00]	/* Round */\012PUSHW[ ]	/* 2 values pushed */\01220 40 \012MD[0]	/* MeasureDistance */\012ROUND[00]	/* Round */\012SUB[ ]	/* Subtract */\012PUSHB[ ]	/* 1 value pushed */\01264 \012GT[ ]	/* GreaterThan */\012IF[ ]	/* If */\012SHPIX[ ]	/* ShiftZoneByPixel */\012SRP1[ ]	/* SetRefPoint1 */\012SHZ[1]	/* ShiftZoneByLastPoint */\012PUSHW[ ]	/* 2 values pushed */\01240 -64 \012SHPIX[ ]	/* ShiftZoneByPixel */\012EIF[ ]	/* EndIf */";
};
width = 397;
}
);
note = h;
unicode = 0068;
},
{
glyphname = i;
layers = (
{
layerId = "466BAD2E-A4F2-4075-8033-B07AE50D6525";
paths = (
{
closed = 1;
nodes = (
"99 593.667 OFFCURVE",
"79.667 582 OFFCURVE",
"67 582 CURVE SMOOTH",
"56.333 582 OFFCURVE",
"51.667 591.333 OFFCURVE",
"53 610 CURVE",
"50.333 626 OFFCURVE",
"55 636 OFFCURVE",
"67 640 CURVE SMOOTH",
"83.667 646 OFFCURVE",
"98.333 651.667 OFFCURVE",
"111 657 CURVE",
"115.667 658.333 OFFCURVE",
"119.667 659 OFFCURVE",
"123 659 CURVE SMOOTH",
"129 659 OFFCURVE",
"132 653.667 OFFCURVE",
"132 643 CURVE",
"131.333 629.667 OFFCURVE",
"129 621 OFFCURVE",
"125 617 CURVE"
);
},
{
closed = 1;
nodes = (
"121 269.333 OFFCURVE",
"137.333 249.667 OFFCURVE",
"170 249 CURVE",
"169 226 LINE",
"10 227 LINE",
"10 250 LINE",
"43.333 250 OFFCURVE",
"60 269.333 OFFCURVE",
"60 308 CURVE SMOOTH",
"60 498 LINE SMOOTH",
"60 502 OFFCURVE",
"60 504 OFFCURVE",
"60 504 CURVE",
"59.333 511.333 OFFCURVE",
"55 513.333 OFFCURVE",
"47 510 CURVE SMOOTH",
"37 506 LINE",
"37 520 LINE",
"42.333 523.333 OFFCURVE",
"47.667 526.333 OFFCURVE",
"53 529 CURVE",
"69.667 536.333 OFFCURVE",
"82 539.667 OFFCURVE",
"90 539 CURVE SMOOTH",
"112.667 537 OFFCURVE",
"123.333 520.667 OFFCURVE",
"122 490 CURVE",
"121 308 LINE SMOOTH"
);
}
);
userData = {
assembly = "NPUSHB[ ]	/* 26 values pushed */\0121 35 35 64 36 33 23 22 17 12 33 31 30 28 25 22 21 15 14 10 2 4 32 1 30 70 \012SROUND[ ]	/* SuperRound */\012MDAP[1]	/* MoveDirectAbsPt */\012SHZ[1]	/* ShiftZoneByLastPoint */\012RTG[ ]	/* RoundToGrid */\012SVTCA[0]	/* SetFreedomAndProjectionVectorToAxis */\012MDAP[1]	/* MoveDirectAbsPt */\012MDAP[1]	/* MoveDirectAbsPt */\012SVTCA[1]	/* SetFreedomAndProjectionVectorToAxis */\012MDAP[0]	/* MoveDirectAbsPt */\012MDAP[0]	/* MoveDirectAbsPt */\012MDAP[0]	/* MoveDirectAbsPt */\012MDAP[0]	/* MoveDirectAbsPt */\012MDAP[0]	/* MoveDirectAbsPt */\012MDAP[0]	/* MoveDirectAbsPt */\012MDAP[0]	/* MoveDirectAbsPt */\012MDAP[0]	/* MoveDirectAbsPt */\012MDAP[0]	/* MoveDirectAbsPt */\012MDAP[0]	/* MoveDirectAbsPt */\012MDAP[0]	/* MoveDirectAbsPt */\012SVTCA[0]	/* SetFreedomAndProjectionVectorToAxis */\012MDAP[0]	/* MoveDirectAbsPt */\012MDAP[0]	/* MoveDirectAbsPt */\012MDAP[0]	/* MoveDirectAbsPt */\012MDAP[0]	/* MoveDirectAbsPt */\012IUP[1]	/* InterpolateUntPts */\012IUP[0]	/* InterpolateUntPts */\012SVTCA[1]	/* SetFreedomAndProjectionVectorToAxis */\012MD[0]	/* MeasureDistance */\012ROUND[00]	/* Round */\012PUSHW[ ]	/* 2 values pushed */\01230 35 \012MD[0]	/* MeasureDistance */\012ROUND[00]	/* Round */\012SUB[ ]	/* Subtract */\012PUSHB[ ]	/* 1 value pushed */\01264 \012GT[ ]	/* GreaterThan */\012IF[ ]	/* If */\012SHPIX[ ]	/* ShiftZoneByPixel */\012SRP1[ ]	/* SetRefPoint1 */\012SHZ[1]	/* ShiftZoneByLastPoint */\012PUSHW[ ]	/* 2 values pushed */\01235 -64 \012SHPIX[ ]	/* ShiftZoneByPixel */\012EIF[ ]	/* EndIf */";
};
width = 180;
}
);
note = i;
unicode = 0069;
},
{
glyphname = j;
layers = (
{
layerId = "466BAD2E-A4F2-4075-8033-B07AE50D6525";
paths = (
{
closed = 1;
nodes = (
"173 225 LINE SMOOTH",
"172.333 174.333 OFFCURVE",
"172 148 OFFCURVE",
"172 146 CURVE",
"167.333 114.667 OFFCURVE",
"154.667 93.667 OFFCURVE",
"134 83 CURVE SMOOTH",
"77.333 53.667 OFFCURVE",
"36 34.667 OFFCURVE",
"10 26 CURVE",
"10 50 LINE",
"40 66.667 OFFCURVE",
"61.667 83.333 OFFCURVE",
"75 100 CURVE SMOOTH",
"91.667 120.667 OFFCURVE",
"100 146 OFFCURVE",
"100 176 CURVE SMOOTH",
"103 456 LINE SMOOTH",
"103 461.333 OFFCURVE",
"102.667 467 OFFCURVE",
"102 473 CURVE",
"102 492 LINE SMOOTH",
"102 496.667 OFFCURVE",
"102 499 OFFCURVE",
"102 499 CURVE",
"101.333 508.333 OFFCURVE",
"96 510.667 OFFCURVE",
"86 506 CURVE SMOOTH",
"80.667 503.333 OFFCURVE",
"76.667 501.667 OFFCURVE",
"74 501 CURVE",
"74 518 LINE",
"78.667 520.667 OFFCURVE",
"85.333 524 OFFCURVE",
"94 528 CURVE",
"114.667 536.667 OFFCURVE",
"129 540.667 OFFCURVE",
"137 540 CURVE SMOOTH",
"150.333 538.667 OFFCURVE",
"161 531 OFFCURVE",
"169 517 CURVE SMOOTH",
"173.667 509 OFFCURVE",
"175.667 497.667 OFFCURVE",
"175 483 CURVE"
);
},
{
closed = 1;
nodes = (
"145 596.667 OFFCURVE",
"125.667 585 OFFCURVE",
"113 585 CURVE SMOOTH",
"102.333 585 OFFCURVE",
"97.333 594.333 OFFCURVE",
"98 613 CURVE",
"96 629 OFFCURVE",
"100.667 639 OFFCURVE",
"112 643 CURVE SMOOTH",
"128 648.333 OFFCURVE",
"143 654 OFFCURVE",
"157 660 CURVE",
"161.667 661.333 OFFCURVE",
"165.667 662 OFFCURVE",
"169 662 CURVE SMOOTH",
"175 662 OFFCURVE",
"178 656.667 OFFCURVE",
"178 646 CURVE SMOOTH",
"178 632.667 OFFCURVE",
"175.667 624 OFFCURVE",
"171 620 CURVE SMOOTH"
);
}
);
userData = {
assembly = "NPUSHB[ ]	/* 25 values pushed */\0121 45 45 64 46 33 43 11 9 4 41 33 24 23 18 16 13 9 8 0 35 24 1 23 70 \012SROUND[ ]	/* SuperRound */\012MDAP[1]	/* MoveDirectAbsPt */\012SHZ[1]	/* ShiftZoneByLastPoint */\012RTG[ ]	/* RoundToGrid */\012SVTCA[0]	/* SetFreedomAndProjectionVectorToAxis */\012MDAP[1]	/* MoveDirectAbsPt */\012MDAP[1]	/* MoveDirectAbsPt */\012SVTCA[1]	/* SetFreedomAndProjectionVectorToAxis */\012MDAP[0]	/* MoveDirectAbsPt */\012MDAP[0]	/* MoveDirectAbsPt */\012MDAP[0]	/* MoveDirectAbsPt */\012MDAP[0]	/* MoveDirectAbsPt */\012MDAP[0]	/* MoveDirectAbsPt */\012MDAP[0]	/* MoveDirectAbsPt */\012MDAP[0]	/* MoveDirectAbsPt */\012MDAP[0]	/* MoveDirectAbsPt */\012MDAP[0]	/* MoveDirectAbsPt */\012MDAP[0]	/* MoveDirectAbsPt */\012SVTCA[0]	/* SetFreedomAndProjectionVectorToAxis */\012MDAP[0]	/* MoveDirectAbsPt */\012MDAP[0]	/* MoveDirectAbsPt */\012MDAP[0]	/* MoveDirectAbsPt */\012MDAP[0]	/* MoveDirectAbsPt */\012IUP[1]	/* InterpolateUntPts */\012IUP[0]	/* InterpolateUntPts */\012SVTCA[1]	/* SetFreedomAndProjectionVectorToAxis */\012MD[0]	/* MeasureDistance */\012ROUND[00]	/* Round */\012PUSHW[ ]	/* 2 values pushed */\01223 45 \012MD[0]	/* MeasureDistance */\012ROUND[00]	/* Round */\012SUB[ ]	/* Subtract */\012PUSHB[ ]	/* 1 value pushed */\01264 \012GT[ ]	/* GreaterThan */\012IF[ ]	/* If */\012SHPIX[ ]	/* ShiftZoneByPixel */\012SRP1[ ]	/* SetRefPoint1 */\012SHZ[1]	/* ShiftZoneByLastPoint */\012PUSHW[ ]	/* 2 values pushed */\01245 -64 \012SHPIX[ ]	/* ShiftZoneByPixel */\012EIF[ ]	/* EndIf */";
};
width = 188;
}
);
note = j;
unicode = 006A;
},
{
glyphname = k;
layers = (
{
layerId = "466BAD2E-A4F2-4075-8033-B07AE50D6525";
paths = (
{
closed = 1;
nodes = (
"352 268 LINE",
"324 240 LINE SMOOTH",
"311.333 227.333 OFFCURVE",
"302.667 221 OFFCURVE",
"298 221 CURVE SMOOTH",
"293.333 221 OFFCURVE",
"288.667 223.667 OFFCURVE",
"284 229 CURVE SMOOTH",
"257.333 261 OFFCURVE",
"238.333 284.667 OFFCURVE",
"227 300 CURVE SMOOTH",
"144 413 LINE",
"121 396 LINE",
"121 307 LINE SMOOTH",
"121 268.333 OFFCURVE",
"137.333 248.667 OFFCURVE",
"170 248 CURVE",
"169 226 LINE",
"10 227 LINE",
"10 249 LINE",
"43.333 249.667 OFFCURVE",
"60 269.333 OFFCURVE",
"60 308 CURVE SMOOTH",
"62 688 LINE",
"61.333 689.333 OFFCURVE",
"61 691.333 OFFCURVE",
"61 694 CURVE SMOOTH",
"61 701.333 OFFCURVE",
"56.667 703.333 OFFCURVE",
"48 700 CURVE SMOOTH",
"38 696 LINE",
"38 710 LINE",
"42.667 712.667 OFFCURVE",
"48 715.667 OFFCURVE",
"54 719 CURVE",
"71.333 726.333 OFFCURVE",
"84 729.667 OFFCURVE",
"92 729 CURVE SMOOTH",
"113.333 727 OFFCURVE",
"124 710.667 OFFCURVE",
"124 680 CURVE",
"123 680 LINE",
"122 450 LINE",
"210 510 LINE",
"226.667 524.667 OFFCURVE",
"243.333 532 OFFCURVE",
"260 532 CURVE SMOOTH",
"280 532 OFFCURVE",
"303 517.667 OFFCURVE",
"303 499 CURVE SMOOTH",
"303 487.667 OFFCURVE",
"297.667 478.667 OFFCURVE",
"287 472 CURVE SMOOTH",
"277.667 466 OFFCURVE",
"267.333 466 OFFCURVE",
"256 472 CURVE",
"260 474 OFFCURVE",
"262.333 477 OFFCURVE",
"263 481 CURVE SMOOTH",
"263.667 485 OFFCURVE",
"262.667 488 OFFCURVE",
"260 490 CURVE",
"256 492 OFFCURVE",
"251.667 491.333 OFFCURVE",
"247 488 CURVE SMOOTH",
"235 480 OFFCURVE",
"213.667 464.667 OFFCURVE",
"183 442 CURVE",
"298 282 LINE",
"307.333 274 OFFCURVE",
"315.333 270.667 OFFCURVE",
"322 272 CURVE",
"330.667 276 OFFCURVE",
"336.333 279.333 OFFCURVE",
"339 282 CURVE"
);
}
);
userData = {
assembly = "NPUSHB[ ]	/* 41 values pushed */\0121 56 56 64 57 55 47 42 25 24 23 20 15 13 9 2 0 55 46 45 43 41 40 37 32 31 25 23 17 13 11 5 27 52 33 3 32 3 1 40 70 \012SROUND[ ]	/* SuperRound */\012MDAP[1]	/* MoveDirectAbsPt */\012SHZ[1]	/* ShiftZoneByLastPoint */\012RTG[ ]	/* RoundToGrid */\012SVTCA[0]	/* SetFreedomAndProjectionVectorToAxis */\012MIAP[1]	/* MoveIndirectAbsPt */\012MIAP[1]	/* MoveIndirectAbsPt */\012MDAP[1]	/* MoveDirectAbsPt */\012MDAP[1]	/* MoveDirectAbsPt */\012SVTCA[1]	/* SetFreedomAndProjectionVectorToAxis */\012MDAP[0]	/* MoveDirectAbsPt */\012MDAP[0]	/* MoveDirectAbsPt */\012MDAP[0]	/* MoveDirectAbsPt */\012MDAP[0]	/* MoveDirectAbsPt */\012MDAP[0]	/* MoveDirectAbsPt */\012MDAP[0]	/* MoveDirectAbsPt */\012MDAP[0]	/* MoveDirectAbsPt */\012MDAP[0]	/* MoveDirectAbsPt */\012MDAP[0]	/* MoveDirectAbsPt */\012MDAP[0]	/* MoveDirectAbsPt */\012MDAP[0]	/* MoveDirectAbsPt */\012MDAP[0]	/* MoveDirectAbsPt */\012MDAP[0]	/* MoveDirectAbsPt */\012MDAP[0]	/* MoveDirectAbsPt */\012MDAP[0]	/* MoveDirectAbsPt */\012SVTCA[0]	/* SetFreedomAndProjectionVectorToAxis */\012MDAP[0]	/* MoveDirectAbsPt */\012MDAP[0]	/* MoveDirectAbsPt */\012MDAP[0]	/* MoveDirectAbsPt */\012MDAP[0]	/* MoveDirectAbsPt */\012MDAP[0]	/* MoveDirectAbsPt */\012MDAP[0]	/* MoveDirectAbsPt */\012MDAP[0]	/* MoveDirectAbsPt */\012MDAP[0]	/* MoveDirectAbsPt */\012MDAP[0]	/* MoveDirectAbsPt */\012MDAP[0]	/* MoveDirectAbsPt */\012MDAP[0]	/* MoveDirectAbsPt */\012IUP[1]	/* InterpolateUntPts */\012IUP[0]	/* InterpolateUntPts */\012SVTCA[1]	/* SetFreedomAndProjectionVectorToAxis */\012MD[0]	/* MeasureDistance */\012ROUND[00]	/* Round */\012PUSHW[ ]	/* 2 values pushed */\01240 56 \012MD[0]	/* MeasureDistance */\012ROUND[00]	/* Round */\012SUB[ ]	/* Subtract */\012PUSHB[ ]	/* 1 value pushed */\01264 \012GT[ ]	/* GreaterThan */\012IF[ ]	/* If */\012SHPIX[ ]	/* ShiftZoneByPixel */\012SRP1[ ]	/* SetRefPoint1 */\012SHZ[1]	/* ShiftZoneByLastPoint */\012PUSHW[ ]	/* 2 values pushed */\01256 -64 \012SHPIX[ ]	/* ShiftZoneByPixel */\012EIF[ ]	/* EndIf */";
};
width = 362;
}
);
note = k;
unicode = 006B;
},
{
glyphname = l;
layers = (
{
layerId = "466BAD2E-A4F2-4075-8033-B07AE50D6525";
paths = (
{
closed = 1;
nodes = (
"120 269.333 OFFCURVE",
"136.333 249.667 OFFCURVE",
"169 249 CURVE",
"169 226 LINE",
"10 227 LINE",
"10 250 LINE",
"42.667 250 OFFCURVE",
"59 269.333 OFFCURVE",
"59 308 CURVE SMOOTH",
"61 689 LINE SMOOTH",
"61 692.333 OFFCURVE",
"61 694 OFFCURVE",
"61 694 CURVE",
"60.333 702.667 OFFCURVE",
"56 705 OFFCURVE",
"48 701 CURVE",
"37 696 LINE",
"38 711 LINE",
"48.667 716.333 OFFCURVE",
"54 719 OFFCURVE",
"54 719 CURVE",
"70 727 OFFCURVE",
"82.333 730.333 OFFCURVE",
"91 729 CURVE SMOOTH",
"113.667 725.667 OFFCURVE",
"124.333 709.333 OFFCURVE",
"123 680 CURVE",
"120 308 LINE SMOOTH"
);
}
);
userData = {
assembly = "NPUSHB[ ]	/* 24 values pushed */\0121 21 21 64 22 18 19 18 17 16 13 11 8 1 0 3 18 9 3 8 3 1 16 70 \012SROUND[ ]	/* SuperRound */\012MDAP[1]	/* MoveDirectAbsPt */\012SHZ[1]	/* ShiftZoneByLastPoint */\012RTG[ ]	/* RoundToGrid */\012SVTCA[0]	/* SetFreedomAndProjectionVectorToAxis */\012MIAP[1]	/* MoveIndirectAbsPt */\012MIAP[1]	/* MoveIndirectAbsPt */\012MDAP[1]	/* MoveDirectAbsPt */\012MDAP[1]	/* MoveDirectAbsPt */\012SVTCA[1]	/* SetFreedomAndProjectionVectorToAxis */\012MDAP[0]	/* MoveDirectAbsPt */\012MDAP[0]	/* MoveDirectAbsPt */\012MDAP[0]	/* MoveDirectAbsPt */\012MDAP[0]	/* MoveDirectAbsPt */\012MDAP[0]	/* MoveDirectAbsPt */\012MDAP[0]	/* MoveDirectAbsPt */\012MDAP[0]	/* MoveDirectAbsPt */\012MDAP[0]	/* MoveDirectAbsPt */\012MDAP[0]	/* MoveDirectAbsPt */\012SVTCA[0]	/* SetFreedomAndProjectionVectorToAxis */\012IUP[1]	/* InterpolateUntPts */\012IUP[0]	/* InterpolateUntPts */\012SVTCA[1]	/* SetFreedomAndProjectionVectorToAxis */\012MD[0]	/* MeasureDistance */\012ROUND[00]	/* Round */\012PUSHW[ ]	/* 2 values pushed */\01216 21 \012MD[0]	/* MeasureDistance */\012ROUND[00]	/* Round */\012SUB[ ]	/* Subtract */\012PUSHB[ ]	/* 1 value pushed */\01264 \012GT[ ]	/* GreaterThan */\012IF[ ]	/* If */\012SHPIX[ ]	/* ShiftZoneByPixel */\012SRP1[ ]	/* SetRefPoint1 */\012SHZ[1]	/* ShiftZoneByLastPoint */\012PUSHW[ ]	/* 2 values pushed */\01221 -64 \012SHPIX[ ]	/* ShiftZoneByPixel */\012EIF[ ]	/* EndIf */";
};
width = 179;
}
);
note = l;
unicode = 006C;
},
{
glyphname = m;
layers = (
{
layerId = "466BAD2E-A4F2-4075-8033-B07AE50D6525";
paths = (
{
closed = 1;
nodes = (
"479.333 284 OFFCURVE",
"477 270 OFFCURVE",
"477 258 CURVE SMOOTH",
"477 228 OFFCURVE",
"489 210.667 OFFCURVE",
"513 206 CURVE",
"511 189 LINE",
"451.667 200.333 OFFCURVE",
"422 231.333 OFFCURVE",
"422 282 CURVE SMOOTH",
"422 298.667 OFFCURVE",
"425 315.333 OFFCURVE",
"431 332 CURVE SMOOTH",
"450.333 386.667 OFFCURVE",
"460 416.667 OFFCURVE",
"460 422 CURVE SMOOTH",
"460 466 OFFCURVE",
"417.333 501 OFFCURVE",
"372 501 CURVE SMOOTH",
"343.333 501 OFFCURVE",
"324.667 490.333 OFFCURVE",
"316 469 CURVE",
"315 307 LINE SMOOTH",
"315 269 OFFCURVE",
"331 249.333 OFFCURVE",
"363 248 CURVE",
"363 226 LINE",
"204 227 LINE",
"204 249 LINE",
"236.667 249.667 OFFCURVE",
"253 269.333 OFFCURVE",
"253 308 CURVE SMOOTH",
"254 431 LINE SMOOTH",
"254.667 478.333 OFFCURVE",
"233.667 502.333 OFFCURVE",
"191 503 CURVE SMOOTH",
"169 503 OFFCURVE",
"146 493.333 OFFCURVE",
"122 474 CURVE",
"120 308 LINE SMOOTH",
"119.333 269.333 OFFCURVE",
"135.667 249.667 OFFCURVE",
"169 249 CURVE",
"169 226 LINE",
"10 227 LINE",
"10 250 LINE",
"42.667 250.667 OFFCURVE",
"59 270 OFFCURVE",
"59 308 CURVE SMOOTH",
"60 508 LINE SMOOTH",
"60 512 OFFCURVE",
"60 514 OFFCURVE",
"60 514 CURVE",
"59.333 521.333 OFFCURVE",
"54.667 523.333 OFFCURVE",
"46 520 CURVE SMOOTH",
"36 516 LINE",
"36 530 LINE",
"43.333 534 OFFCURVE",
"49 537 OFFCURVE",
"53 539 CURVE",
"69.667 546.333 OFFCURVE",
"82 549.667 OFFCURVE",
"90 549 CURVE SMOOTH",
"112.667 547 OFFCURVE",
"123.333 530.667 OFFCURVE",
"122 500 CURVE",
"122 499 LINE",
"156 526.333 OFFCURVE",
"191 540 OFFCURVE",
"227 540 CURVE SMOOTH",
"265 539.333 OFFCURVE",
"291.333 524.667 OFFCURVE",
"306 496 CURVE",
"336.667 524 OFFCURVE",
"369.333 538 OFFCURVE",
"404 538 CURVE SMOOTH",
"456 537.333 OFFCURVE",
"491 507.333 OFFCURVE",
"509 448 CURVE SMOOTH",
"513 434.667 OFFCURVE",
"515 421.333 OFFCURVE",
"515 408 CURVE SMOOTH",
"515 394 OFFCURVE",
"511.333 376.667 OFFCURVE",
"504 356 CURVE SMOOTH",
"492.667 325.333 OFFCURVE",
"486 306.667 OFFCURVE",
"484 300 CURVE SMOOTH"
);
}
);
userData = {
assembly = "NPUSHB[ ]	/* 63 values pushed */\0121 65 65 64 66 4 45 32 23 22 14 12 10 8 63 61 40 31 30 27 25 22 21 4 41 11 43 36 15 14 3 35 5 58 54 5 48 49 48 4 58 44 43 4 33 32 46 45 4 58 43 33 30 3 46 6 38 51 17 60 1 30 70 \012SROUND[ ]	/* SuperRound */\012MDAP[1]	/* MoveDirectAbsPt */\012SHZ[1]	/* ShiftZoneByLastPoint */\012RTG[ ]	/* RoundToGrid */\012SVTCA[0]	/* SetFreedomAndProjectionVectorToAxis */\012MDAP[1]	/* MoveDirectAbsPt */\012MDAP[1]	/* MoveDirectAbsPt */\012MDAP[1]	/* MoveDirectAbsPt */\012ALIGNRP[ ]	/* AlignRelativePt */\012MIRP[11101]	/* MoveIndirectRelPt */\012SLOOP[ ]	/* SetLoopVariable */\012ALIGNRP[ ]	/* AlignRelativePt */\012SVTCA[1]	/* SetFreedomAndProjectionVectorToAxis */\012MDAP[1]	/* MoveDirectAbsPt */\012MIRP[11101]	/* MoveIndirectRelPt */\012ALIGNRP[ ]	/* AlignRelativePt */\012MDAP[1]	/* MoveDirectAbsPt */\012ALIGNRP[ ]	/* AlignRelativePt */\012MIRP[11101]	/* MoveIndirectRelPt */\012ALIGNRP[ ]	/* AlignRelativePt */\012SRP0[ ]	/* SetRefPoint0 */\012MIRP[11101]	/* MoveIndirectRelPt */\012ALIGNRP[ ]	/* AlignRelativePt */\012SRP0[ ]	/* SetRefPoint0 */\012MIRP[11101]	/* MoveIndirectRelPt */\012SRP0[ ]	/* SetRefPoint0 */\012MIRP[11101]	/* MoveIndirectRelPt */\012SLOOP[ ]	/* SetLoopVariable */\012ALIGNRP[ ]	/* AlignRelativePt */\012SRP0[ ]	/* SetRefPoint0 */\012MIRP[11101]	/* MoveIndirectRelPt */\012MDAP[0]	/* MoveDirectAbsPt */\012MDAP[0]	/* MoveDirectAbsPt */\012MDAP[0]	/* MoveDirectAbsPt */\012MDAP[0]	/* MoveDirectAbsPt */\012MDAP[0]	/* MoveDirectAbsPt */\012MDAP[0]	/* MoveDirectAbsPt */\012MDAP[0]	/* MoveDirectAbsPt */\012MDAP[0]	/* MoveDirectAbsPt */\012MDAP[0]	/* MoveDirectAbsPt */\012MDAP[0]	/* MoveDirectAbsPt */\012SVTCA[0]	/* SetFreedomAndProjectionVectorToAxis */\012MDAP[0]	/* MoveDirectAbsPt */\012MDAP[0]	/* MoveDirectAbsPt */\012MDAP[0]	/* MoveDirectAbsPt */\012MDAP[0]	/* MoveDirectAbsPt */\012MDAP[0]	/* MoveDirectAbsPt */\012MDAP[0]	/* MoveDirectAbsPt */\012MDAP[0]	/* MoveDirectAbsPt */\012MDAP[0]	/* MoveDirectAbsPt */\012IUP[1]	/* InterpolateUntPts */\012IUP[0]	/* InterpolateUntPts */\012SVTCA[1]	/* SetFreedomAndProjectionVectorToAxis */\012MD[0]	/* MeasureDistance */\012ROUND[00]	/* Round */\012PUSHW[ ]	/* 2 values pushed */\01230 65 \012MD[0]	/* MeasureDistance */\012ROUND[00]	/* Round */\012SUB[ ]	/* Subtract */\012PUSHB[ ]	/* 1 value pushed */\01264 \012GT[ ]	/* GreaterThan */\012IF[ ]	/* If */\012SHPIX[ ]	/* ShiftZoneByPixel */\012SRP1[ ]	/* SetRefPoint1 */\012SHZ[1]	/* ShiftZoneByLastPoint */\012PUSHW[ ]	/* 2 values pushed */\01265 -64 \012SHPIX[ ]	/* ShiftZoneByPixel */\012EIF[ ]	/* EndIf */";
};
width = 525;
}
);
note = m;
unicode = 006D;
},
{
glyphname = n;
layers = (
{
layerId = "466BAD2E-A4F2-4075-8033-B07AE50D6525";
paths = (
{
closed = 1;
nodes = (
"306.333 290 OFFCURVE",
"304 276 OFFCURVE",
"304 264 CURVE SMOOTH",
"304 234 OFFCURVE",
"317 216.667 OFFCURVE",
"343 212 CURVE",
"341 194 LINE",
"275.667 206 OFFCURVE",
"243 237.333 OFFCURVE",
"243 288 CURVE SMOOTH",
"243 304.667 OFFCURVE",
"246.333 321.333 OFFCURVE",
"253 338 CURVE SMOOTH",
"273.667 390.667 OFFCURVE",
"284 420.667 OFFCURVE",
"284 428 CURVE SMOOTH",
"284 473.333 OFFCURVE",
"234.667 507 OFFCURVE",
"188 507 CURVE SMOOTH",
"166.667 507 OFFCURVE",
"144.667 498.333 OFFCURVE",
"122 481 CURVE",
"120 308 LINE SMOOTH",
"119.333 269.333 OFFCURVE",
"135.667 249.667 OFFCURVE",
"169 249 CURVE",
"169 226 LINE",
"10 227 LINE",
"10 250 LINE",
"42.667 250.667 OFFCURVE",
"59 270 OFFCURVE",
"59 308 CURVE SMOOTH",
"60 505 LINE SMOOTH",
"60 509 OFFCURVE",
"60 511 OFFCURVE",
"60 511 CURVE",
"59.333 519 OFFCURVE",
"55 521 OFFCURVE",
"47 517 CURVE",
"36 513 LINE",
"37 528 LINE",
"47.667 533.333 OFFCURVE",
"53 536 OFFCURVE",
"53 536 CURVE",
"69.667 543.333 OFFCURVE",
"82 546.667 OFFCURVE",
"90 546 CURVE SMOOTH",
"111.333 544 OFFCURVE",
"122 531 OFFCURVE",
"122 507 CURVE",
"153.333 531.667 OFFCURVE",
"187 544 OFFCURVE",
"223 544 CURVE SMOOTH",
"280.333 543.333 OFFCURVE",
"318.667 513.333 OFFCURVE",
"338 454 CURVE SMOOTH",
"342.667 439.333 OFFCURVE",
"345 426 OFFCURVE",
"345 414 CURVE SMOOTH",
"345 400 OFFCURVE",
"341 382.667 OFFCURVE",
"333 362 CURVE SMOOTH",
"321 331.333 OFFCURVE",
"313.667 312.667 OFFCURVE",
"311 306 CURVE"
);
}
);
userData = {
assembly = "NPUSHB[ ]	/* 36 values pushed */\0121 47 47 64 48 4 33 27 18 17 10 45 43 26 25 22 20 17 4 36 5 30 31 30 4 40 28 27 4 40 8 12 42 1 25 70 \012SROUND[ ]	/* SuperRound */\012MDAP[1]	/* MoveDirectAbsPt */\012SHZ[1]	/* ShiftZoneByLastPoint */\012RTG[ ]	/* RoundToGrid */\012SVTCA[0]	/* SetFreedomAndProjectionVectorToAxis */\012MDAP[1]	/* MoveDirectAbsPt */\012MDAP[1]	/* MoveDirectAbsPt */\012ALIGNRP[ ]	/* AlignRelativePt */\012SVTCA[1]	/* SetFreedomAndProjectionVectorToAxis */\012MDAP[1]	/* MoveDirectAbsPt */\012MIRP[11101]	/* MoveIndirectRelPt */\012ALIGNRP[ ]	/* AlignRelativePt */\012SRP0[ ]	/* SetRefPoint0 */\012MIRP[11101]	/* MoveIndirectRelPt */\012ALIGNRP[ ]	/* AlignRelativePt */\012SRP0[ ]	/* SetRefPoint0 */\012MIRP[11101]	/* MoveIndirectRelPt */\012MDAP[0]	/* MoveDirectAbsPt */\012MDAP[0]	/* MoveDirectAbsPt */\012MDAP[0]	/* MoveDirectAbsPt */\012MDAP[0]	/* MoveDirectAbsPt */\012MDAP[0]	/* MoveDirectAbsPt */\012MDAP[0]	/* MoveDirectAbsPt */\012MDAP[0]	/* MoveDirectAbsPt */\012MDAP[0]	/* MoveDirectAbsPt */\012SVTCA[0]	/* SetFreedomAndProjectionVectorToAxis */\012MDAP[0]	/* MoveDirectAbsPt */\012MDAP[0]	/* MoveDirectAbsPt */\012MDAP[0]	/* MoveDirectAbsPt */\012MDAP[0]	/* MoveDirectAbsPt */\012MDAP[0]	/* MoveDirectAbsPt */\012IUP[1]	/* InterpolateUntPts */\012IUP[0]	/* InterpolateUntPts */\012SVTCA[1]	/* SetFreedomAndProjectionVectorToAxis */\012MD[0]	/* MeasureDistance */\012ROUND[00]	/* Round */\012PUSHW[ ]	/* 2 values pushed */\01225 47 \012MD[0]	/* MeasureDistance */\012ROUND[00]	/* Round */\012SUB[ ]	/* Subtract */\012PUSHB[ ]	/* 1 value pushed */\01264 \012GT[ ]	/* GreaterThan */\012IF[ ]	/* If */\012SHPIX[ ]	/* ShiftZoneByPixel */\012SRP1[ ]	/* SetRefPoint1 */\012SHZ[1]	/* ShiftZoneByLastPoint */\012PUSHW[ ]	/* 2 values pushed */\01247 -64 \012SHPIX[ ]	/* ShiftZoneByPixel */\012EIF[ ]	/* EndIf */";
};
width = 355;
}
);
note = n;
unicode = 006E;
},
{
glyphname = o;
layers = (
{
layerId = "466BAD2E-A4F2-4075-8033-B07AE50D6525";
paths = (
{
closed = 1;
nodes = (
"302 267 OFFCURVE",
"332 312.333 OFFCURVE",
"332 373 CURVE SMOOTH",
"332 399 OFFCURVE",
"325.667 424.667 OFFCURVE",
"313 450 CURVE SMOOTH",
"281 513.333 OFFCURVE",
"236 545 OFFCURVE",
"178 545 CURVE SMOOTH",
"152.667 545 OFFCURVE",
"126.667 538.333 OFFCURVE",
"100 525 CURVE SMOOTH",
"40 495 OFFCURVE",
"10 450 OFFCURVE",
"10 390 CURVE SMOOTH",
"10 362 OFFCURVE",
"17 334 OFFCURVE",
"31 306 CURVE SMOOTH",
"61 246 OFFCURVE",
"104.667 216 OFFCURVE",
"162 216 CURVE SMOOTH",
"187.333 216 OFFCURVE",
"214 223 OFFCURVE",
"242 237 CURVE SMOOTH"
);
},
{
closed = 1;
nodes = (
"123 511.667 OFFCURVE",
"136.333 515 OFFCURVE",
"149 515 CURVE SMOOTH",
"186.333 515 OFFCURVE",
"221.333 483 OFFCURVE",
"254 419 CURVE SMOOTH",
"270.667 386.333 OFFCURVE",
"279 357.333 OFFCURVE",
"279 332 CURVE SMOOTH",
"279 296.667 OFFCURVE",
"263.667 271.333 OFFCURVE",
"233 256 CURVE SMOOTH",
"219.667 249.333 OFFCURVE",
"207 246 OFFCURVE",
"195 246 CURVE SMOOTH",
"155.667 246 OFFCURVE",
"121.333 275 OFFCURVE",
"92 333 CURVE SMOOTH",
"72 373 OFFCURVE",
"62 405.667 OFFCURVE",
"62 431 CURVE SMOOTH",
"62 465 OFFCURVE",
"77.667 489.667 OFFCURVE",
"109 505 CURVE SMOOTH"
);
}
);
userData = {
assembly = "NPUSHB[ ]	/* 25 values pushed */\0121 32 32 64 33 14 18 4 6 26 4 14 22 7 2 30 7 10 10 2 2 1 1 6 70 \012SROUND[ ]	/* SuperRound */\012MDAP[1]	/* MoveDirectAbsPt */\012SHZ[1]	/* ShiftZoneByLastPoint */\012RTG[ ]	/* RoundToGrid */\012SVTCA[0]	/* SetFreedomAndProjectionVectorToAxis */\012MIAP[1]	/* MoveIndirectAbsPt */\012MIAP[1]	/* MoveIndirectAbsPt */\012SRP0[ ]	/* SetRefPoint0 */\012MIRP[11101]	/* MoveIndirectRelPt */\012SRP0[ ]	/* SetRefPoint0 */\012MIRP[11101]	/* MoveIndirectRelPt */\012SVTCA[1]	/* SetFreedomAndProjectionVectorToAxis */\012MDAP[1]	/* MoveDirectAbsPt */\012MIRP[11101]	/* MoveIndirectRelPt */\012MDAP[1]	/* MoveDirectAbsPt */\012MIRP[11101]	/* MoveIndirectRelPt */\012SVTCA[0]	/* SetFreedomAndProjectionVectorToAxis */\012IUP[1]	/* InterpolateUntPts */\012IUP[0]	/* InterpolateUntPts */\012SVTCA[1]	/* SetFreedomAndProjectionVectorToAxis */\012MD[0]	/* MeasureDistance */\012ROUND[00]	/* Round */\012PUSHW[ ]	/* 2 values pushed */\0126 32 \012MD[0]	/* MeasureDistance */\012ROUND[00]	/* Round */\012SUB[ ]	/* Subtract */\012PUSHB[ ]	/* 1 value pushed */\01264 \012GT[ ]	/* GreaterThan */\012IF[ ]	/* If */\012SHPIX[ ]	/* ShiftZoneByPixel */\012SRP1[ ]	/* SetRefPoint1 */\012SHZ[1]	/* ShiftZoneByLastPoint */\012PUSHW[ ]	/* 2 values pushed */\01232 -64 \012SHPIX[ ]	/* ShiftZoneByPixel */\012EIF[ ]	/* EndIf */";
};
width = 342;
}
);
note = o;
unicode = 006F;
},
{
glyphname = p;
layers = (
{
layerId = "466BAD2E-A4F2-4075-8033-B07AE50D6525";
paths = (
{
closed = 1;
nodes = (
"305.333 535.667 OFFCURVE",
"365 474.333 OFFCURVE",
"365 385 CURVE SMOOTH",
"363.667 294.333 OFFCURVE",
"302.333 225.667 OFFCURVE",
"213 227 CURVE SMOOTH",
"184.333 227 OFFCURVE",
"161 235.333 OFFCURVE",
"143 252 CURVE",
"141 267 LINE",
"153.667 259.667 OFFCURVE",
"173.667 256 OFFCURVE",
"201 256 CURVE SMOOTH",
"232.333 256 OFFCURVE",
"257.667 271 OFFCURVE",
"277 301 CURVE SMOOTH",
"294.333 327 OFFCURVE",
"303 356.333 OFFCURVE",
"303 389 CURVE SMOOTH",
"303 419 OFFCURVE",
"296 445.667 OFFCURVE",
"282 469 CURVE SMOOTH",
"265.333 496.333 OFFCURVE",
"242.667 510.333 OFFCURVE",
"214 511 CURVE SMOOTH",
"195.333 511 OFFCURVE",
"177 506 OFFCURVE",
"159 496 CURVE SMOOTH",
"139 484.667 OFFCURVE",
"127.667 470.333 OFFCURVE",
"125 453 CURVE",
"123 243 OFFCURVE",
"122 120 OFFCURVE",
"122 84 CURVE SMOOTH",
"122 74.667 OFFCURVE",
"117.667 65.667 OFFCURVE",
"109 57 CURVE SMOOTH",
"93 40.333 OFFCURVE",
"71.667 32 OFFCURVE",
"45 32 CURVE SMOOTH",
"11 32 LINE",
"10 54 LINE",
"35.333 60 OFFCURVE",
"51 68 OFFCURVE",
"57 78 CURVE SMOOTH",
"59 81.333 OFFCURVE",
"60 87 OFFCURVE",
"60 95 CURVE SMOOTH",
"64 489 LINE",
"64 500 LINE SMOOTH",
"64 506.667 OFFCURVE",
"51.667 510.333 OFFCURVE",
"45 509 CURVE",
"35 504 LINE",
"35 520 LINE",
"42.333 524 OFFCURVE",
"48 527 OFFCURVE",
"52 529 CURVE",
"71.333 537.667 OFFCURVE",
"85 541.333 OFFCURVE",
"93 540 CURVE SMOOTH",
"107 537.333 OFFCURVE",
"116.333 528.333 OFFCURVE",
"121 513 CURVE SMOOTH",
"124 503 LINE",
"144 525.667 OFFCURVE",
"174.667 537 OFFCURVE",
"216 537 CURVE SMOOTH"
);
}
);
userData = {
assembly = "NPUSHB[ ]	/* 37 values pushed */\0121 51 51 64 52 48 45 42 10 2 0 48 42 20 15 14 10 9 26 5 36 28 5 36 9 7 5 40 6 11 32 5 22 21 1 20 70 \012SROUND[ ]	/* SuperRound */\012MDAP[1]	/* MoveDirectAbsPt */\012SHZ[1]	/* ShiftZoneByLastPoint */\012RTG[ ]	/* RoundToGrid */\012SVTCA[0]	/* SetFreedomAndProjectionVectorToAxis */\012MDAP[1]	/* MoveDirectAbsPt */\012ALIGNRP[ ]	/* AlignRelativePt */\012MDAP[1]	/* MoveDirectAbsPt */\012MDAP[1]	/* MoveDirectAbsPt */\012ALIGNRP[ ]	/* AlignRelativePt */\012MIRP[11101]	/* MoveIndirectRelPt */\012SRP0[ ]	/* SetRefPoint0 */\012MIRP[11101]	/* MoveIndirectRelPt */\012SVTCA[1]	/* SetFreedomAndProjectionVectorToAxis */\012MDAP[1]	/* MoveDirectAbsPt */\012MIRP[11101]	/* MoveIndirectRelPt */\012SRP0[ ]	/* SetRefPoint0 */\012MIRP[11101]	/* MoveIndirectRelPt */\012MDAP[0]	/* MoveDirectAbsPt */\012MDAP[0]	/* MoveDirectAbsPt */\012MDAP[0]	/* MoveDirectAbsPt */\012MDAP[0]	/* MoveDirectAbsPt */\012MDAP[0]	/* MoveDirectAbsPt */\012MDAP[0]	/* MoveDirectAbsPt */\012MDAP[0]	/* MoveDirectAbsPt */\012SVTCA[0]	/* SetFreedomAndProjectionVectorToAxis */\012MDAP[0]	/* MoveDirectAbsPt */\012MDAP[0]	/* MoveDirectAbsPt */\012MDAP[0]	/* MoveDirectAbsPt */\012MDAP[0]	/* MoveDirectAbsPt */\012MDAP[0]	/* MoveDirectAbsPt */\012IUP[1]	/* InterpolateUntPts */\012IUP[0]	/* InterpolateUntPts */\012SVTCA[1]	/* SetFreedomAndProjectionVectorToAxis */\012MD[0]	/* MeasureDistance */\012ROUND[00]	/* Round */\012PUSHW[ ]	/* 2 values pushed */\01220 51 \012MD[0]	/* MeasureDistance */\012ROUND[00]	/* Round */\012SUB[ ]	/* Subtract */\012PUSHB[ ]	/* 1 value pushed */\01264 \012GT[ ]	/* GreaterThan */\012IF[ ]	/* If */\012SHPIX[ ]	/* ShiftZoneByPixel */\012SRP1[ ]	/* SetRefPoint1 */\012SHZ[1]	/* ShiftZoneByLastPoint */\012PUSHW[ ]	/* 2 values pushed */\01251 -64 \012SHPIX[ ]	/* ShiftZoneByPixel */\012EIF[ ]	/* EndIf */";
};
width = 375;
}
);
note = p;
unicode = 0070;
},
{
glyphname = q;
layers = (
{
layerId = "466BAD2E-A4F2-4075-8033-B07AE50D6525";
paths = (
{
closed = 1;
nodes = (
"317.333 72 OFFCURVE",
"322.667 67 OFFCURVE",
"330 63 CURVE SMOOTH",
"341.333 57 OFFCURVE",
"351.333 54 OFFCURVE",
"360 54 CURVE",
"359 31 LINE",
"353 31.667 OFFCURVE",
"341.667 32 OFFCURVE",
"325 32 CURVE SMOOTH",
"299 32 OFFCURVE",
"277.667 40.667 OFFCURVE",
"261 58 CURVE SMOOTH",
"252.333 67.333 OFFCURVE",
"248 76.333 OFFCURVE",
"248 85 CURVE SMOOTH",
"249 249 LINE",
"231.667 234.333 OFFCURVE",
"202 227.333 OFFCURVE",
"160 228 CURVE SMOOTH",
"69.333 229.333 OFFCURVE",
"9.667 297 OFFCURVE",
"11 389 CURVE SMOOTH",
"12.333 479.667 OFFCURVE",
"72.667 539.333 OFFCURVE",
"162 538 CURVE SMOOTH",
"203.333 537.333 OFFCURVE",
"233.667 525.333 OFFCURVE",
"253 502 CURVE",
"257 512 LINE SMOOTH",
"263 527.333 OFFCURVE",
"272.333 536.333 OFFCURVE",
"285 539 CURVE",
"293.667 540.333 OFFCURVE",
"307.333 536.333 OFFCURVE",
"326 527 CURVE SMOOTH",
"334.667 522.333 OFFCURVE",
"340.333 519 OFFCURVE",
"343 517 CURVE",
"343 502 LINE",
"332 507 LINE",
"328 508.333 OFFCURVE",
"324 508 OFFCURVE",
"320 506 CURVE",
"314.667 498 OFFCURVE",
"312.333 492 OFFCURVE",
"313 488 CURVE",
"311 284 LINE",
"311 284 OFFCURVE",
"311 282.667 OFFCURVE",
"311 280 CURVE SMOOTH",
"310 220 LINE",
"311 220 LINE",
"310 95 LINE SMOOTH",
"310 87 OFFCURVE",
"311.333 81.333 OFFCURVE",
"314 78 CURVE"
);
},
{
closed = 1;
nodes = (
"251 452 LINE",
"249 469.333 OFFCURVE",
"238 484 OFFCURVE",
"218 496 CURVE SMOOTH",
"200.667 506.667 OFFCURVE",
"182.667 512 OFFCURVE",
"164 512 CURVE SMOOTH",
"135.333 512.667 OFFCURVE",
"112.333 499 OFFCURVE",
"95 471 CURVE SMOOTH",
"79.667 447 OFFCURVE",
"72 419.667 OFFCURVE",
"72 389 CURVE SMOOTH",
"72 357 OFFCURVE",
"80.667 328 OFFCURVE",
"98 302 CURVE SMOOTH",
"117.333 272.667 OFFCURVE",
"142 257.667 OFFCURVE",
"172 257 CURVE SMOOTH",
"222.667 256.333 OFFCURVE",
"248.333 269.667 OFFCURVE",
"249 297 CURVE SMOOTH"
);
}
);
userData = {
assembly = "NPUSHB[ ]	/* 39 values pushed */\0121 58 58 64 59 39 31 29 21 13 12 39 26 14 13 7 5 4 3 2 57 43 32 3 31 5 49 45 6 53 23 18 38 4 3 1 1 26 70 \012SROUND[ ]	/* SuperRound */\012MDAP[1]	/* MoveDirectAbsPt */\012SHZ[1]	/* ShiftZoneByLastPoint */\012RTG[ ]	/* RoundToGrid */\012SVTCA[0]	/* SetFreedomAndProjectionVectorToAxis */\012MIAP[1]	/* MoveIndirectAbsPt */\012ALIGNRP[ ]	/* AlignRelativePt */\012MDAP[1]	/* MoveDirectAbsPt */\012MDAP[1]	/* MoveDirectAbsPt */\012ALIGNRP[ ]	/* AlignRelativePt */\012MDAP[1]	/* MoveDirectAbsPt */\012MIRP[11101]	/* MoveIndirectRelPt */\012SVTCA[1]	/* SetFreedomAndProjectionVectorToAxis */\012MDAP[1]	/* MoveDirectAbsPt */\012MIRP[11101]	/* MoveIndirectRelPt */\012SLOOP[ ]	/* SetLoopVariable */\012ALIGNRP[ ]	/* AlignRelativePt */\012MDAP[0]	/* MoveDirectAbsPt */\012MDAP[0]	/* MoveDirectAbsPt */\012MDAP[0]	/* MoveDirectAbsPt */\012MDAP[0]	/* MoveDirectAbsPt */\012MDAP[0]	/* MoveDirectAbsPt */\012MDAP[0]	/* MoveDirectAbsPt */\012MDAP[0]	/* MoveDirectAbsPt */\012MDAP[0]	/* MoveDirectAbsPt */\012MDAP[0]	/* MoveDirectAbsPt */\012SVTCA[0]	/* SetFreedomAndProjectionVectorToAxis */\012MDAP[0]	/* MoveDirectAbsPt */\012MDAP[0]	/* MoveDirectAbsPt */\012MDAP[0]	/* MoveDirectAbsPt */\012MDAP[0]	/* MoveDirectAbsPt */\012MDAP[0]	/* MoveDirectAbsPt */\012IUP[1]	/* InterpolateUntPts */\012IUP[0]	/* InterpolateUntPts */\012SVTCA[1]	/* SetFreedomAndProjectionVectorToAxis */\012MD[0]	/* MeasureDistance */\012ROUND[00]	/* Round */\012PUSHW[ ]	/* 2 values pushed */\01226 58 \012MD[0]	/* MeasureDistance */\012ROUND[00]	/* Round */\012SUB[ ]	/* Subtract */\012PUSHB[ ]	/* 1 value pushed */\01264 \012GT[ ]	/* GreaterThan */\012IF[ ]	/* If */\012SHPIX[ ]	/* ShiftZoneByPixel */\012SRP1[ ]	/* SetRefPoint1 */\012SHZ[1]	/* ShiftZoneByLastPoint */\012PUSHW[ ]	/* 2 values pushed */\01258 -64 \012SHPIX[ ]	/* ShiftZoneByPixel */\012EIF[ ]	/* EndIf */";
};
width = 370;
}
);
note = q;
unicode = 0071;
},
{
glyphname = r;
layers = (
{
layerId = "466BAD2E-A4F2-4075-8033-B07AE50D6525";
paths = (
{
closed = 1;
nodes = (
"258.667 492.667 OFFCURVE",
"263 484 OFFCURVE",
"263 476 CURVE SMOOTH",
"263 460 OFFCURVE",
"250 446.333 OFFCURVE",
"224 435 CURVE",
"214 450 LINE",
"222 456 OFFCURVE",
"226 463.667 OFFCURVE",
"226 473 CURVE SMOOTH",
"226 498.333 OFFCURVE",
"211 511.333 OFFCURVE",
"181 512 CURVE SMOOTH",
"161.667 512.667 OFFCURVE",
"146.667 504.333 OFFCURVE",
"136 487 CURVE",
"126 472.333 OFFCURVE",
"121 455 OFFCURVE",
"121 435 CURVE SMOOTH",
"120 307 LINE SMOOTH",
"120 268.333 OFFCURVE",
"136.333 248.667 OFFCURVE",
"169 248 CURVE",
"169 225 LINE",
"10 226 LINE",
"10 249 LINE",
"42.667 249.667 OFFCURVE",
"59 269 OFFCURVE",
"59 307 CURVE SMOOTH",
"60 504 LINE SMOOTH",
"60 506 OFFCURVE",
"59.667 508 OFFCURVE",
"59 510 CURVE",
"59 517.333 OFFCURVE",
"54.667 519.333 OFFCURVE",
"46 516 CURVE SMOOTH",
"36 512 LINE",
"36 526 LINE",
"40.667 528.667 OFFCURVE",
"46 531.667 OFFCURVE",
"52 535 CURVE",
"68.667 542.333 OFFCURVE",
"81.333 545.667 OFFCURVE",
"90 545 CURVE SMOOTH",
"102 543.667 OFFCURVE",
"111.333 536.333 OFFCURVE",
"118 523 CURVE",
"138.667 533 OFFCURVE",
"158 538 OFFCURVE",
"176 538 CURVE SMOOTH",
"202 538 OFFCURVE",
"226.667 526 OFFCURVE",
"250 502 CURVE SMOOTH"
);
}
);
userData = {
assembly = "NPUSHB[ ]	/* 28 values pushed */\0121 38 38 64 39 36 34 29 12 11 4 2 36 33 31 24 22 21 20 19 16 11 10 6 21 1 19 70 \012SROUND[ ]	/* SuperRound */\012MDAP[1]	/* MoveDirectAbsPt */\012SHZ[1]	/* ShiftZoneByLastPoint */\012RTG[ ]	/* RoundToGrid */\012SVTCA[0]	/* SetFreedomAndProjectionVectorToAxis */\012MDAP[1]	/* MoveDirectAbsPt */\012MDAP[1]	/* MoveDirectAbsPt */\012SVTCA[1]	/* SetFreedomAndProjectionVectorToAxis */\012MDAP[0]	/* MoveDirectAbsPt */\012MDAP[0]	/* MoveDirectAbsPt */\012MDAP[0]	/* MoveDirectAbsPt */\012MDAP[0]	/* MoveDirectAbsPt */\012MDAP[0]	/* MoveDirectAbsPt */\012MDAP[0]	/* MoveDirectAbsPt */\012MDAP[0]	/* MoveDirectAbsPt */\012MDAP[0]	/* MoveDirectAbsPt */\012MDAP[0]	/* MoveDirectAbsPt */\012MDAP[0]	/* MoveDirectAbsPt */\012MDAP[0]	/* MoveDirectAbsPt */\012SVTCA[0]	/* SetFreedomAndProjectionVectorToAxis */\012MDAP[0]	/* MoveDirectAbsPt */\012MDAP[0]	/* MoveDirectAbsPt */\012MDAP[0]	/* MoveDirectAbsPt */\012MDAP[0]	/* MoveDirectAbsPt */\012MDAP[0]	/* MoveDirectAbsPt */\012MDAP[0]	/* MoveDirectAbsPt */\012IUP[1]	/* InterpolateUntPts */\012IUP[0]	/* InterpolateUntPts */\012SVTCA[1]	/* SetFreedomAndProjectionVectorToAxis */\012MD[0]	/* MeasureDistance */\012ROUND[00]	/* Round */\012PUSHW[ ]	/* 2 values pushed */\01219 38 \012MD[0]	/* MeasureDistance */\012ROUND[00]	/* Round */\012SUB[ ]	/* Subtract */\012PUSHB[ ]	/* 1 value pushed */\01264 \012GT[ ]	/* GreaterThan */\012IF[ ]	/* If */\012SHPIX[ ]	/* ShiftZoneByPixel */\012SRP1[ ]	/* SetRefPoint1 */\012SHZ[1]	/* ShiftZoneByLastPoint */\012PUSHW[ ]	/* 2 values pushed */\01238 -64 \012SHPIX[ ]	/* ShiftZoneByPixel */\012EIF[ ]	/* EndIf */";
};
width = 273;
}
);
note = r;
unicode = 0072;
},
{
glyphname = s;
layers = (
{
layerId = "466BAD2E-A4F2-4075-8033-B07AE50D6525";
paths = (
{
closed = 1;
nodes = (
"63 454 OFFCURVE",
"78.333 436.667 OFFCURVE",
"109 418 CURVE",
"132.333 406 OFFCURVE",
"155.333 394 OFFCURVE",
"178 382 CURVE",
"204.667 362.667 OFFCURVE",
"218 338.333 OFFCURVE",
"218 309 CURVE SMOOTH",
"218 254.333 OFFCURVE",
"173 216 OFFCURVE",
"117 216 CURVE SMOOTH",
"79.667 216.667 OFFCURVE",
"51.333 228 OFFCURVE",
"32 250 CURVE SMOOTH",
"17.333 266.667 OFFCURVE",
"11 279.667 OFFCURVE",
"13 289 CURVE SMOOTH",
"14.333 295 OFFCURVE",
"20 299.667 OFFCURVE",
"30 303 CURVE",
"34.667 304.333 OFFCURVE",
"42.333 305.667 OFFCURVE",
"53 307 CURVE",
"61 300 LINE",
"49.667 297.333 OFFCURVE",
"46.333 291 OFFCURVE",
"51 281 CURVE",
"53 277.667 OFFCURVE",
"55 274.667 OFFCURVE",
"57 272 CURVE",
"73.667 254 OFFCURVE",
"94.333 244.667 OFFCURVE",
"119 244 CURVE SMOOTH",
"147 244 OFFCURVE",
"171 262.333 OFFCURVE",
"171 289 CURVE SMOOTH",
"171 307.667 OFFCURVE",
"156 326.667 OFFCURVE",
"126 346 CURVE SMOOTH",
"124 347.333 OFFCURVE",
"100.667 359.667 OFFCURVE",
"56 383 CURVE",
"28.667 402.333 OFFCURVE",
"15.333 425.667 OFFCURVE",
"16 453 CURVE SMOOTH",
"16 503.667 OFFCURVE",
"49.333 538 OFFCURVE",
"100 538 CURVE SMOOTH",
"131.333 538 OFFCURVE",
"156.333 527.667 OFFCURVE",
"175 507 CURVE SMOOTH",
"189 491.667 OFFCURVE",
"195.333 480 OFFCURVE",
"194 472 CURVE",
"192.667 466 OFFCURVE",
"187 461.333 OFFCURVE",
"177 458 CURVE",
"171.667 456.667 OFFCURVE",
"163.667 455.333 OFFCURVE",
"153 454 CURVE",
"146 461 LINE",
"154 463 LINE",
"159.333 465 OFFCURVE",
"160 470.667 OFFCURVE",
"156 480 CURVE SMOOTH",
"147.333 500.667 OFFCURVE",
"130.333 511 OFFCURVE",
"105 511 CURVE SMOOTH",
"77 511.667 OFFCURVE",
"63 498 OFFCURVE",
"63 470 CURVE SMOOTH"
);
}
);
userData = {
assembly = "NPUSHB[ ]	/* 26 values pushed */\0121 52 52 64 53 46 35 8 46 39 34 32 25 19 12 7 4 0 28 6 2 16 43 1 39 70 \012SROUND[ ]	/* SuperRound */\012MDAP[1]	/* MoveDirectAbsPt */\012SHZ[1]	/* ShiftZoneByLastPoint */\012RTG[ ]	/* RoundToGrid */\012SVTCA[0]	/* SetFreedomAndProjectionVectorToAxis */\012MDAP[1]	/* MoveDirectAbsPt */\012MDAP[1]	/* MoveDirectAbsPt */\012MDAP[1]	/* MoveDirectAbsPt */\012MIRP[11101]	/* MoveIndirectRelPt */\012SVTCA[1]	/* SetFreedomAndProjectionVectorToAxis */\012MDAP[0]	/* MoveDirectAbsPt */\012MDAP[0]	/* MoveDirectAbsPt */\012MDAP[0]	/* MoveDirectAbsPt */\012MDAP[0]	/* MoveDirectAbsPt */\012MDAP[0]	/* MoveDirectAbsPt */\012MDAP[0]	/* MoveDirectAbsPt */\012MDAP[0]	/* MoveDirectAbsPt */\012MDAP[0]	/* MoveDirectAbsPt */\012MDAP[0]	/* MoveDirectAbsPt */\012MDAP[0]	/* MoveDirectAbsPt */\012SVTCA[0]	/* SetFreedomAndProjectionVectorToAxis */\012MDAP[0]	/* MoveDirectAbsPt */\012MDAP[0]	/* MoveDirectAbsPt */\012IUP[1]	/* InterpolateUntPts */\012IUP[0]	/* InterpolateUntPts */\012SVTCA[1]	/* SetFreedomAndProjectionVectorToAxis */\012MD[0]	/* MeasureDistance */\012ROUND[00]	/* Round */\012PUSHW[ ]	/* 2 values pushed */\01239 52 \012MD[0]	/* MeasureDistance */\012ROUND[00]	/* Round */\012SUB[ ]	/* Subtract */\012PUSHB[ ]	/* 1 value pushed */\01264 \012GT[ ]	/* GreaterThan */\012IF[ ]	/* If */\012SHPIX[ ]	/* ShiftZoneByPixel */\012SRP1[ ]	/* SetRefPoint1 */\012SHZ[1]	/* ShiftZoneByLastPoint */\012PUSHW[ ]	/* 2 values pushed */\01252 -64 \012SHPIX[ ]	/* ShiftZoneByPixel */\012EIF[ ]	/* EndIf */";
};
width = 228;
}
);
note = s;
unicode = 0073;
},
{
glyphname = t;
layers = (
{
layerId = "466BAD2E-A4F2-4075-8033-B07AE50D6525";
paths = (
{
closed = 1;
nodes = (
"256 273 LINE",
"231.333 235.667 OFFCURVE",
"201.333 217 OFFCURVE",
"166 217 CURVE SMOOTH",
"116 217 OFFCURVE",
"91.333 249.333 OFFCURVE",
"92 314 CURVE SMOOTH",
"94 504 LINE",
"70 503 LINE SMOOTH",
"40.667 501.667 OFFCURVE",
"33.667 490 OFFCURVE",
"23 454 CURVE",
"10 454 LINE",
"18 527 LINE",
"94 527 LINE",
"94 600 LINE SMOOTH",
"94 604 OFFCURVE",
"94 606 OFFCURVE",
"94 606 CURVE",
"93.333 614 OFFCURVE",
"89 616 OFFCURVE",
"81 612 CURVE",
"75.667 610 OFFCURVE",
"72.333 608.667 OFFCURVE",
"71 608 CURVE",
"71 622 LINE",
"76.333 625.333 OFFCURVE",
"81.667 628.333 OFFCURVE",
"87 631 CURVE",
"103.667 638.333 OFFCURVE",
"116 641.667 OFFCURVE",
"124 641 CURVE SMOOTH",
"146.667 639 OFFCURVE",
"157.333 622.667 OFFCURVE",
"156 592 CURVE",
"156 527 LINE",
"236 526 LINE",
"237 526 LINE",
"237 504 LINE",
"236 504 LINE",
"236 503 LINE",
"155 503 LINE",
"154 419 LINE",
"154 419 LINE",
"153 310 LINE SMOOTH",
"152.333 272.667 OFFCURVE",
"164.333 254 OFFCURVE",
"189 254 CURVE SMOOTH",
"202.333 254 OFFCURVE",
"219.667 264.333 OFFCURVE",
"241 285 CURVE"
);
}
);
userData = {
assembly = "NPUSHB[ ]	/* 48 values pushed */\0121 41 41 64 42 40 31 30 29 28 23 21 12 11 6 5 0 40 36 35 30 28 25 21 20 14 13 11 10 9 8 6 5 4 35 34 10 9 8 5 7 6 2 16 38 1 30 70 \012SROUND[ ]	/* SuperRound */\012MDAP[1]	/* MoveDirectAbsPt */\012SHZ[1]	/* ShiftZoneByLastPoint */\012RTG[ ]	/* RoundToGrid */\012SVTCA[0]	/* SetFreedomAndProjectionVectorToAxis */\012MDAP[1]	/* MoveDirectAbsPt */\012MDAP[1]	/* MoveDirectAbsPt */\012MDAP[1]	/* MoveDirectAbsPt */\012MIRP[11101]	/* MoveIndirectRelPt */\012SLOOP[ ]	/* SetLoopVariable */\012ALIGNRP[ ]	/* AlignRelativePt */\012SVTCA[1]	/* SetFreedomAndProjectionVectorToAxis */\012MDAP[0]	/* MoveDirectAbsPt */\012MDAP[0]	/* MoveDirectAbsPt */\012MDAP[0]	/* MoveDirectAbsPt */\012MDAP[0]	/* MoveDirectAbsPt */\012MDAP[0]	/* MoveDirectAbsPt */\012MDAP[0]	/* MoveDirectAbsPt */\012MDAP[0]	/* MoveDirectAbsPt */\012MDAP[0]	/* MoveDirectAbsPt */\012MDAP[0]	/* MoveDirectAbsPt */\012MDAP[0]	/* MoveDirectAbsPt */\012MDAP[0]	/* MoveDirectAbsPt */\012MDAP[0]	/* MoveDirectAbsPt */\012MDAP[0]	/* MoveDirectAbsPt */\012MDAP[0]	/* MoveDirectAbsPt */\012MDAP[0]	/* MoveDirectAbsPt */\012MDAP[0]	/* MoveDirectAbsPt */\012MDAP[0]	/* MoveDirectAbsPt */\012SVTCA[0]	/* SetFreedomAndProjectionVectorToAxis */\012MDAP[0]	/* MoveDirectAbsPt */\012MDAP[0]	/* MoveDirectAbsPt */\012MDAP[0]	/* MoveDirectAbsPt */\012MDAP[0]	/* MoveDirectAbsPt */\012MDAP[0]	/* MoveDirectAbsPt */\012MDAP[0]	/* MoveDirectAbsPt */\012MDAP[0]	/* MoveDirectAbsPt */\012MDAP[0]	/* MoveDirectAbsPt */\012MDAP[0]	/* MoveDirectAbsPt */\012MDAP[0]	/* MoveDirectAbsPt */\012MDAP[0]	/* MoveDirectAbsPt */\012IUP[1]	/* InterpolateUntPts */\012IUP[0]	/* InterpolateUntPts */\012SVTCA[1]	/* SetFreedomAndProjectionVectorToAxis */\012MD[0]	/* MeasureDistance */\012ROUND[00]	/* Round */\012PUSHW[ ]	/* 2 values pushed */\01230 41 \012MD[0]	/* MeasureDistance */\012ROUND[00]	/* Round */\012SUB[ ]	/* Subtract */\012PUSHB[ ]	/* 1 value pushed */\01264 \012GT[ ]	/* GreaterThan */\012IF[ ]	/* If */\012SHPIX[ ]	/* ShiftZoneByPixel */\012SRP1[ ]	/* SetRefPoint1 */\012SHZ[1]	/* ShiftZoneByLastPoint */\012PUSHW[ ]	/* 2 values pushed */\01241 -64 \012SHPIX[ ]	/* ShiftZoneByPixel */\012EIF[ ]	/* EndIf */";
};
width = 266;
}
);
note = t;
unicode = 0074;
},
{
glyphname = u;
layers = (
{
layerId = "466BAD2E-A4F2-4075-8033-B07AE50D6525";
paths = (
{
closed = 1;
nodes = (
"277 265 OFFCURVE",
"293.333 245.333 OFFCURVE",
"326 244 CURVE",
"324 224 LINE",
"219 224 LINE",
"219 247 LINE",
"195.667 231 OFFCURVE",
"166 223 OFFCURVE",
"130 223 CURVE SMOOTH",
"78 223 OFFCURVE",
"32 259.333 OFFCURVE",
"16 310 CURVE SMOOTH",
"12 322.667 OFFCURVE",
"10 334.333 OFFCURVE",
"10 345 CURVE SMOOTH",
"10 361 OFFCURVE",
"14 380 OFFCURVE",
"22 402 CURVE SMOOTH",
"39.333 449.333 OFFCURVE",
"48 477.333 OFFCURVE",
"48 486 CURVE SMOOTH",
"48 508 OFFCURVE",
"37.667 524.333 OFFCURVE",
"17 535 CURVE",
"23 547 LINE",
"73.667 543 OFFCURVE",
"99 520 OFFCURVE",
"99 478 CURVE SMOOTH",
"99 468 OFFCURVE",
"97.667 458.333 OFFCURVE",
"95 449 CURVE SMOOTH",
"84.333 411.667 OFFCURVE",
"73.667 378 OFFCURVE",
"63 348 CURVE SMOOTH",
"61 342 OFFCURVE",
"60 335.333 OFFCURVE",
"60 328 CURVE SMOOTH",
"60 305.333 OFFCURVE",
"70.667 287 OFFCURVE",
"92 273 CURVE SMOOTH",
"110.667 261 OFFCURVE",
"132 255 OFFCURVE",
"156 255 CURVE SMOOTH",
"194 255 OFFCURVE",
"214.667 266.667 OFFCURVE",
"218 290 CURVE",
"217 454 LINE",
"217 492.667 OFFCURVE",
"200.667 512.333 OFFCURVE",
"168 513 CURVE",
"168 536 LINE",
"278 535 LINE",
"277 303 LINE SMOOTH"
);
}
);
userData = {
assembly = "NPUSHB[ ]	/* 38 values pushed */\0121 39 39 64 40 37 34 2 37 27 23 21 1 0 12 5 6 35 34 6 3 5 4 18 3 2 4 18 3 6 8 20 36 35 32 1 27 70 \012SROUND[ ]	/* SuperRound */\012MDAP[1]	/* MoveDirectAbsPt */\012SHZ[1]	/* ShiftZoneByLastPoint */\012RTG[ ]	/* RoundToGrid */\012SVTCA[0]	/* SetFreedomAndProjectionVectorToAxis */\012MDAP[1]	/* MoveDirectAbsPt */\012ALIGNRP[ ]	/* AlignRelativePt */\012ALIGNRP[ ]	/* AlignRelativePt */\012MDAP[1]	/* MoveDirectAbsPt */\012MDAP[1]	/* MoveDirectAbsPt */\012MIRP[11101]	/* MoveIndirectRelPt */\012SVTCA[1]	/* SetFreedomAndProjectionVectorToAxis */\012MDAP[1]	/* MoveDirectAbsPt */\012MIRP[11101]	/* MoveIndirectRelPt */\012ALIGNRP[ ]	/* AlignRelativePt */\012SRP0[ ]	/* SetRefPoint0 */\012MIRP[11101]	/* MoveIndirectRelPt */\012SLOOP[ ]	/* SetLoopVariable */\012ALIGNRP[ ]	/* AlignRelativePt */\012SRP0[ ]	/* SetRefPoint0 */\012MIRP[11101]	/* MoveIndirectRelPt */\012MDAP[0]	/* MoveDirectAbsPt */\012MDAP[0]	/* MoveDirectAbsPt */\012MDAP[0]	/* MoveDirectAbsPt */\012MDAP[0]	/* MoveDirectAbsPt */\012MDAP[0]	/* MoveDirectAbsPt */\012MDAP[0]	/* MoveDirectAbsPt */\012SVTCA[0]	/* SetFreedomAndProjectionVectorToAxis */\012MDAP[0]	/* MoveDirectAbsPt */\012MDAP[0]	/* MoveDirectAbsPt */\012IUP[1]	/* InterpolateUntPts */\012IUP[0]	/* InterpolateUntPts */\012SVTCA[1]	/* SetFreedomAndProjectionVectorToAxis */\012MD[0]	/* MeasureDistance */\012ROUND[00]	/* Round */\012PUSHW[ ]	/* 2 values pushed */\01227 39 \012MD[0]	/* MeasureDistance */\012ROUND[00]	/* Round */\012SUB[ ]	/* Subtract */\012PUSHB[ ]	/* 1 value pushed */\01264 \012GT[ ]	/* GreaterThan */\012IF[ ]	/* If */\012SHPIX[ ]	/* ShiftZoneByPixel */\012SRP1[ ]	/* SetRefPoint1 */\012SHZ[1]	/* ShiftZoneByLastPoint */\012PUSHW[ ]	/* 2 values pushed */\01239 -64 \012SHPIX[ ]	/* ShiftZoneByPixel */\012EIF[ ]	/* EndIf */";
};
width = 336;
}
);
note = u;
unicode = 0075;
},
{
glyphname = v;
layers = (
{
layerId = "466BAD2E-A4F2-4075-8033-B07AE50D6525";
paths = (
{
closed = 1;
nodes = (
"296.667 474.333 OFFCURVE",
"303 446.333 OFFCURVE",
"303 415 CURVE SMOOTH",
"303 395.667 OFFCURVE",
"299.333 377 OFFCURVE",
"292 359 CURVE SMOOTH",
"281.333 333 OFFCURVE",
"265.333 305 OFFCURVE",
"244 275 CURVE SMOOTH",
"216 236.333 OFFCURVE",
"192.333 217 OFFCURVE",
"173 217 CURVE SMOOTH",
"167 217 OFFCURVE",
"160 226 OFFCURVE",
"152 244 CURVE",
"151 247 LINE",
"150.333 249.667 OFFCURVE",
"149 252.333 OFFCURVE",
"147 255 CURVE",
"78 417 LINE",
"47 488 LINE SMOOTH",
"43 498 OFFCURVE",
"38 504.333 OFFCURVE",
"32 507 CURVE",
"26.667 509 OFFCURVE",
"19.333 507.667 OFFCURVE",
"10 503 CURVE",
"10 514 LINE",
"20 519.333 OFFCURVE",
"30 525 OFFCURVE",
"40 531 CURVE",
"53.333 537.667 OFFCURVE",
"64 541 OFFCURVE",
"72 541 CURVE SMOOTH",
"79.333 541 OFFCURVE",
"85.333 538.667 OFFCURVE",
"90 534 CURVE",
"104.667 504.667 OFFCURVE",
"117.667 476.333 OFFCURVE",
"129 449 CURVE SMOOTH",
"159.667 374.333 OFFCURVE",
"183 322.667 OFFCURVE",
"199 294 CURVE",
"199 294 LINE",
"201 286.667 OFFCURVE",
"205 283 OFFCURVE",
"211 283 CURVE SMOOTH",
"214.333 283 OFFCURVE",
"219 285.333 OFFCURVE",
"225 290 CURVE SMOOTH",
"252.333 312 OFFCURVE",
"266 346 OFFCURVE",
"266 392 CURVE SMOOTH",
"266 420 OFFCURVE",
"257 451 OFFCURVE",
"239 485 CURVE SMOOTH",
"233 496.333 OFFCURVE",
"226.667 503.333 OFFCURVE",
"220 506 CURVE SMOOTH",
"215.333 508 OFFCURVE",
"208 506.667 OFFCURVE",
"198 502 CURVE",
"198 513 LINE",
"212 520.333 OFFCURVE",
"222.667 526 OFFCURVE",
"230 530 CURVE SMOOTH",
"244 538 OFFCURVE",
"255.667 538 OFFCURVE",
"265 530 CURVE",
"273.667 518 OFFCURVE",
"280 507.667 OFFCURVE",
"284 499 CURVE"
);
}
);
userData = {
assembly = "NPUSHB[ ]	/* 28 values pushed */\0121 50 50 64 51 48 33 31 20 19 17 9 7 4 2 48 31 30 20 19 13 7 6 26 42 1 30 70 \012SROUND[ ]	/* SuperRound */\012MDAP[1]	/* MoveDirectAbsPt */\012SHZ[1]	/* ShiftZoneByLastPoint */\012RTG[ ]	/* RoundToGrid */\012SVTCA[0]	/* SetFreedomAndProjectionVectorToAxis */\012MDAP[1]	/* MoveDirectAbsPt */\012MDAP[1]	/* MoveDirectAbsPt */\012SVTCA[1]	/* SetFreedomAndProjectionVectorToAxis */\012MDAP[0]	/* MoveDirectAbsPt */\012MDAP[0]	/* MoveDirectAbsPt */\012MDAP[0]	/* MoveDirectAbsPt */\012MDAP[0]	/* MoveDirectAbsPt */\012MDAP[0]	/* MoveDirectAbsPt */\012MDAP[0]	/* MoveDirectAbsPt */\012MDAP[0]	/* MoveDirectAbsPt */\012MDAP[0]	/* MoveDirectAbsPt */\012SVTCA[0]	/* SetFreedomAndProjectionVectorToAxis */\012MDAP[0]	/* MoveDirectAbsPt */\012MDAP[0]	/* MoveDirectAbsPt */\012MDAP[0]	/* MoveDirectAbsPt */\012MDAP[0]	/* MoveDirectAbsPt */\012MDAP[0]	/* MoveDirectAbsPt */\012MDAP[0]	/* MoveDirectAbsPt */\012MDAP[0]	/* MoveDirectAbsPt */\012MDAP[0]	/* MoveDirectAbsPt */\012MDAP[0]	/* MoveDirectAbsPt */\012IUP[1]	/* InterpolateUntPts */\012IUP[0]	/* InterpolateUntPts */\012SVTCA[1]	/* SetFreedomAndProjectionVectorToAxis */\012MD[0]	/* MeasureDistance */\012ROUND[00]	/* Round */\012PUSHW[ ]	/* 2 values pushed */\01230 50 \012MD[0]	/* MeasureDistance */\012ROUND[00]	/* Round */\012SUB[ ]	/* Subtract */\012PUSHB[ ]	/* 1 value pushed */\01264 \012GT[ ]	/* GreaterThan */\012IF[ ]	/* If */\012SHPIX[ ]	/* ShiftZoneByPixel */\012SRP1[ ]	/* SetRefPoint1 */\012SHZ[1]	/* ShiftZoneByLastPoint */\012PUSHW[ ]	/* 2 values pushed */\01250 -64 \012SHPIX[ ]	/* ShiftZoneByPixel */\012EIF[ ]	/* EndIf */";
};
width = 313;
}
);
note = v;
unicode = 0076;
},
{
glyphname = w;
layers = (
{
layerId = "466BAD2E-A4F2-4075-8033-B07AE50D6525";
paths = (
{
closed = 1;
nodes = (
"432 507.333 OFFCURVE",
"415.667 488 OFFCURVE",
"415 450 CURVE SMOOTH",
"414 307 LINE SMOOTH",
"414 269 OFFCURVE",
"430 249.333 OFFCURVE",
"462 248 CURVE",
"462 226 LINE",
"352 226 LINE",
"352 249 LINE",
"337.333 230.333 OFFCURVE",
"306 221 OFFCURVE",
"258 221 CURVE SMOOTH",
"236.667 221 OFFCURVE",
"215.333 229.333 OFFCURVE",
"194 246 CURVE",
"169.333 229.333 OFFCURVE",
"145.667 221 OFFCURVE",
"123 221 CURVE SMOOTH",
"61.667 221 OFFCURVE",
"10 270.667 OFFCURVE",
"10 332 CURVE SMOOTH",
"10 350 OFFCURVE",
"13.333 366.333 OFFCURVE",
"20 381 CURVE SMOOTH",
"42.667 431 OFFCURVE",
"57.667 463.667 OFFCURVE",
"65 479 CURVE",
"67 482.333 OFFCURVE",
"68 485.333 OFFCURVE",
"68 488 CURVE SMOOTH",
"68 494.667 OFFCURVE",
"63.667 500.333 OFFCURVE",
"55 505 CURVE",
"49.667 508.333 OFFCURVE",
"40.333 507.333 OFFCURVE",
"27 502 CURVE",
"27 517 LINE",
"37 522.333 OFFCURVE",
"46.667 527.667 OFFCURVE",
"56 533 CURVE SMOOTH",
"68 539.667 OFFCURVE",
"78.667 543 OFFCURVE",
"88 543 CURVE SMOOTH",
"99.333 543 OFFCURVE",
"107.667 539.333 OFFCURVE",
"113 532 CURVE SMOOTH",
"121 521.333 OFFCURVE",
"120.333 505.333 OFFCURVE",
"111 484 CURVE SMOOTH",
"93 441.333 OFFCURVE",
"78.333 407.667 OFFCURVE",
"67 383 CURVE SMOOTH",
"61 369.667 OFFCURVE",
"58 355.667 OFFCURVE",
"58 341 CURVE SMOOTH",
"58 318.333 OFFCURVE",
"65.667 297.333 OFFCURVE",
"81 278 CURVE SMOOTH",
"97.667 256.667 OFFCURVE",
"117 246.333 OFFCURVE",
"139 247 CURVE SMOOTH",
"156.333 247.667 OFFCURVE",
"170.333 251.333 OFFCURVE",
"181 258 CURVE",
"161.667 278 OFFCURVE",
"152 302.333 OFFCURVE",
"152 331 CURVE SMOOTH",
"152 349 OFFCURVE",
"155.333 365.333 OFFCURVE",
"162 380 CURVE SMOOTH",
"185.333 430.667 OFFCURVE",
"200.333 463.333 OFFCURVE",
"207 478 CURVE",
"209 481.333 OFFCURVE",
"210 484.333 OFFCURVE",
"210 487 CURVE SMOOTH",
"210 493.667 OFFCURVE",
"205.667 499.667 OFFCURVE",
"197 505 CURVE",
"195 505.667 OFFCURVE",
"192.667 506 OFFCURVE",
"190 506 CURVE SMOOTH",
"184.667 506 OFFCURVE",
"177.667 504.333 OFFCURVE",
"169 501 CURVE",
"169 516 LINE",
"179 521.333 OFFCURVE",
"188.667 526.667 OFFCURVE",
"198 532 CURVE SMOOTH",
"210 538.667 OFFCURVE",
"220.667 542 OFFCURVE",
"230 542 CURVE SMOOTH",
"241.333 542 OFFCURVE",
"249.667 538.333 OFFCURVE",
"255 531 CURVE SMOOTH",
"263 520.333 OFFCURVE",
"262.333 504.333 OFFCURVE",
"253 483 CURVE SMOOTH",
"235 440.333 OFFCURVE",
"220.333 406.667 OFFCURVE",
"209 382 CURVE SMOOTH",
"203 368.667 OFFCURVE",
"200 354.667 OFFCURVE",
"200 340 CURVE SMOOTH",
"200 317.333 OFFCURVE",
"207.667 296.333 OFFCURVE",
"223 277 CURVE SMOOTH",
"239.667 255 OFFCURVE",
"259 244.667 OFFCURVE",
"281 246 CURVE",
"287 246 OFFCURVE",
"294.333 247 OFFCURVE",
"303 249 CURVE",
"303 249 LINE",
"320.333 249 OFFCURVE",
"344.333 270.667 OFFCURVE",
"351 288 CURVE",
"352.333 294.667 OFFCURVE",
"353 301.333 OFFCURVE",
"353 308 CURVE SMOOTH",
"353 411 LINE",
"354 450 LINE SMOOTH",
"354.667 488.667 OFFCURVE",
"338.333 508.333 OFFCURVE",
"305 509 CURVE",
"305 532 LINE",
"464 531 LINE",
"464 508 LINE"
);
}
);
userData = {
assembly = "NPUSHB[ ]	/* 68 values pushed */\0121 92 92 64 93 0 86 85 80 67 65 48 34 32 15 2 89 87 86 75 69 65 64 58 46 38 32 31 25 13 12 3 2 1 0 40 42 8 56 54 54 56 19 5 85 84 7 5 4 6 44 4 52 3 0 6 84 13 12 3 87 27 60 82 78 1 75 70 \012SROUND[ ]	/* SuperRound */\012MDAP[1]	/* MoveDirectAbsPt */\012SHZ[1]	/* ShiftZoneByLastPoint */\012RTG[ ]	/* RoundToGrid */\012SVTCA[0]	/* SetFreedomAndProjectionVectorToAxis */\012MDAP[1]	/* MoveDirectAbsPt */\012ALIGNRP[ ]	/* AlignRelativePt */\012MDAP[1]	/* MoveDirectAbsPt */\012ALIGNRP[ ]	/* AlignRelativePt */\012MDAP[1]	/* MoveDirectAbsPt */\012SLOOP[ ]	/* SetLoopVariable */\012ALIGNRP[ ]	/* AlignRelativePt */\012MIRP[11101]	/* MoveIndirectRelPt */\012ALIGNRP[ ]	/* AlignRelativePt */\012SVTCA[1]	/* SetFreedomAndProjectionVectorToAxis */\012MDAP[1]	/* MoveDirectAbsPt */\012MIRP[11101]	/* MoveIndirectRelPt */\012MDAP[1]	/* MoveDirectAbsPt */\012SLOOP[ ]	/* SetLoopVariable */\012ALIGNRP[ ]	/* AlignRelativePt */\012MIRP[11101]	/* MoveIndirectRelPt */\012SDPVTL[1]	/* SetDualPVectorToLine */\012MDAP[0]	/* MoveDirectAbsPt */\012SFVTPV[ ]	/* SetFVectorToPVector */\012MDRP[00100]	/* MoveDirectRelPt */\012SFVTPV[ ]	/* SetFVectorToPVector */\012MIRP[11100]	/* MoveIndirectRelPt */\012SFVTPV[ ]	/* SetFVectorToPVector */\012MDRP[00100]	/* MoveDirectRelPt */\012SVTCA[1]	/* SetFreedomAndProjectionVectorToAxis */\012MDAP[0]	/* MoveDirectAbsPt */\012MDAP[0]	/* MoveDirectAbsPt */\012MDAP[0]	/* MoveDirectAbsPt */\012MDAP[0]	/* MoveDirectAbsPt */\012MDAP[0]	/* MoveDirectAbsPt */\012MDAP[0]	/* MoveDirectAbsPt */\012MDAP[0]	/* MoveDirectAbsPt */\012MDAP[0]	/* MoveDirectAbsPt */\012MDAP[0]	/* MoveDirectAbsPt */\012MDAP[0]	/* MoveDirectAbsPt */\012MDAP[0]	/* MoveDirectAbsPt */\012MDAP[0]	/* MoveDirectAbsPt */\012MDAP[0]	/* MoveDirectAbsPt */\012MDAP[0]	/* MoveDirectAbsPt */\012MDAP[0]	/* MoveDirectAbsPt */\012MDAP[0]	/* MoveDirectAbsPt */\012MDAP[0]	/* MoveDirectAbsPt */\012MDAP[0]	/* MoveDirectAbsPt */\012MDAP[0]	/* MoveDirectAbsPt */\012SVTCA[0]	/* SetFreedomAndProjectionVectorToAxis */\012MDAP[0]	/* MoveDirectAbsPt */\012MDAP[0]	/* MoveDirectAbsPt */\012MDAP[0]	/* MoveDirectAbsPt */\012MDAP[0]	/* MoveDirectAbsPt */\012MDAP[0]	/* MoveDirectAbsPt */\012MDAP[0]	/* MoveDirectAbsPt */\012MDAP[0]	/* MoveDirectAbsPt */\012MDAP[0]	/* MoveDirectAbsPt */\012MDAP[0]	/* MoveDirectAbsPt */\012MDAP[0]	/* MoveDirectAbsPt */\012IUP[1]	/* InterpolateUntPts */\012IUP[0]	/* InterpolateUntPts */\012SVTCA[1]	/* SetFreedomAndProjectionVectorToAxis */\012MD[0]	/* MeasureDistance */\012ROUND[00]	/* Round */\012PUSHW[ ]	/* 2 values pushed */\01275 92 \012MD[0]	/* MeasureDistance */\012ROUND[00]	/* Round */\012SUB[ ]	/* Subtract */\012PUSHB[ ]	/* 1 value pushed */\01264 \012GT[ ]	/* GreaterThan */\012IF[ ]	/* If */\012SHPIX[ ]	/* ShiftZoneByPixel */\012SRP1[ ]	/* SetRefPoint1 */\012SHZ[1]	/* ShiftZoneByLastPoint */\012PUSHW[ ]	/* 2 values pushed */\01292 -64 \012SHPIX[ ]	/* ShiftZoneByPixel */\012EIF[ ]	/* EndIf */";
};
width = 474;
}
);
note = w;
unicode = 0077;
},
{
glyphname = x;
layers = (
{
layerId = "466BAD2E-A4F2-4075-8033-B07AE50D6525";
paths = (
{
closed = 1;
nodes = (
"350 284 LINE",
"359 272 LINE",
"357 267.333 OFFCURVE",
"354.333 262 OFFCURVE",
"351 256 CURVE SMOOTH",
"342.333 240.667 OFFCURVE",
"334.333 231 OFFCURVE",
"327 227 CURVE",
"316.333 221.667 OFFCURVE",
"304.667 222 OFFCURVE",
"292 228 CURVE",
"289.333 230 OFFCURVE",
"255 272.333 OFFCURVE",
"189 355 CURVE",
"189 353 LINE",
"161 307 OFFCURVE",
"144.667 281.333 OFFCURVE",
"140 276 CURVE SMOOTH",
"110.667 242.667 OFFCURVE",
"75.667 226 OFFCURVE",
"35 226 CURVE SMOOTH",
"25.667 226 OFFCURVE",
"17.333 227 OFFCURVE",
"10 229 CURVE",
"10 239 LINE",
"46 242.333 OFFCURVE",
"77.667 261.333 OFFCURVE",
"105 296 CURVE",
"129 333.333 OFFCURVE",
"148 364.333 OFFCURVE",
"162 389 CURVE",
"83 489 LINE SMOOTH",
"80.333 492.333 OFFCURVE",
"79 494 OFFCURVE",
"79 494 CURVE",
"73 500 OFFCURVE",
"68 499.333 OFFCURVE",
"64 492 CURVE SMOOTH",
"59 483 LINE",
"50 495 LINE",
"52 499.667 OFFCURVE",
"54.667 505 OFFCURVE",
"58 511 CURVE SMOOTH",
"66.667 526.333 OFFCURVE",
"74.667 535.667 OFFCURVE",
"82 539 CURVE",
"92.667 544.333 OFFCURVE",
"104.333 544 OFFCURVE",
"117 538 CURVE SMOOTH",
"119.667 536.667 OFFCURVE",
"146.667 504 OFFCURVE",
"198 440 CURVE",
"212 464 OFFCURVE",
"222.667 480 OFFCURVE",
"230 488 CURVE SMOOTH",
"259.333 521.333 OFFCURVE",
"294.333 538 OFFCURVE",
"335 538 CURVE SMOOTH",
"344.333 538 OFFCURVE",
"352.667 537.333 OFFCURVE",
"360 536 CURVE",
"360 525 LINE",
"324 521.667 OFFCURVE",
"292 502.667 OFFCURVE",
"264 468 CURVE",
"248 442.667 OFFCURVE",
"235 421.667 OFFCURVE",
"225 405 CURVE",
"326 278 LINE SMOOTH",
"328.667 274.667 OFFCURVE",
"330 273 OFFCURVE",
"330 273 CURVE",
"336 267 OFFCURVE",
"341 267.667 OFFCURVE",
"345 275 CURVE SMOOTH"
);
}
);
userData = {
assembly = "NPUSHB[ ]	/* 29 values pushed */\0121 53 53 64 54 10 44 29 26 17 3 0 52 44 43 37 36 32 25 11 10 6 13 21 48 39 1 36 70 \012SROUND[ ]	/* SuperRound */\012MDAP[1]	/* MoveDirectAbsPt */\012SHZ[1]	/* ShiftZoneByLastPoint */\012RTG[ ]	/* RoundToGrid */\012SVTCA[0]	/* SetFreedomAndProjectionVectorToAxis */\012MDAP[1]	/* MoveDirectAbsPt */\012ALIGNRP[ ]	/* AlignRelativePt */\012MDAP[1]	/* MoveDirectAbsPt */\012ALIGNRP[ ]	/* AlignRelativePt */\012SVTCA[1]	/* SetFreedomAndProjectionVectorToAxis */\012MDAP[0]	/* MoveDirectAbsPt */\012MDAP[0]	/* MoveDirectAbsPt */\012MDAP[0]	/* MoveDirectAbsPt */\012MDAP[0]	/* MoveDirectAbsPt */\012MDAP[0]	/* MoveDirectAbsPt */\012MDAP[0]	/* MoveDirectAbsPt */\012MDAP[0]	/* MoveDirectAbsPt */\012MDAP[0]	/* MoveDirectAbsPt */\012MDAP[0]	/* MoveDirectAbsPt */\012MDAP[0]	/* MoveDirectAbsPt */\012SVTCA[0]	/* SetFreedomAndProjectionVectorToAxis */\012MDAP[0]	/* MoveDirectAbsPt */\012MDAP[0]	/* MoveDirectAbsPt */\012MDAP[0]	/* MoveDirectAbsPt */\012MDAP[0]	/* MoveDirectAbsPt */\012MDAP[0]	/* MoveDirectAbsPt */\012MDAP[0]	/* MoveDirectAbsPt */\012IUP[1]	/* InterpolateUntPts */\012IUP[0]	/* InterpolateUntPts */\012SVTCA[1]	/* SetFreedomAndProjectionVectorToAxis */\012MD[0]	/* MeasureDistance */\012ROUND[00]	/* Round */\012PUSHW[ ]	/* 2 values pushed */\01236 53 \012MD[0]	/* MeasureDistance */\012ROUND[00]	/* Round */\012SUB[ ]	/* Subtract */\012PUSHB[ ]	/* 1 value pushed */\01264 \012GT[ ]	/* GreaterThan */\012IF[ ]	/* If */\012SHPIX[ ]	/* ShiftZoneByPixel */\012SRP1[ ]	/* SetRefPoint1 */\012SHZ[1]	/* ShiftZoneByLastPoint */\012PUSHW[ ]	/* 2 values pushed */\01253 -64 \012SHPIX[ ]	/* ShiftZoneByPixel */\012EIF[ ]	/* EndIf */";
};
width = 370;
}
);
note = x;
unicode = 0078;
},
{
glyphname = y;
layers = (
{
layerId = "466BAD2E-A4F2-4075-8033-B07AE50D6525";
paths = (
{
closed = 1;
nodes = (
"280 157 OFFCURVE",
"279.667 135 OFFCURVE",
"279 131 CURVE SMOOTH",
"275.667 105.667 OFFCURVE",
"265 87.667 OFFCURVE",
"247 77 CURVE SMOOTH",
"220.333 61 OFFCURVE",
"200.333 49 OFFCURVE",
"187 41 CURVE SMOOTH",
"155 23 OFFCURVE",
"125.333 14 OFFCURVE",
"98 14 CURVE SMOOTH",
"74 14 OFFCURVE",
"8.333 71.333 OFFCURVE",
"15 94 CURVE SMOOTH",
"17.667 102.667 OFFCURVE",
"25.333 112.333 OFFCURVE",
"38 123 CURVE SMOOTH",
"45.333 129 OFFCURVE",
"56 136.333 OFFCURVE",
"70 145 CURVE",
"78 134 LINE",
"64 128 OFFCURVE",
"58.333 119.667 OFFCURVE",
"61 109 CURVE SMOOTH",
"67.667 82.333 OFFCURVE",
"103.667 58 OFFCURVE",
"133 58 CURVE SMOOTH",
"149 58 OFFCURVE",
"169.333 67.667 OFFCURVE",
"194 87 CURVE",
"210 104.333 OFFCURVE",
"218.333 127.333 OFFCURVE",
"219 156 CURVE SMOOTH",
"222 251 LINE",
"198 233.667 OFFCURVE",
"168.667 225.333 OFFCURVE",
"134 226 CURVE SMOOTH",
"68.667 227.333 OFFCURVE",
"14 281.333 OFFCURVE",
"14 348 CURVE SMOOTH",
"14 365.333 OFFCURVE",
"17.667 384.333 OFFCURVE",
"25 405 CURVE SMOOTH",
"42.333 454.333 OFFCURVE",
"51 482.333 OFFCURVE",
"51 489 CURVE SMOOTH",
"51 511 OFFCURVE",
"40.667 527.333 OFFCURVE",
"20 538 CURVE",
"26 551 LINE",
"76.667 546.333 OFFCURVE",
"102 523 OFFCURVE",
"102 481 CURVE SMOOTH",
"102 471.667 OFFCURVE",
"100.667 462.333 OFFCURVE",
"98 453 CURVE SMOOTH",
"82.667 402.333 OFFCURVE",
"72.333 368.667 OFFCURVE",
"67 352 CURVE SMOOTH",
"65 346 OFFCURVE",
"64 339 OFFCURVE",
"64 331 CURVE SMOOTH",
"64 307.667 OFFCURVE",
"74.333 289.333 OFFCURVE",
"95 276 CURVE SMOOTH",
"113 264.667 OFFCURVE",
"134.333 259 OFFCURVE",
"159 259 CURVE SMOOTH",
"197 258.333 OFFCURVE",
"218 270 OFFCURVE",
"222 294 CURVE",
"220 457 LINE SMOOTH",
"219.333 495.667 OFFCURVE",
"203.333 515.333 OFFCURVE",
"172 516 CURVE",
"172 539 LINE",
"281 539 LINE",
"280 197 LINE SMOOTH"
);
}
);
userData = {
assembly = "NPUSHB[ ]	/* 41 values pushed */\0121 58 58 64 59 1 43 32 2 47 42 40 27 23 21 3 2 1 12 5 6 18 4 33 32 6 3 5 30 7 37 8 6 3 20 50 1 2 1 27 70 \012SROUND[ ]	/* SuperRound */\012MDAP[1]	/* MoveDirectAbsPt */\012SHZ[1]	/* ShiftZoneByLastPoint */\012RTG[ ]	/* RoundToGrid */\012SVTCA[0]	/* SetFreedomAndProjectionVectorToAxis */\012MIAP[1]	/* MoveIndirectAbsPt */\012MDAP[1]	/* MoveDirectAbsPt */\012MDAP[1]	/* MoveDirectAbsPt */\012MDAP[1]	/* MoveDirectAbsPt */\012MIRP[11101]	/* MoveIndirectRelPt */\012MDAP[1]	/* MoveDirectAbsPt */\012MIRP[11101]	/* MoveIndirectRelPt */\012SVTCA[1]	/* SetFreedomAndProjectionVectorToAxis */\012MDAP[1]	/* MoveDirectAbsPt */\012SLOOP[ ]	/* SetLoopVariable */\012ALIGNRP[ ]	/* AlignRelativePt */\012MIRP[11101]	/* MoveIndirectRelPt */\012SRP0[ ]	/* SetRefPoint0 */\012MIRP[11101]	/* MoveIndirectRelPt */\012MDAP[0]	/* MoveDirectAbsPt */\012MDAP[0]	/* MoveDirectAbsPt */\012MDAP[0]	/* MoveDirectAbsPt */\012MDAP[0]	/* MoveDirectAbsPt */\012MDAP[0]	/* MoveDirectAbsPt */\012MDAP[0]	/* MoveDirectAbsPt */\012MDAP[0]	/* MoveDirectAbsPt */\012MDAP[0]	/* MoveDirectAbsPt */\012MDAP[0]	/* MoveDirectAbsPt */\012SVTCA[0]	/* SetFreedomAndProjectionVectorToAxis */\012MDAP[0]	/* MoveDirectAbsPt */\012MDAP[0]	/* MoveDirectAbsPt */\012MDAP[0]	/* MoveDirectAbsPt */\012IUP[1]	/* InterpolateUntPts */\012IUP[0]	/* InterpolateUntPts */\012SVTCA[1]	/* SetFreedomAndProjectionVectorToAxis */\012MD[0]	/* MeasureDistance */\012ROUND[00]	/* Round */\012PUSHW[ ]	/* 2 values pushed */\01227 58 \012MD[0]	/* MeasureDistance */\012ROUND[00]	/* Round */\012SUB[ ]	/* Subtract */\012PUSHB[ ]	/* 1 value pushed */\01264 \012GT[ ]	/* GreaterThan */\012IF[ ]	/* If */\012SHPIX[ ]	/* ShiftZoneByPixel */\012SRP1[ ]	/* SetRefPoint1 */\012SHZ[1]	/* ShiftZoneByLastPoint */\012PUSHW[ ]	/* 2 values pushed */\01258 -64 \012SHPIX[ ]	/* ShiftZoneByPixel */\012EIF[ ]	/* EndIf */";
};
width = 291;
}
);
note = y;
unicode = 0079;
},
{
glyphname = z;
layers = (
{
layerId = "466BAD2E-A4F2-4075-8033-B07AE50D6525";
paths = (
{
closed = 1;
nodes = (
"355 254 LINE",
"339.667 238 OFFCURVE",
"325.667 227 OFFCURVE",
"313 221 CURVE SMOOTH",
"283 206.333 OFFCURVE",
"252.333 200 OFFCURVE",
"221 202 CURVE SMOOTH",
"203.667 202.667 OFFCURVE",
"187 205.333 OFFCURVE",
"171 210 CURVE SMOOTH",
"149 216 OFFCURVE",
"127.667 222 OFFCURVE",
"107 228 CURVE SMOOTH",
"95 231.333 OFFCURVE",
"81.667 233 OFFCURVE",
"67 233 CURVE SMOOTH",
"46.333 233 OFFCURVE",
"27.333 229.333 OFFCURVE",
"10 222 CURVE",
"25 242 LINE",
"24 242 LINE",
"44 272 LINE",
"45 272 LINE",
"225 516 LINE",
"120 517 LINE SMOOTH",
"106 517 OFFCURVE",
"93.667 509 OFFCURVE",
"83 493 CURVE",
"83 492.333 OFFCURVE",
"75.667 478.333 OFFCURVE",
"61 451 CURVE",
"41 451 LINE",
"52 540 LINE",
"299 539 LINE",
"299 516 LINE",
"116 268 LINE",
"120.667 267.333 OFFCURVE",
"125 266.667 OFFCURVE",
"129 266 CURVE",
"136.333 264 OFFCURVE",
"154 256 OFFCURVE",
"182 242 CURVE SMOOTH",
"206.667 229.333 OFFCURVE",
"227.667 222.667 OFFCURVE",
"245 222 CURVE SMOOTH",
"286.333 220 OFFCURVE",
"320 232.667 OFFCURVE",
"346 260 CURVE"
);
}
);
userData = {
assembly = "NPUSHB[ ]	/* 32 values pushed */\0121 36 36 64 37 35 25 22 21 20 19 17 13 12 0 35 23 22 21 18 12 10 9 8 11 31 23 2 1 1 23 70 \012SROUND[ ]	/* SuperRound */\012MDAP[1]	/* MoveDirectAbsPt */\012SHZ[1]	/* ShiftZoneByLastPoint */\012RTG[ ]	/* RoundToGrid */\012SVTCA[0]	/* SetFreedomAndProjectionVectorToAxis */\012MIAP[1]	/* MoveIndirectAbsPt */\012ALIGNRP[ ]	/* AlignRelativePt */\012MDAP[1]	/* MoveDirectAbsPt */\012MDAP[1]	/* MoveDirectAbsPt */\012SVTCA[1]	/* SetFreedomAndProjectionVectorToAxis */\012MDAP[0]	/* MoveDirectAbsPt */\012MDAP[0]	/* MoveDirectAbsPt */\012MDAP[0]	/* MoveDirectAbsPt */\012MDAP[0]	/* MoveDirectAbsPt */\012MDAP[0]	/* MoveDirectAbsPt */\012MDAP[0]	/* MoveDirectAbsPt */\012MDAP[0]	/* MoveDirectAbsPt */\012MDAP[0]	/* MoveDirectAbsPt */\012MDAP[0]	/* MoveDirectAbsPt */\012SVTCA[0]	/* SetFreedomAndProjectionVectorToAxis */\012MDAP[0]	/* MoveDirectAbsPt */\012MDAP[0]	/* MoveDirectAbsPt */\012MDAP[0]	/* MoveDirectAbsPt */\012MDAP[0]	/* MoveDirectAbsPt */\012MDAP[0]	/* MoveDirectAbsPt */\012MDAP[0]	/* MoveDirectAbsPt */\012MDAP[0]	/* MoveDirectAbsPt */\012MDAP[0]	/* MoveDirectAbsPt */\012MDAP[0]	/* MoveDirectAbsPt */\012IUP[1]	/* InterpolateUntPts */\012IUP[0]	/* InterpolateUntPts */\012SVTCA[1]	/* SetFreedomAndProjectionVectorToAxis */\012MD[0]	/* MeasureDistance */\012ROUND[00]	/* Round */\012PUSHW[ ]	/* 2 values pushed */\01223 36 \012MD[0]	/* MeasureDistance */\012ROUND[00]	/* Round */\012SUB[ ]	/* Subtract */\012PUSHB[ ]	/* 1 value pushed */\01264 \012GT[ ]	/* GreaterThan */\012IF[ ]	/* If */\012SHPIX[ ]	/* ShiftZoneByPixel */\012SRP1[ ]	/* SetRefPoint1 */\012SHZ[1]	/* ShiftZoneByLastPoint */\012PUSHW[ ]	/* 2 values pushed */\01236 -64 \012SHPIX[ ]	/* ShiftZoneByPixel */\012EIF[ ]	/* EndIf */";
};
width = 365;
}
);
note = z;
unicode = 007A;
},
{
glyphname = zero;
layers = (
{
layerId = "466BAD2E-A4F2-4075-8033-B07AE50D6525";
paths = (
{
closed = 1;
nodes = (
"68 264 OFFCURVE",
"110.333 230.667 OFFCURVE",
"165 230 CURVE SMOOTH",
"219 229.333 OFFCURVE",
"260.333 258.667 OFFCURVE",
"289 318 CURVE SMOOTH",
"312.333 365.333 OFFCURVE",
"324 418.333 OFFCURVE",
"324 477 CURVE SMOOTH",
"324 536.333 OFFCURVE",
"313 589.667 OFFCURVE",
"291 637 CURVE SMOOTH",
"263 695.667 OFFCURVE",
"222 725.333 OFFCURVE",
"168 726 CURVE SMOOTH",
"114.667 726.667 OFFCURVE",
"73.667 697.333 OFFCURVE",
"45 638 CURVE SMOOTH",
"21.667 590.667 OFFCURVE",
"10 537.667 OFFCURVE",
"10 479 CURVE SMOOTH",
"10 421 OFFCURVE",
"19.333 371.333 OFFCURVE",
"38 330 CURVE SMOOTH"
);
},
{
closed = 1;
nodes = (
"258 429 OFFCURVE",
"253 384 OFFCURVE",
"243 344 CURVE SMOOTH",
"227.667 279.333 OFFCURVE",
"201.667 247.333 OFFCURVE",
"165 248 CURVE SMOOTH",
"129.667 248 OFFCURVE",
"104.333 280.333 OFFCURVE",
"89 345 CURVE SMOOTH",
"79.667 383.667 OFFCURVE",
"75.333 428.667 OFFCURVE",
"76 480 CURVE SMOOTH",
"76 530.667 OFFCURVE",
"81 575.667 OFFCURVE",
"91 615 CURVE SMOOTH",
"107 679 OFFCURVE",
"132.667 711 OFFCURVE",
"168 711 CURVE SMOOTH",
"204.667 710.333 OFFCURVE",
"230.333 678 OFFCURVE",
"245 614 CURVE SMOOTH",
"253.667 574.667 OFFCURVE",
"258 529.667 OFFCURVE",
"258 479 CURVE SMOOTH"
);
}
);
userData = {
assembly = "NPUSHB[ ]	/* 24 values pushed */\0121 32 32 64 33 10 24 4 2 16 4 10 28 7 14 20 7 6 14 6 3 1 2 70 \012SROUND[ ]	/* SuperRound */\012MDAP[1]	/* MoveDirectAbsPt */\012SHZ[1]	/* ShiftZoneByLastPoint */\012RTG[ ]	/* RoundToGrid */\012SVTCA[0]	/* SetFreedomAndProjectionVectorToAxis */\012MIAP[1]	/* MoveIndirectAbsPt */\012MDAP[1]	/* MoveDirectAbsPt */\012SRP0[ ]	/* SetRefPoint0 */\012MIRP[11101]	/* MoveIndirectRelPt */\012SRP0[ ]	/* SetRefPoint0 */\012MIRP[11101]	/* MoveIndirectRelPt */\012SVTCA[1]	/* SetFreedomAndProjectionVectorToAxis */\012MDAP[1]	/* MoveDirectAbsPt */\012MIRP[11101]	/* MoveIndirectRelPt */\012MDAP[1]	/* MoveDirectAbsPt */\012MIRP[11101]	/* MoveIndirectRelPt */\012SVTCA[0]	/* SetFreedomAndProjectionVectorToAxis */\012IUP[1]	/* InterpolateUntPts */\012IUP[0]	/* InterpolateUntPts */\012SVTCA[1]	/* SetFreedomAndProjectionVectorToAxis */\012MD[0]	/* MeasureDistance */\012ROUND[00]	/* Round */\012PUSHW[ ]	/* 2 values pushed */\0122 32 \012MD[0]	/* MeasureDistance */\012ROUND[00]	/* Round */\012SUB[ ]	/* Subtract */\012PUSHB[ ]	/* 1 value pushed */\01264 \012GT[ ]	/* GreaterThan */\012IF[ ]	/* If */\012SHPIX[ ]	/* ShiftZoneByPixel */\012SRP1[ ]	/* SetRefPoint1 */\012SHZ[1]	/* ShiftZoneByLastPoint */\012PUSHW[ ]	/* 2 values pushed */\01232 -64 \012SHPIX[ ]	/* ShiftZoneByPixel */\012EIF[ ]	/* EndIf */";
};
width = 334;
}
);
note = zero;
unicode = 0030;
},
{
glyphname = one;
layers = (
{
layerId = "466BAD2E-A4F2-4075-8033-B07AE50D6525";
paths = (
{
closed = 1;
nodes = (
"140 270.333 OFFCURVE",
"158 255 OFFCURVE",
"206 255 CURVE",
"206 235 LINE",
"10 236 LINE",
"10 256 LINE",
"62 256 OFFCURVE",
"79 267.667 OFFCURVE",
"79 317 CURVE SMOOTH",
"81 633 LINE",
"82 633 LINE",
"81.333 653.667 OFFCURVE",
"81 670 OFFCURVE",
"81 682 CURVE SMOOTH",
"81 686 OFFCURVE",
"79 689.333 OFFCURVE",
"75 692 CURVE",
"71 694 OFFCURVE",
"66.333 694 OFFCURVE",
"61 692 CURVE SMOOTH",
"54.333 689.333 OFFCURVE",
"50 687.333 OFFCURVE",
"48 686 CURVE",
"48 705 LINE",
"57.333 710.333 OFFCURVE",
"64.333 714 OFFCURVE",
"69 716 CURVE SMOOTH",
"87.667 724.667 OFFCURVE",
"104 729 OFFCURVE",
"118 729 CURVE SMOOTH",
"134 729 OFFCURVE",
"142 716.333 OFFCURVE",
"142 691 CURVE SMOOTH",
"140 317 LINE SMOOTH"
);
}
);
userData = {
assembly = "NPUSHB[ ]	/* 25 values pushed */\0121 27 27 64 28 23 17 16 12 10 8 24 23 22 21 16 8 7 1 0 3 23 1 21 70 \012SROUND[ ]	/* SuperRound */\012MDAP[1]	/* MoveDirectAbsPt */\012SHZ[1]	/* ShiftZoneByLastPoint */\012RTG[ ]	/* RoundToGrid */\012SVTCA[0]	/* SetFreedomAndProjectionVectorToAxis */\012MDAP[1]	/* MoveDirectAbsPt */\012MDAP[1]	/* MoveDirectAbsPt */\012SVTCA[1]	/* SetFreedomAndProjectionVectorToAxis */\012MDAP[0]	/* MoveDirectAbsPt */\012MDAP[0]	/* MoveDirectAbsPt */\012MDAP[0]	/* MoveDirectAbsPt */\012MDAP[0]	/* MoveDirectAbsPt */\012MDAP[0]	/* MoveDirectAbsPt */\012MDAP[0]	/* MoveDirectAbsPt */\012MDAP[0]	/* MoveDirectAbsPt */\012MDAP[0]	/* MoveDirectAbsPt */\012MDAP[0]	/* MoveDirectAbsPt */\012SVTCA[0]	/* SetFreedomAndProjectionVectorToAxis */\012MDAP[0]	/* MoveDirectAbsPt */\012MDAP[0]	/* MoveDirectAbsPt */\012MDAP[0]	/* MoveDirectAbsPt */\012MDAP[0]	/* MoveDirectAbsPt */\012MDAP[0]	/* MoveDirectAbsPt */\012IUP[1]	/* InterpolateUntPts */\012IUP[0]	/* InterpolateUntPts */\012SVTCA[1]	/* SetFreedomAndProjectionVectorToAxis */\012MD[0]	/* MeasureDistance */\012ROUND[00]	/* Round */\012PUSHW[ ]	/* 2 values pushed */\01221 27 \012MD[0]	/* MeasureDistance */\012ROUND[00]	/* Round */\012SUB[ ]	/* Subtract */\012PUSHB[ ]	/* 1 value pushed */\01264 \012GT[ ]	/* GreaterThan */\012IF[ ]	/* If */\012SHPIX[ ]	/* ShiftZoneByPixel */\012SRP1[ ]	/* SetRefPoint1 */\012SHZ[1]	/* ShiftZoneByLastPoint */\012PUSHW[ ]	/* 2 values pushed */\01227 -64 \012SHPIX[ ]	/* ShiftZoneByPixel */\012EIF[ ]	/* EndIf */";
};
width = 216;
}
);
note = one;
unicode = 0031;
},
{
glyphname = two;
lastChange = "2022-05-29 16:56:12 +0000";
layers = (
{
layerId = "466BAD2E-A4F2-4075-8033-B07AE50D6525";
paths = (
{
closed = 1;
nodes = (
"323 342 LINE",
"295 232 LINE",
"10 234 LINE",
"17 264 LINE",
"169.667 388.667 OFFCURVE",
"246.333 502.333 OFFCURVE",
"247 605 CURVE SMOOTH",
"247 657 OFFCURVE",
"210 695 OFFCURVE",
"158 695 CURVE SMOOTH",
"110 696 OFFCURVE",
"71.667 672.333 OFFCURVE",
"65 627 CURVE",
"62.333 607 OFFCURVE",
"75.667 575.333 OFFCURVE",
"101 594 CURVE SMOOTH",
"107 598.667 OFFCURVE",
"111 602 OFFCURVE",
"113 604 CURVE",
"118 587 LINE",
"114 582.333 OFFCURVE",
"109 577 OFFCURVE",
"103 571 CURVE SMOOTH",
"83 552.333 OFFCURVE",
"66.667 543 OFFCURVE",
"54 543 CURVE SMOOTH",
"43.333 543 OFFCURVE",
"35.333 552.333 OFFCURVE",
"30 571 CURVE SMOOTH",
"24 590.333 OFFCURVE",
"24.667 611 OFFCURVE",
"32 633 CURVE SMOOTH",
"52 691.667 OFFCURVE",
"95 721 OFFCURVE",
"161 721 CURVE SMOOTH",
"243.667 719.667 OFFCURVE",
"309 662.333 OFFCURVE",
"309 581 CURVE SMOOTH",
"308.333 524.333 OFFCURVE",
"281.667 467.667 OFFCURVE",
"229 411 CURVE SMOOTH",
"200.333 380.333 OFFCURVE",
"150.667 339 OFFCURVE",
"80 287 CURVE",
"254 286 LINE",
"268.667 285.333 OFFCURVE",
"280 291.333 OFFCURVE",
"288 304 CURVE",
"294 316.667 OFFCURVE",
"300 329.333 OFFCURVE",
"306 342 CURVE"
);
}
);
userData = {
assembly = "NPUSHB[ ]	/* 28 values pushed */\0121 40 40 64 41 39 39 25 23 4 0 39 37 34 28 22 16 9 5 12 38 31 3 18 2 1 37 70 \012SROUND[ ]	/* SuperRound */\012MDAP[1]	/* MoveDirectAbsPt */\012SHZ[1]	/* ShiftZoneByLastPoint */\012RTG[ ]	/* RoundToGrid */\012SVTCA[0]	/* SetFreedomAndProjectionVectorToAxis */\012MIAP[1]	/* MoveIndirectAbsPt */\012MIAP[1]	/* MoveIndirectAbsPt */\012MDAP[1]	/* MoveDirectAbsPt */\012MDAP[1]	/* MoveDirectAbsPt */\012SVTCA[1]	/* SetFreedomAndProjectionVectorToAxis */\012MDAP[0]	/* MoveDirectAbsPt */\012MDAP[0]	/* MoveDirectAbsPt */\012MDAP[0]	/* MoveDirectAbsPt */\012MDAP[0]	/* MoveDirectAbsPt */\012MDAP[0]	/* MoveDirectAbsPt */\012MDAP[0]	/* MoveDirectAbsPt */\012MDAP[0]	/* MoveDirectAbsPt */\012MDAP[0]	/* MoveDirectAbsPt */\012SVTCA[0]	/* SetFreedomAndProjectionVectorToAxis */\012MDAP[0]	/* MoveDirectAbsPt */\012MDAP[0]	/* MoveDirectAbsPt */\012MDAP[0]	/* MoveDirectAbsPt */\012MDAP[0]	/* MoveDirectAbsPt */\012MDAP[0]	/* MoveDirectAbsPt */\012IUP[1]	/* InterpolateUntPts */\012IUP[0]	/* InterpolateUntPts */\012SVTCA[1]	/* SetFreedomAndProjectionVectorToAxis */\012MD[0]	/* MeasureDistance */\012ROUND[00]	/* Round */\012PUSHW[ ]	/* 2 values pushed */\01237 40 \012MD[0]	/* MeasureDistance */\012ROUND[00]	/* Round */\012SUB[ ]	/* Subtract */\012PUSHB[ ]	/* 1 value pushed */\01264 \012GT[ ]	/* GreaterThan */\012IF[ ]	/* If */\012SHPIX[ ]	/* ShiftZoneByPixel */\012SRP1[ ]	/* SetRefPoint1 */\012SHZ[1]	/* ShiftZoneByLastPoint */\012PUSHW[ ]	/* 2 values pushed */\01240 -64 \012SHPIX[ ]	/* ShiftZoneByPixel */\012EIF[ ]	/* EndIf */";
};
width = 333;
}
);
note = two;
unicode = 0032;
},
